<?xml version="1.0" encoding="UTF-8" standalone="no"?><!DOCTYPE svg PUBLIC "-//W3C//DTD SVG 1.1//EN" "http://www.w3.org/Graphics/SVG/1.1/DTD/svg11.dtd"><svg width="100%" height="100%" viewBox="0 0 640 640" version="1.1" xmlns="http://www.w3.org/2000/svg" xmlns:xlink="http://www.w3.org/1999/xlink" xml:space="preserve" xmlns:serif="http://www.serif.com/" style="fill-rule:evenodd;clip-rule:evenodd;stroke-linejoin:round;stroke-miterlimit:1.41421;"><rect x="0" y="0" width="640" height="640" style="fill:#fff;"/><rect x="267" y="24" width="319" height="284.993" style="fill:#cde4f5;fill-opacity:0.6;"/><rect x="24" y="228" width="592" height="360" style="fill:#cde4f5;"/><g id="MAMBO"><rect x="219" y="517" width="59" height="37" style="fill:#cfcecf;"/><rect x="219" y="517" width="59" height="37" style="fill:#ffb800;"/><path d="M308,455l-59,0c0,0 0,2.987 0,6.975c0,11.059 8.966,20.025 20.025,20.025c6.207,0 13.039,0 19.227,0c10.907,0 19.748,-8.841 19.748,-19.748c0,-4.125 0,-7.252 0,-7.252Z" style="fill:#cfcecf;"/><path d="M308,462.252l0,0.128l-0.002,0.127l-0.002,0.128l-0.002,0.127l-0.004,0.127l-0.004,0.127l-0.006,0.126l-0.006,0.126l-0.006,0.127l-0.008,0.125l-0.008,0.126l-0.01,0.126l-0.01,0.125l-0.01,0.125l-0.012,0.125l-0.012,0.124l-0.013,0.125l-0.014,0.124l-0.014,0.124l-0.016,0.123l-0.016,0.124l-0.017,0.123l-0.017,0.123l-0.019,0.123l-0.019,0.122l-0.019,0.122l-0.021,0.122l-0.021,0.122l-0.023,0.121l-0.022,0.122l-0.024,0.12l-0.024,0.121l-0.025,0.12l-0.026,0.121l-0.026,0.119l-0.028,0.12l-0.028,0.119l-0.028,0.119l-0.03,0.119l-0.03,0.119l-0.031,0.118l-0.031,0.118l-0.032,0.117l-0.033,0.117l-0.034,0.117l-0.034,0.117l-0.035,0.117l-0.036,0.116l-0.036,0.115l-0.037,0.116l-0.077,0.23l-0.079,0.229l-0.081,0.227l-0.085,0.226l-0.087,0.225l-0.09,0.224l-0.092,0.222l-0.095,0.221l-0.097,0.219l-0.101,0.218l-0.102,0.217l-0.106,0.215l-0.107,0.213l-0.111,0.213l-0.112,0.21l-0.116,0.209l-0.117,0.208l-0.12,0.206l-0.123,0.204l-0.125,0.203l-0.127,0.201l-0.13,0.2l-0.132,0.197l-0.134,0.197l-0.136,0.194l-0.139,0.193l-0.141,0.191l-0.143,0.189l-0.146,0.187l-0.148,0.186l-0.149,0.184l-0.152,0.182l-0.155,0.18l-0.156,0.178l-0.158,0.176l-0.161,0.175l-0.162,0.172l-0.164,0.17l-0.167,0.169l-0.169,0.167l-0.17,0.164l-0.172,0.162l-0.175,0.161l-0.176,0.158l-0.178,0.156l-0.18,0.155l-0.182,0.152l-0.184,0.149l-0.186,0.148l-0.187,0.146l-0.189,0.143l-0.191,0.141l-0.193,0.139l-0.194,0.136l-0.197,0.134l-0.197,0.132l-0.2,0.13l-0.201,0.127l-0.203,0.125l-0.204,0.123l-0.206,0.12l-0.208,0.117l-0.209,0.116l-0.21,0.112l-0.213,0.111l-0.213,0.107l-0.215,0.106l-0.217,0.102l-0.218,0.101l-0.219,0.097l-0.221,0.095l-0.222,0.092l-0.224,0.09l-0.225,0.087l-0.226,0.085l-0.227,0.081l-0.229,0.079l-0.23,0.077l-0.116,0.037l-0.115,0.036l-0.116,0.036l-0.117,0.035l-0.117,0.034l-0.117,0.034l-0.117,0.033l-0.117,0.032l-0.118,0.031l-0.118,0.031l-0.119,0.03l-0.119,0.03l-0.119,0.028l-0.119,0.028l-0.12,0.028l-0.119,0.026l-0.121,0.026l-0.12,0.025l-0.121,0.024l-0.12,0.024l-0.122,0.022l-0.121,0.023l-0.122,0.021l-0.122,0.021l-0.122,0.019l-0.122,0.019l-0.123,0.019l-0.123,0.017l-0.123,0.017l-0.124,0.016l-0.123,0.016l-0.124,0.014l-0.124,0.014l-0.125,0.013l-0.124,0.012l-0.125,0.012l-0.125,0.01l-0.125,0.01l-0.126,0.01l-0.126,0.008l-0.125,0.008l-0.127,0.006l-0.126,0.006l-0.126,0.006l-0.127,0.004l-0.127,0.004l-0.127,0.002l-0.128,0.002l-0.127,0.002l-0.128,0l-19.227,0l-0.129,0l-0.13,-0.002l-0.129,-0.002l-0.129,-0.003l-0.129,-0.003l-0.128,-0.005l-0.128,-0.005l-0.128,-0.006l-0.128,-0.007l-0.128,-0.008l-0.127,-0.008l-0.128,-0.009l-0.127,-0.01l-0.126,-0.011l-0.127,-0.012l-0.126,-0.012l-0.126,-0.014l-0.126,-0.014l-0.126,-0.014l-0.125,-0.016l-0.126,-0.016l-0.124,-0.017l-0.125,-0.018l-0.125,-0.019l-0.124,-0.019l-0.124,-0.02l-0.123,-0.021l-0.124,-0.022l-0.123,-0.022l-0.123,-0.023l-0.122,-0.024l-0.123,-0.025l-0.122,-0.025l-0.122,-0.026l-0.121,-0.027l-0.121,-0.028l-0.121,-0.028l-0.121,-0.029l-0.12,-0.03l-0.121,-0.03l-0.119,-0.032l-0.12,-0.032l-0.119,-0.032l-0.119,-0.034l-0.119,-0.034l-0.118,-0.035l-0.118,-0.035l-0.118,-0.036l-0.117,-0.037l-0.117,-0.038l-0.117,-0.038l-0.117,-0.039l-0.116,-0.04l-0.116,-0.04l-0.115,-0.041l-0.115,-0.042l-0.115,-0.043l-0.115,-0.043l-0.114,-0.044l-0.114,-0.044l-0.113,-0.045l-0.113,-0.046l-0.226,-0.094l-0.223,-0.096l-0.223,-0.099l-0.221,-0.102l-0.22,-0.104l-0.218,-0.106l-0.216,-0.11l-0.215,-0.112l-0.214,-0.114l-0.212,-0.117l-0.211,-0.119l-0.208,-0.122l-0.208,-0.124l-0.205,-0.127l-0.204,-0.129l-0.203,-0.131l-0.2,-0.134l-0.199,-0.136l-0.197,-0.139l-0.196,-0.14l-0.193,-0.143l-0.192,-0.146l-0.19,-0.147l-0.188,-0.15l-0.187,-0.152l-0.184,-0.154l-0.183,-0.156l-0.181,-0.159l-0.178,-0.16l-0.177,-0.163l-0.175,-0.165l-0.173,-0.166l-0.171,-0.169l-0.169,-0.171l-0.166,-0.173l-0.165,-0.175l-0.163,-0.177l-0.16,-0.178l-0.159,-0.181l-0.156,-0.183l-0.154,-0.184l-0.152,-0.187l-0.15,-0.188l-0.147,-0.19l-0.146,-0.192l-0.143,-0.193l-0.14,-0.196l-0.139,-0.197l-0.136,-0.199l-0.134,-0.2l-0.131,-0.203l-0.129,-0.204l-0.127,-0.205l-0.124,-0.208l-0.122,-0.208l-0.119,-0.211l-0.117,-0.212l-0.114,-0.213l-0.112,-0.216l-0.11,-0.216l-0.106,-0.218l-0.104,-0.22l-0.102,-0.221l-0.099,-0.222l-0.096,-0.224l-0.094,-0.226l-0.046,-0.113l-0.045,-0.113l-0.044,-0.114l-0.044,-0.114l-0.043,-0.115l-0.043,-0.115l-0.042,-0.115l-0.041,-0.115l-0.04,-0.116l-0.04,-0.116l-0.039,-0.117l-0.038,-0.117l-0.038,-0.117l-0.037,-0.117l-0.036,-0.118l-0.035,-0.118l-0.035,-0.118l-0.034,-0.119l-0.034,-0.119l-0.032,-0.119l-0.032,-0.12l-0.032,-0.119l-0.03,-0.121l-0.03,-0.12l-0.029,-0.121l-0.028,-0.121l-0.028,-0.121l-0.027,-0.121l-0.026,-0.122l-0.025,-0.122l-0.025,-0.123l-0.024,-0.122l-0.023,-0.123l-0.022,-0.123l-0.022,-0.124l-0.021,-0.123l-0.02,-0.124l-0.019,-0.124l-0.019,-0.125l-0.018,-0.125l-0.017,-0.124l-0.016,-0.126l-0.016,-0.125l-0.014,-0.126l-0.014,-0.125l-0.014,-0.127l-0.012,-0.126l-0.012,-0.126l-0.011,-0.127l-0.01,-0.127l-0.009,-0.128l-0.008,-0.127l-0.008,-0.128l-0.007,-0.128l-0.006,-0.128l-0.005,-0.128l-0.005,-0.128l-0.003,-0.129l-0.003,-0.129l-0.002,-0.129l-0.002,-0.13l0,-0.129l0,-6.975l59,0l0,7.252Zm-38.74,-3.847l0.002,0l-0.018,-0.002l0.016,0.002Zm-0.023,0l0.004,0l-0.04,-0.003l0.036,0.003Zm-0.026,-0.001l0.009,0l-0.063,-0.003l0.054,0.003Zm-0.043,-0.001l0.024,0.001l0.008,0l-0.085,-0.004l0.053,0.003Zm-0.042,0l0.043,0.001l0.011,0l-0.107,-0.004l0.053,0.003Zm-0.041,0l0.055,0.001l-0.15,-0.002l0.055,0.001l0.017,0.001l0.099,0l-0.13,-0.003l0.054,0.002Z" style="fill:#0087ff;"/><rect x="140" y="509" width="69" height="40" style="fill:#636363;"/><rect x="288" y="507" width="46" height="48.5" style="fill:#636363;"/><path d="M420,570.5l-370,0l92.5,-138.5l185,0l92.5,138.5Zm-105.053,-115.022l-159.893,0.003l0.07,0.131l-60.845,91.106l281.585,-0.188l-60.912,-91.06l-0.005,0.008Z" style="fill:#38393a;"/><rect x="305" y="136" width="23" height="26" style="fill:#16d800;"/><circle cx="328" cy="143" r="5" style="fill:#16d800;"/><path d="M349,153.321l0,23.358l-47.515,0.037l0.001,0.002l-132.249,86.331l0.172,0.046l82.142,160.505l-10.551,5.4l-10.682,5.467l-86.876,-170.064l-0.734,-1.784l-0.436,-1.878l-0.125,-1.925l0.188,-1.918l0.497,-1.863l0.792,-1.757l1.066,-1.605l1.312,-1.411l1.524,-1.18l144.067,-93.897l1.482,-0.819l1.583,-0.598l1.654,-0.363l1.688,-0.121l51,0.037Z" style="fill:#38393a;"/><rect x="200.5" y="420" width="69" height="26" style="fill:#38393a;"/><rect x="391.672" y="500" width="13" height="50" style="fill:#636363;"/><circle cx="69.5" cy="570.5" r="45.5" style="fill:#cfcecf;"/><path d="M69.794,525.001l0.294,0.003l0.293,0.004l0.293,0.007l0.292,0.008l0.292,0.01l0.291,0.012l0.291,0.014l0.29,0.016l0.29,0.017l0.29,0.02l0.289,0.021l0.288,0.023l0.288,0.024l0.287,0.027l0.287,0.028l0.287,0.03l0.286,0.032l0.285,0.034l0.285,0.035l0.284,0.037l0.284,0.039l0.283,0.04l0.282,0.043l0.282,0.044l0.282,0.045l0.281,0.048l0.28,0.049l0.28,0.051l0.279,0.053l0.278,0.054l0.278,0.056l0.277,0.058l0.277,0.059l0.276,0.061l0.275,0.063l0.275,0.064l0.274,0.066l0.274,0.068l0.273,0.07l0.272,0.071l0.271,0.072l0.271,0.074l0.27,0.076l0.27,0.078l0.269,0.079l0.268,0.081l0.267,0.082l0.267,0.084l0.266,0.086l0.265,0.087l0.265,0.088l0.264,0.091l0.263,0.091l0.262,0.094l0.262,0.095l0.261,0.096l0.26,0.098l0.259,0.1l0.259,0.101l0.258,0.103l0.257,0.104l0.256,0.106l0.256,0.107l0.254,0.109l0.254,0.11l0.253,0.112l0.253,0.113l0.251,0.115l0.251,0.116l0.25,0.118l0.249,0.119l0.248,0.12l0.247,0.122l0.247,0.124l0.246,0.125l0.244,0.126l0.244,0.128l0.243,0.129l0.243,0.131l0.241,0.132l0.24,0.134l0.24,0.135l0.238,0.136l0.238,0.138l0.237,0.139l0.236,0.14l0.235,0.142l0.234,0.143l0.233,0.145l0.232,0.146l0.232,0.147l0.23,0.149l0.229,0.15l0.229,0.151l0.227,0.153l0.227,0.154l0.225,0.156l0.225,0.156l0.223,0.158l0.223,0.16l0.221,0.16l0.221,0.162l0.219,0.163l0.219,0.165l0.217,0.165l0.217,0.167l0.215,0.169l0.214,0.169l0.214,0.171l0.212,0.172l0.211,0.173l0.21,0.175l0.21,0.176l0.208,0.177l0.207,0.178l0.205,0.179l0.205,0.181l0.204,0.182l0.202,0.183l0.202,0.184l0.2,0.186l0.2,0.186l0.198,0.188l0.197,0.189l0.196,0.19l0.194,0.191l0.194,0.193l0.193,0.194l0.191,0.194l0.19,0.196l0.189,0.197l0.188,0.198l0.186,0.2l0.186,0.2l0.184,0.202l0.183,0.202l0.182,0.204l0.181,0.205l0.179,0.205l0.178,0.207l0.177,0.208l0.176,0.21l0.175,0.21l0.173,0.211l0.172,0.212l0.171,0.214l0.169,0.214l0.169,0.215l0.167,0.217l0.165,0.217l0.165,0.219l0.163,0.219l0.162,0.221l0.16,0.221l0.16,0.223l0.158,0.223l0.156,0.225l0.156,0.225l0.154,0.227l0.153,0.227l0.151,0.229l0.15,0.229l0.149,0.23l0.147,0.232l0.146,0.232l0.145,0.233l0.143,0.234l0.142,0.235l0.14,0.236l0.139,0.237l0.138,0.238l0.136,0.238l0.135,0.24l0.134,0.24l0.132,0.241l0.131,0.243l0.129,0.243l0.128,0.244l0.126,0.244l0.125,0.246l0.124,0.247l0.122,0.247l0.12,0.248l0.119,0.249l0.118,0.25l0.116,0.251l0.115,0.251l0.113,0.253l0.112,0.253l0.11,0.254l0.109,0.254l0.107,0.256l0.106,0.256l0.104,0.257l0.103,0.258l0.101,0.259l0.1,0.259l0.098,0.26l0.096,0.261l0.095,0.262l0.094,0.262l0.091,0.263l0.091,0.264l0.088,0.265l0.087,0.265l0.086,0.266l0.084,0.267l0.082,0.267l0.081,0.268l0.079,0.269l0.078,0.27l0.076,0.27l0.074,0.271l0.072,0.271l0.071,0.272l0.07,0.273l0.068,0.274l0.066,0.274l0.064,0.275l0.063,0.275l0.061,0.276l0.059,0.277l0.058,0.277l0.056,0.278l0.054,0.278l0.053,0.279l0.051,0.28l0.049,0.28l0.048,0.281l0.045,0.282l0.044,0.282l0.043,0.282l0.04,0.283l0.039,0.284l0.037,0.284l0.035,0.285l0.034,0.285l0.032,0.286l0.03,0.287l0.028,0.287l0.027,0.287l0.024,0.288l0.023,0.288l0.021,0.289l0.02,0.29l0.017,0.29l0.016,0.29l0.014,0.291l0.012,0.291l0.01,0.292l0.008,0.292l0.007,0.293l0.004,0.293l0.003,0.294l0.001,0.294l-0.001,0.294l-0.003,0.294l-0.004,0.293l-0.007,0.293l-0.008,0.292l-0.01,0.292l-0.012,0.291l-0.014,0.291l-0.016,0.29l-0.017,0.29l-0.02,0.29l-0.021,0.289l-0.023,0.288l-0.024,0.288l-0.027,0.287l-0.028,0.287l-0.03,0.287l-0.032,0.286l-0.034,0.285l-0.035,0.285l-0.037,0.284l-0.039,0.284l-0.04,0.283l-0.043,0.282l-0.044,0.282l-0.045,0.282l-0.048,0.281l-0.049,0.28l-0.051,0.28l-0.053,0.279l-0.054,0.278l-0.056,0.278l-0.058,0.277l-0.059,0.277l-0.061,0.276l-0.063,0.275l-0.064,0.275l-0.066,0.274l-0.068,0.274l-0.07,0.273l-0.071,0.272l-0.072,0.271l-0.074,0.271l-0.076,0.27l-0.078,0.27l-0.079,0.269l-0.081,0.268l-0.082,0.267l-0.084,0.267l-0.086,0.266l-0.087,0.265l-0.088,0.265l-0.091,0.264l-0.091,0.263l-0.094,0.262l-0.095,0.262l-0.096,0.261l-0.098,0.26l-0.1,0.259l-0.101,0.259l-0.103,0.258l-0.104,0.257l-0.106,0.256l-0.107,0.256l-0.109,0.254l-0.11,0.254l-0.112,0.253l-0.113,0.253l-0.115,0.251l-0.116,0.251l-0.118,0.25l-0.119,0.249l-0.12,0.248l-0.122,0.247l-0.124,0.247l-0.125,0.246l-0.126,0.244l-0.128,0.244l-0.129,0.243l-0.131,0.243l-0.132,0.241l-0.134,0.24l-0.135,0.24l-0.136,0.238l-0.138,0.238l-0.139,0.237l-0.14,0.236l-0.142,0.235l-0.143,0.234l-0.145,0.233l-0.146,0.232l-0.147,0.232l-0.149,0.23l-0.15,0.229l-0.151,0.229l-0.153,0.227l-0.154,0.227l-0.156,0.225l-0.156,0.225l-0.158,0.223l-0.16,0.223l-0.16,0.221l-0.162,0.221l-0.163,0.219l-0.165,0.219l-0.165,0.217l-0.167,0.217l-0.169,0.215l-0.169,0.214l-0.171,0.214l-0.172,0.212l-0.173,0.211l-0.175,0.21l-0.176,0.21l-0.177,0.208l-0.178,0.207l-0.179,0.205l-0.181,0.205l-0.182,0.204l-0.183,0.202l-0.184,0.202l-0.186,0.2l-0.186,0.2l-0.188,0.198l-0.189,0.197l-0.19,0.196l-0.191,0.194l-0.193,0.194l-0.194,0.193l-0.194,0.191l-0.196,0.19l-0.197,0.189l-0.198,0.188l-0.2,0.186l-0.2,0.186l-0.202,0.184l-0.202,0.183l-0.204,0.182l-0.205,0.181l-0.205,0.179l-0.207,0.178l-0.208,0.177l-0.21,0.176l-0.21,0.175l-0.211,0.173l-0.212,0.172l-0.214,0.171l-0.214,0.169l-0.215,0.169l-0.217,0.167l-0.217,0.165l-0.219,0.165l-0.219,0.163l-0.221,0.162l-0.221,0.16l-0.223,0.16l-0.223,0.158l-0.225,0.156l-0.225,0.156l-0.227,0.154l-0.227,0.153l-0.229,0.151l-0.229,0.15l-0.23,0.149l-0.232,0.147l-0.232,0.146l-0.233,0.145l-0.234,0.143l-0.235,0.142l-0.236,0.14l-0.237,0.139l-0.238,0.138l-0.238,0.136l-0.24,0.135l-0.24,0.134l-0.241,0.132l-0.243,0.131l-0.243,0.129l-0.244,0.128l-0.244,0.126l-0.246,0.125l-0.247,0.124l-0.247,0.122l-0.248,0.12l-0.249,0.119l-0.25,0.118l-0.251,0.116l-0.251,0.115l-0.253,0.113l-0.253,0.112l-0.254,0.11l-0.254,0.109l-0.256,0.107l-0.256,0.106l-0.257,0.104l-0.258,0.103l-0.259,0.101l-0.259,0.1l-0.26,0.098l-0.261,0.096l-0.262,0.095l-0.262,0.094l-0.263,0.091l-0.264,0.091l-0.265,0.088l-0.265,0.087l-0.266,0.086l-0.267,0.084l-0.267,0.082l-0.268,0.081l-0.269,0.079l-0.27,0.078l-0.27,0.076l-0.271,0.074l-0.271,0.072l-0.272,0.071l-0.273,0.07l-0.274,0.068l-0.274,0.066l-0.275,0.064l-0.275,0.063l-0.276,0.061l-0.277,0.059l-0.277,0.058l-0.278,0.056l-0.278,0.054l-0.279,0.053l-0.28,0.051l-0.28,0.049l-0.281,0.048l-0.282,0.045l-0.282,0.044l-0.282,0.043l-0.283,0.04l-0.284,0.039l-0.284,0.037l-0.285,0.035l-0.285,0.034l-0.286,0.032l-0.287,0.03l-0.287,0.028l-0.287,0.027l-0.288,0.024l-0.288,0.023l-0.289,0.021l-0.29,0.02l-0.29,0.017l-0.29,0.016l-0.291,0.014l-0.291,0.012l-0.292,0.01l-0.292,0.008l-0.293,0.007l-0.293,0.004l-0.294,0.003l-0.294,0.001l-0.294,-0.001l-0.294,-0.003l-0.293,-0.004l-0.293,-0.007l-0.292,-0.008l-0.292,-0.01l-0.291,-0.012l-0.291,-0.014l-0.29,-0.016l-0.29,-0.017l-0.29,-0.02l-0.289,-0.021l-0.288,-0.023l-0.288,-0.024l-0.287,-0.027l-0.287,-0.028l-0.287,-0.03l-0.286,-0.032l-0.285,-0.034l-0.285,-0.035l-0.284,-0.037l-0.284,-0.039l-0.283,-0.04l-0.282,-0.043l-0.282,-0.044l-0.282,-0.045l-0.281,-0.048l-0.28,-0.049l-0.28,-0.051l-0.279,-0.053l-0.278,-0.054l-0.278,-0.056l-0.277,-0.058l-0.277,-0.059l-0.276,-0.061l-0.275,-0.063l-0.275,-0.064l-0.274,-0.066l-0.274,-0.068l-0.273,-0.07l-0.272,-0.071l-0.271,-0.072l-0.271,-0.074l-0.27,-0.076l-0.27,-0.078l-0.269,-0.079l-0.268,-0.081l-0.267,-0.082l-0.267,-0.084l-0.266,-0.086l-0.265,-0.087l-0.265,-0.088l-0.264,-0.091l-0.263,-0.091l-0.262,-0.094l-0.262,-0.095l-0.261,-0.096l-0.26,-0.098l-0.259,-0.1l-0.259,-0.101l-0.258,-0.103l-0.257,-0.104l-0.256,-0.106l-0.256,-0.107l-0.254,-0.109l-0.254,-0.11l-0.253,-0.112l-0.253,-0.113l-0.251,-0.115l-0.251,-0.116l-0.25,-0.118l-0.249,-0.119l-0.248,-0.12l-0.247,-0.122l-0.247,-0.124l-0.246,-0.125l-0.244,-0.126l-0.244,-0.128l-0.243,-0.129l-0.243,-0.131l-0.241,-0.132l-0.24,-0.134l-0.24,-0.135l-0.238,-0.136l-0.238,-0.138l-0.237,-0.139l-0.236,-0.14l-0.235,-0.142l-0.234,-0.143l-0.233,-0.145l-0.232,-0.146l-0.232,-0.147l-0.23,-0.149l-0.229,-0.15l-0.229,-0.151l-0.227,-0.153l-0.227,-0.154l-0.225,-0.156l-0.225,-0.156l-0.223,-0.158l-0.223,-0.16l-0.221,-0.16l-0.221,-0.162l-0.219,-0.163l-0.219,-0.165l-0.217,-0.165l-0.217,-0.167l-0.215,-0.169l-0.214,-0.169l-0.214,-0.171l-0.212,-0.172l-0.211,-0.173l-0.21,-0.175l-0.21,-0.176l-0.208,-0.177l-0.207,-0.178l-0.205,-0.179l-0.205,-0.181l-0.204,-0.182l-0.202,-0.183l-0.202,-0.184l-0.2,-0.186l-0.2,-0.186l-0.198,-0.188l-0.197,-0.189l-0.196,-0.19l-0.194,-0.191l-0.194,-0.193l-0.193,-0.194l-0.191,-0.194l-0.19,-0.196l-0.189,-0.197l-0.188,-0.198l-0.186,-0.2l-0.186,-0.2l-0.184,-0.202l-0.183,-0.202l-0.182,-0.204l-0.181,-0.205l-0.179,-0.205l-0.178,-0.207l-0.177,-0.208l-0.176,-0.21l-0.175,-0.21l-0.173,-0.211l-0.172,-0.212l-0.171,-0.214l-0.169,-0.214l-0.169,-0.215l-0.167,-0.217l-0.165,-0.217l-0.165,-0.219l-0.163,-0.219l-0.162,-0.221l-0.16,-0.221l-0.16,-0.223l-0.158,-0.223l-0.156,-0.225l-0.156,-0.225l-0.154,-0.227l-0.153,-0.227l-0.151,-0.229l-0.15,-0.229l-0.149,-0.23l-0.147,-0.232l-0.146,-0.232l-0.145,-0.233l-0.143,-0.234l-0.142,-0.235l-0.14,-0.236l-0.139,-0.237l-0.138,-0.238l-0.136,-0.238l-0.135,-0.24l-0.134,-0.24l-0.132,-0.241l-0.131,-0.243l-0.129,-0.243l-0.128,-0.244l-0.126,-0.244l-0.125,-0.246l-0.124,-0.247l-0.122,-0.247l-0.12,-0.248l-0.119,-0.249l-0.118,-0.25l-0.116,-0.251l-0.115,-0.251l-0.113,-0.253l-0.112,-0.253l-0.11,-0.254l-0.109,-0.254l-0.107,-0.256l-0.106,-0.256l-0.104,-0.257l-0.103,-0.258l-0.101,-0.259l-0.1,-0.259l-0.098,-0.26l-0.096,-0.261l-0.095,-0.262l-0.094,-0.262l-0.091,-0.263l-0.091,-0.264l-0.088,-0.265l-0.087,-0.265l-0.086,-0.266l-0.084,-0.267l-0.082,-0.267l-0.081,-0.268l-0.079,-0.269l-0.078,-0.27l-0.076,-0.27l-0.074,-0.271l-0.072,-0.271l-0.071,-0.272l-0.07,-0.273l-0.068,-0.274l-0.066,-0.274l-0.064,-0.275l-0.063,-0.275l-0.061,-0.276l-0.059,-0.277l-0.058,-0.277l-0.056,-0.278l-0.054,-0.278l-0.053,-0.279l-0.051,-0.28l-0.049,-0.28l-0.048,-0.281l-0.045,-0.282l-0.044,-0.282l-0.043,-0.282l-0.04,-0.283l-0.039,-0.284l-0.037,-0.284l-0.035,-0.285l-0.034,-0.285l-0.032,-0.286l-0.03,-0.287l-0.028,-0.287l-0.027,-0.287l-0.024,-0.288l-0.023,-0.288l-0.021,-0.289l-0.02,-0.29l-0.017,-0.29l-0.016,-0.29l-0.014,-0.291l-0.012,-0.291l-0.01,-0.292l-0.008,-0.292l-0.007,-0.293l-0.004,-0.293l-0.003,-0.294l-0.001,-0.294l0.001,-0.294l0.003,-0.294l0.004,-0.293l0.007,-0.293l0.008,-0.292l0.01,-0.292l0.012,-0.291l0.014,-0.291l0.016,-0.29l0.017,-0.29l0.02,-0.29l0.021,-0.289l0.023,-0.288l0.024,-0.288l0.027,-0.287l0.028,-0.287l0.03,-0.287l0.032,-0.286l0.034,-0.285l0.035,-0.285l0.037,-0.284l0.039,-0.284l0.04,-0.283l0.043,-0.282l0.044,-0.282l0.045,-0.282l0.048,-0.281l0.049,-0.28l0.051,-0.28l0.053,-0.279l0.054,-0.278l0.056,-0.278l0.058,-0.277l0.059,-0.277l0.061,-0.276l0.063,-0.275l0.064,-0.275l0.066,-0.274l0.068,-0.274l0.07,-0.273l0.071,-0.272l0.072,-0.271l0.074,-0.271l0.076,-0.27l0.078,-0.27l0.079,-0.269l0.081,-0.268l0.082,-0.267l0.084,-0.267l0.086,-0.266l0.087,-0.265l0.088,-0.265l0.091,-0.264l0.091,-0.263l0.094,-0.262l0.095,-0.262l0.096,-0.261l0.098,-0.26l0.1,-0.259l0.101,-0.259l0.103,-0.258l0.104,-0.257l0.106,-0.256l0.107,-0.256l0.109,-0.254l0.11,-0.254l0.112,-0.253l0.113,-0.253l0.115,-0.251l0.116,-0.251l0.118,-0.25l0.119,-0.249l0.12,-0.248l0.122,-0.247l0.124,-0.247l0.125,-0.246l0.126,-0.244l0.128,-0.244l0.129,-0.243l0.131,-0.243l0.132,-0.241l0.134,-0.24l0.135,-0.24l0.136,-0.238l0.138,-0.238l0.139,-0.237l0.14,-0.236l0.142,-0.235l0.143,-0.234l0.145,-0.233l0.146,-0.232l0.147,-0.232l0.149,-0.23l0.15,-0.229l0.151,-0.229l0.153,-0.227l0.154,-0.227l0.156,-0.225l0.156,-0.225l0.158,-0.223l0.16,-0.223l0.16,-0.221l0.162,-0.221l0.163,-0.219l0.165,-0.219l0.165,-0.217l0.167,-0.217l0.169,-0.215l0.169,-0.214l0.171,-0.214l0.172,-0.212l0.173,-0.211l0.175,-0.21l0.176,-0.21l0.177,-0.208l0.178,-0.207l0.179,-0.205l0.181,-0.205l0.182,-0.204l0.183,-0.202l0.184,-0.202l0.186,-0.2l0.186,-0.2l0.188,-0.198l0.189,-0.197l0.19,-0.196l0.191,-0.194l0.193,-0.194l0.194,-0.193l0.194,-0.191l0.196,-0.19l0.197,-0.189l0.198,-0.188l0.2,-0.186l0.2,-0.186l0.202,-0.184l0.202,-0.183l0.204,-0.182l0.205,-0.181l0.205,-0.179l0.207,-0.178l0.208,-0.177l0.21,-0.176l0.21,-0.175l0.211,-0.173l0.212,-0.172l0.214,-0.171l0.214,-0.169l0.215,-0.169l0.217,-0.167l0.217,-0.165l0.219,-0.165l0.219,-0.163l0.221,-0.162l0.221,-0.16l0.223,-0.16l0.223,-0.158l0.225,-0.156l0.225,-0.156l0.227,-0.154l0.227,-0.153l0.229,-0.151l0.229,-0.15l0.23,-0.149l0.232,-0.147l0.232,-0.146l0.233,-0.145l0.234,-0.143l0.235,-0.142l0.236,-0.14l0.237,-0.139l0.238,-0.138l0.238,-0.136l0.24,-0.135l0.24,-0.134l0.241,-0.132l0.243,-0.131l0.243,-0.129l0.244,-0.128l0.244,-0.126l0.246,-0.125l0.247,-0.124l0.247,-0.122l0.248,-0.12l0.249,-0.119l0.25,-0.118l0.251,-0.116l0.251,-0.115l0.253,-0.113l0.253,-0.112l0.254,-0.11l0.254,-0.109l0.256,-0.107l0.256,-0.106l0.257,-0.104l0.258,-0.103l0.259,-0.101l0.259,-0.1l0.26,-0.098l0.261,-0.096l0.262,-0.095l0.262,-0.094l0.263,-0.091l0.264,-0.091l0.265,-0.088l0.265,-0.087l0.266,-0.086l0.267,-0.084l0.267,-0.082l0.268,-0.081l0.269,-0.079l0.27,-0.078l0.27,-0.076l0.271,-0.074l0.271,-0.072l0.272,-0.071l0.273,-0.07l0.274,-0.068l0.274,-0.066l0.275,-0.064l0.275,-0.063l0.276,-0.061l0.277,-0.059l0.277,-0.058l0.278,-0.056l0.278,-0.054l0.279,-0.053l0.28,-0.051l0.28,-0.049l0.281,-0.048l0.282,-0.045l0.282,-0.044l0.282,-0.043l0.283,-0.04l0.284,-0.039l0.284,-0.037l0.285,-0.035l0.285,-0.034l0.286,-0.032l0.287,-0.03l0.287,-0.028l0.287,-0.027l0.288,-0.024l0.288,-0.023l0.289,-0.021l0.29,-0.02l0.29,-0.017l0.29,-0.016l0.291,-0.014l0.291,-0.012l0.292,-0.01l0.292,-0.008l0.293,-0.007l0.293,-0.004l0.294,-0.003l0.294,-0.001l0.294,0.001Zm-0.44,23.358l-0.145,0.002l-0.145,0.003l-0.145,0.004l-0.144,0.005l-0.144,0.005l-0.144,0.007l-0.143,0.007l-0.142,0.009l-0.142,0.009l-0.142,0.01l-0.142,0.011l-0.141,0.012l-0.14,0.013l-0.14,0.013l-0.14,0.015l-0.14,0.015l-0.139,0.016l-0.139,0.017l-0.138,0.018l-0.138,0.019l-0.138,0.019l-0.137,0.02l-0.137,0.021l-0.136,0.022l-0.137,0.023l-0.135,0.024l-0.136,0.024l-0.135,0.026l-0.135,0.026l-0.134,0.026l-0.134,0.028l-0.134,0.029l-0.133,0.029l-0.133,0.03l-0.133,0.031l-0.132,0.032l-0.133,0.032l-0.131,0.033l-0.132,0.034l-0.131,0.035l-0.13,0.036l-0.13,0.036l-0.13,0.037l-0.13,0.038l-0.129,0.039l-0.129,0.039l-0.129,0.041l-0.128,0.041l-0.128,0.042l-0.128,0.042l-0.127,0.043l-0.127,0.045l-0.126,0.044l-0.127,0.046l-0.126,0.046l-0.125,0.047l-0.125,0.048l-0.125,0.049l-0.125,0.049l-0.124,0.05l-0.124,0.051l-0.123,0.052l-0.123,0.052l-0.123,0.053l-0.122,0.054l-0.122,0.054l-0.122,0.056l-0.121,0.056l-0.121,0.056l-0.12,0.058l-0.12,0.058l-0.12,0.059l-0.12,0.059l-0.119,0.061l-0.118,0.061l-0.118,0.062l-0.118,0.062l-0.118,0.063l-0.117,0.064l-0.117,0.065l-0.116,0.065l-0.116,0.066l-0.115,0.067l-0.115,0.067l-0.115,0.068l-0.114,0.069l-0.114,0.069l-0.113,0.07l-0.113,0.071l-0.113,0.072l-0.112,0.072l-0.112,0.073l-0.111,0.073l-0.111,0.074l-0.11,0.075l-0.11,0.076l-0.109,0.076l-0.109,0.077l-0.109,0.077l-0.108,0.078l-0.108,0.079l-0.107,0.079l-0.106,0.081l-0.107,0.08l-0.105,0.082l-0.106,0.082l-0.104,0.082l-0.105,0.083l-0.103,0.084l-0.104,0.085l-0.102,0.085l-0.103,0.085l-0.101,0.087l-0.101,0.087l-0.101,0.087l-0.1,0.088l-0.1,0.089l-0.099,0.089l-0.099,0.09l-0.098,0.091l-0.097,0.091l-0.097,0.091l-0.097,0.093l-0.095,0.093l-0.096,0.093l-0.095,0.094l-0.094,0.094l-0.093,0.095l-0.093,0.096l-0.093,0.096l-0.092,0.097l-0.091,0.097l-0.091,0.098l-0.09,0.098l-0.089,0.099l-0.089,0.099l-0.089,0.1l-0.088,0.101l-0.087,0.1l-0.086,0.102l-0.086,0.102l-0.085,0.102l-0.085,0.103l-0.084,0.104l-0.084,0.104l-0.082,0.104l-0.083,0.105l-0.081,0.105l-0.081,0.106l-0.08,0.106l-0.08,0.107l-0.079,0.107l-0.078,0.108l-0.078,0.108l-0.077,0.109l-0.076,0.109l-0.076,0.11l-0.075,0.11l-0.074,0.11l-0.074,0.111l-0.073,0.111l-0.072,0.112l-0.072,0.112l-0.071,0.112l-0.07,0.113l-0.07,0.114l-0.069,0.114l-0.068,0.114l-0.068,0.114l-0.066,0.115l-0.067,0.116l-0.065,0.116l-0.065,0.116l-0.064,0.116l-0.063,0.117l-0.063,0.118l-0.062,0.117l-0.061,0.118l-0.06,0.119l-0.06,0.119l-0.059,0.119l-0.058,0.12l-0.058,0.119l-0.057,0.121l-0.056,0.12l-0.055,0.121l-0.055,0.122l-0.054,0.122l-0.053,0.122l-0.053,0.122l-0.051,0.123l-0.051,0.123l-0.051,0.123l-0.049,0.124l-0.049,0.124l-0.048,0.125l-0.047,0.124l-0.047,0.126l-0.045,0.125l-0.045,0.126l-0.045,0.126l-0.043,0.126l-0.043,0.127l-0.042,0.127l-0.041,0.128l-0.04,0.127l-0.04,0.128l-0.039,0.129l-0.038,0.129l-0.037,0.129l-0.037,0.129l-0.036,0.13l-0.035,0.13l-0.034,0.13l-0.033,0.131l-0.033,0.131l-0.032,0.131l-0.031,0.132l-0.03,0.132l-0.03,0.132l-0.028,0.132l-0.028,0.133l-0.027,0.134l-0.026,0.133l-0.026,0.134l-0.025,0.134l-0.023,0.135l-0.023,0.135l-0.023,0.135l-0.021,0.136l-0.021,0.136l-0.019,0.136l-0.019,0.137l-0.019,0.137l-0.017,0.137l-0.016,0.138l-0.016,0.138l-0.015,0.138l-0.013,0.139l-0.014,0.139l-0.012,0.139l-0.011,0.14l-0.011,0.14l-0.009,0.141l-0.009,0.141l-0.008,0.141l-0.007,0.142l-0.006,0.142l-0.005,0.143l-0.004,0.143l-0.004,0.143l-0.002,0.143l-0.002,0.145l-0.001,0.144l0.001,0.145l0.001,0.145l0.002,0.144l0.003,0.144l0.003,0.144l0.005,0.143l0.006,0.143l0.006,0.142l0.008,0.142l0.008,0.142l0.009,0.141l0.01,0.141l0.011,0.14l0.012,0.14l0.013,0.14l0.013,0.139l0.014,0.139l0.016,0.139l0.016,0.138l0.016,0.137l0.018,0.138l0.019,0.137l0.019,0.136l0.02,0.137l0.021,0.136l0.022,0.135l0.023,0.135l0.023,0.135l0.024,0.135l0.025,0.134l0.026,0.134l0.027,0.133l0.027,0.133l0.029,0.133l0.029,0.132l0.03,0.132l0.03,0.132l0.032,0.131l0.032,0.131l0.033,0.131l0.034,0.13l0.034,0.13l0.036,0.13l0.036,0.13l0.037,0.129l0.037,0.128l0.039,0.129l0.039,0.128l0.04,0.127l0.041,0.128l0.041,0.127l0.042,0.126l0.043,0.127l0.044,0.125l0.045,0.126l0.045,0.125l0.046,0.125l0.047,0.125l0.047,0.124l0.049,0.124l0.049,0.124l0.049,0.123l0.051,0.123l0.051,0.122l0.052,0.122l0.053,0.122l0.053,0.122l0.054,0.121l0.055,0.12l0.056,0.121l0.056,0.12l0.057,0.119l0.058,0.12l0.058,0.119l0.059,0.118l0.06,0.118l0.061,0.118l0.061,0.117l0.062,0.117l0.063,0.117l0.063,0.116l0.064,0.116l0.065,0.115l0.066,0.115l0.066,0.115l0.067,0.114l0.067,0.114l0.068,0.114l0.069,0.113l0.07,0.112l0.07,0.112l0.071,0.112l0.072,0.111l0.072,0.111l0.073,0.111l0.074,0.11l0.074,0.109l0.075,0.109l0.076,0.109l0.076,0.108l0.077,0.108l0.078,0.107l0.078,0.107l0.079,0.106l0.079,0.106l0.08,0.106l0.081,0.105l0.081,0.104l0.082,0.104l0.083,0.104l0.083,0.103l0.084,0.102l0.085,0.102l0.085,0.102l0.085,0.101l0.087,0.1l0.087,0.1l0.087,0.1l0.088,0.098l0.089,0.099l0.089,0.098l0.09,0.097l0.09,0.097l0.091,0.096l0.092,0.096l0.092,0.095l0.093,0.095l0.093,0.094l0.094,0.093l0.094,0.093l0.095,0.093l0.096,0.091l0.096,0.092l0.096,0.09l0.097,0.09l0.098,0.09l0.098,0.089l0.099,0.088l0.099,0.088l0.099,0.087l0.101,0.086l0.1,0.086l0.101,0.086l0.102,0.084l0.102,0.084l0.103,0.084l0.103,0.083l0.104,0.082l0.104,0.081l0.105,0.081l0.105,0.081l0.105,0.079l0.106,0.079l0.107,0.079l0.107,0.078l0.107,0.077l0.108,0.076l0.108,0.076l0.109,0.075l0.109,0.074l0.11,0.074l0.11,0.073l0.11,0.073l0.111,0.072l0.112,0.071l0.111,0.07l0.112,0.07l0.113,0.069l0.113,0.069l0.113,0.067l0.114,0.067l0.114,0.067l0.115,0.065l0.115,0.065l0.115,0.065l0.116,0.063l0.116,0.063l0.116,0.062l0.117,0.062l0.118,0.06l0.117,0.06l0.118,0.06l0.118,0.058l0.119,0.058l0.119,0.057l0.12,0.057l0.119,0.055l0.121,0.055l0.12,0.055l0.121,0.053l0.121,0.053l0.121,0.052l0.122,0.051l0.123,0.051l0.122,0.05l0.123,0.049l0.123,0.048l0.124,0.048l0.124,0.047l0.124,0.046l0.124,0.046l0.125,0.044l0.125,0.044l0.126,0.043l0.126,0.043l0.126,0.041l0.126,0.041l0.127,0.04l0.127,0.04l0.128,0.038l0.127,0.038l0.128,0.037l0.129,0.036l0.129,0.036l0.129,0.035l0.129,0.034l0.13,0.033l0.13,0.032l0.13,0.032l0.131,0.031l0.131,0.03l0.131,0.029l0.132,0.028l0.132,0.028l0.132,0.027l0.132,0.026l0.133,0.025l0.134,0.025l0.133,0.023l0.134,0.023l0.134,0.022l0.135,0.022l0.135,0.02l0.135,0.02l0.136,0.018l0.136,0.018l0.136,0.018l0.137,0.016l0.137,0.015l0.137,0.015l0.138,0.014l0.138,0.013l0.139,0.012l0.138,0.011l0.14,0.01l0.139,0.01l0.14,0.009l0.14,0.007l0.141,0.007l0.141,0.006l0.142,0.006l0.142,0.004l0.142,0.003l0.143,0.003l0.143,0.001l0.143,0.001l0.144,0l0.144,-0.001l0.143,-0.002l0.143,-0.003l0.143,-0.004l0.142,-0.005l0.142,-0.005l0.141,-0.007l0.141,-0.007l0.141,-0.008l0.14,-0.009l0.14,-0.01l0.139,-0.011l0.139,-0.012l0.139,-0.012l0.138,-0.014l0.138,-0.014l0.137,-0.015l0.137,-0.016l0.137,-0.017l0.136,-0.017l0.136,-0.019l0.136,-0.019l0.135,-0.02l0.135,-0.021l0.135,-0.022l0.134,-0.022l0.134,-0.023l0.133,-0.024l0.133,-0.025l0.133,-0.026l0.133,-0.026l0.132,-0.028l0.132,-0.028l0.131,-0.029l0.131,-0.029l0.131,-0.031l0.13,-0.031l0.13,-0.032l0.13,-0.033l0.129,-0.033l0.129,-0.035l0.129,-0.035l0.129,-0.036l0.128,-0.036l0.127,-0.038l0.128,-0.038l0.127,-0.039l0.127,-0.039l0.126,-0.041l0.126,-0.041l0.126,-0.042l0.125,-0.043l0.125,-0.043l0.125,-0.044l0.124,-0.045l0.124,-0.046l0.124,-0.046l0.123,-0.047l0.123,-0.048l0.123,-0.049l0.122,-0.049l0.122,-0.05l0.122,-0.051l0.121,-0.052l0.121,-0.052l0.12,-0.053l0.12,-0.054l0.12,-0.054l0.12,-0.055l0.119,-0.056l0.119,-0.057l0.118,-0.057l0.118,-0.058l0.118,-0.059l0.117,-0.059l0.117,-0.061l0.116,-0.06l0.116,-0.062l0.116,-0.062l0.116,-0.063l0.115,-0.064l0.114,-0.064l0.114,-0.065l0.114,-0.066l0.113,-0.066l0.113,-0.067l0.113,-0.068l0.112,-0.069l0.112,-0.069l0.111,-0.069l0.111,-0.071l0.111,-0.071l0.11,-0.072l0.109,-0.072l0.109,-0.073l0.109,-0.074l0.109,-0.075l0.107,-0.075l0.108,-0.075l0.107,-0.077l0.106,-0.077l0.106,-0.077l0.106,-0.079l0.105,-0.079l0.105,-0.079l0.104,-0.08l0.104,-0.081l0.103,-0.082l0.103,-0.082l0.102,-0.082l0.102,-0.084l0.101,-0.083l0.101,-0.085l0.1,-0.085l0.1,-0.086l0.099,-0.086l0.099,-0.087l0.098,-0.087l0.098,-0.088l0.097,-0.089l0.096,-0.089l0.096,-0.09l0.096,-0.09l0.095,-0.091l0.095,-0.092l0.093,-0.092l0.094,-0.092l0.093,-0.093l0.092,-0.094l0.092,-0.094l0.091,-0.095l0.09,-0.095l0.09,-0.096l0.09,-0.097l0.089,-0.096l0.088,-0.098l0.088,-0.098l0.087,-0.098l0.086,-0.099l0.086,-0.1l0.085,-0.1l0.085,-0.1l0.084,-0.101l0.083,-0.102l0.083,-0.102l0.083,-0.102l0.081,-0.103l0.081,-0.103l0.081,-0.104l0.079,-0.104l0.079,-0.105l0.079,-0.106l0.078,-0.105l0.077,-0.106l0.076,-0.107l0.076,-0.107l0.075,-0.108l0.075,-0.108l0.074,-0.108l0.073,-0.109l0.073,-0.109l0.072,-0.11l0.071,-0.11l0.071,-0.11l0.07,-0.111l0.069,-0.111l0.069,-0.112l0.067,-0.112l0.068,-0.113l0.066,-0.113l0.066,-0.113l0.065,-0.114l0.065,-0.114l0.063,-0.114l0.064,-0.115l0.062,-0.116l0.062,-0.115l0.061,-0.116l0.06,-0.117l0.059,-0.116l0.059,-0.117l0.059,-0.118l0.057,-0.118l0.057,-0.118l0.056,-0.118l0.055,-0.119l0.055,-0.12l0.053,-0.119l0.054,-0.12l0.052,-0.12l0.052,-0.121l0.051,-0.121l0.05,-0.121l0.049,-0.122l0.049,-0.122l0.048,-0.122l0.047,-0.123l0.047,-0.123l0.046,-0.123l0.045,-0.123l0.044,-0.124l0.044,-0.125l0.043,-0.124l0.042,-0.125l0.041,-0.125l0.04,-0.126l0.04,-0.126l0.039,-0.126l0.039,-0.126l0.037,-0.127l0.037,-0.127l0.036,-0.128l0.035,-0.128l0.035,-0.128l0.033,-0.128l0.033,-0.129l0.032,-0.129l0.032,-0.129l0.03,-0.13l0.03,-0.13l0.029,-0.13l0.028,-0.131l0.028,-0.131l0.027,-0.131l0.026,-0.132l0.025,-0.132l0.024,-0.132l0.023,-0.133l0.023,-0.132l0.022,-0.134l0.021,-0.133l0.02,-0.134l0.02,-0.135l0.018,-0.134l0.018,-0.135l0.017,-0.136l0.016,-0.135l0.016,-0.136l0.014,-0.137l0.014,-0.136l0.013,-0.137l0.012,-0.138l0.011,-0.138l0.01,-0.138l0.01,-0.138l0.008,-0.139l0.008,-0.14l0.007,-0.139l0.006,-0.14l0.005,-0.141l0.004,-0.141l0.004,-0.141l0.002,-0.142l0.002,-0.142l0.001,-0.142l-0.001,-0.143l-0.001,-0.143l-0.002,-0.142l-0.003,-0.142l-0.003,-0.142l-0.005,-0.141l-0.006,-0.141l-0.006,-0.14l-0.007,-0.14l-0.009,-0.14l-0.009,-0.139l-0.01,-0.139l-0.01,-0.138l-0.012,-0.138l-0.012,-0.138l-0.014,-0.137l-0.014,-0.137l-0.015,-0.136l-0.016,-0.136l-0.016,-0.136l-0.018,-0.135l-0.018,-0.135l-0.019,-0.135l-0.02,-0.134l-0.021,-0.134l-0.021,-0.134l-0.022,-0.133l-0.023,-0.133l-0.024,-0.132l-0.025,-0.132l-0.026,-0.132l-0.026,-0.131l-0.027,-0.132l-0.028,-0.13l-0.028,-0.131l-0.03,-0.13l-0.03,-0.13l-0.031,-0.129l-0.032,-0.129l-0.032,-0.129l-0.034,-0.128l-0.034,-0.128l-0.035,-0.128l-0.035,-0.128l-0.037,-0.127l-0.037,-0.127l-0.038,-0.126l-0.038,-0.126l-0.04,-0.126l-0.04,-0.125l-0.041,-0.125l-0.041,-0.125l-0.043,-0.125l-0.043,-0.124l-0.044,-0.123l-0.044,-0.124l-0.046,-0.123l-0.046,-0.123l-0.046,-0.122l-0.048,-0.122l-0.048,-0.122l-0.049,-0.121l-0.05,-0.121l-0.05,-0.121l-0.052,-0.12l-0.051,-0.12l-0.053,-0.12l-0.053,-0.119l-0.054,-0.119l-0.055,-0.119l-0.056,-0.118l-0.056,-0.118l-0.057,-0.117l-0.057,-0.117l-0.059,-0.117l-0.059,-0.117l-0.059,-0.116l-0.061,-0.115l-0.061,-0.116l-0.062,-0.114l-0.062,-0.115l-0.063,-0.114l-0.064,-0.114l-0.065,-0.113l-0.065,-0.113l-0.066,-0.113l-0.067,-0.112l-0.067,-0.111l-0.068,-0.112l-0.068,-0.111l-0.07,-0.11l-0.07,-0.11l-0.07,-0.11l-0.071,-0.109l-0.072,-0.109l-0.073,-0.108l-0.073,-0.108l-0.074,-0.108l-0.075,-0.107l-0.075,-0.107l-0.076,-0.106l-0.076,-0.105l-0.077,-0.106l-0.078,-0.105l-0.078,-0.104l-0.079,-0.104l-0.08,-0.103l-0.08,-0.103l-0.081,-0.103l-0.081,-0.102l-0.082,-0.101l-0.083,-0.101l-0.083,-0.101l-0.084,-0.1l-0.085,-0.099l-0.085,-0.099l-0.085,-0.099l-0.086,-0.098l-0.087,-0.097l-0.088,-0.097l-0.088,-0.097l-0.088,-0.096l-0.089,-0.095l-0.09,-0.095l-0.09,-0.094l-0.091,-0.094l-0.091,-0.093l-0.092,-0.093l-0.093,-0.092l-0.093,-0.092l-0.093,-0.091l-0.094,-0.09l-0.095,-0.09l-0.095,-0.09l-0.096,-0.088l-0.096,-0.088l-0.097,-0.088l-0.097,-0.087l-0.098,-0.087l-0.098,-0.085l-0.099,-0.086l-0.099,-0.084l-0.1,-0.084l-0.1,-0.084l-0.101,-0.083l-0.101,-0.082l-0.102,-0.082l-0.102,-0.081l-0.102,-0.08l-0.104,-0.08l-0.103,-0.079l-0.104,-0.078l-0.105,-0.078l-0.105,-0.078l-0.105,-0.076l-0.106,-0.076l-0.106,-0.075l-0.107,-0.075l-0.107,-0.074l-0.108,-0.074l-0.108,-0.072l-0.108,-0.072l-0.109,-0.072l-0.109,-0.071l-0.11,-0.07l-0.11,-0.069l-0.111,-0.069l-0.11,-0.068l-0.112,-0.067l-0.111,-0.067l-0.113,-0.066l-0.112,-0.065l-0.113,-0.065l-0.113,-0.064l-0.114,-0.063l-0.114,-0.063l-0.114,-0.062l-0.115,-0.061l-0.115,-0.061l-0.116,-0.059l-0.116,-0.06l-0.116,-0.058l-0.116,-0.058l-0.117,-0.057l-0.118,-0.056l-0.117,-0.056l-0.118,-0.055l-0.119,-0.054l-0.118,-0.053l-0.119,-0.053l-0.12,-0.052l-0.119,-0.051l-0.12,-0.051l-0.121,-0.05l-0.121,-0.049l-0.121,-0.048l-0.121,-0.048l-0.122,-0.047l-0.122,-0.046l-0.122,-0.045l-0.123,-0.045l-0.123,-0.044l-0.123,-0.043l-0.124,-0.043l-0.124,-0.042l-0.124,-0.041l-0.124,-0.04l-0.125,-0.039l-0.126,-0.039l-0.125,-0.038l-0.126,-0.037l-0.126,-0.037l-0.127,-0.036l-0.126,-0.034l-0.128,-0.035l-0.127,-0.033l-0.128,-0.033l-0.128,-0.032l-0.128,-0.031l-0.129,-0.03l-0.129,-0.03l-0.129,-0.029l-0.13,-0.028l-0.13,-0.027l-0.13,-0.026l-0.131,-0.026l-0.131,-0.025l-0.131,-0.024l-0.132,-0.023l-0.132,-0.023l-0.132,-0.022l-0.133,-0.021l-0.133,-0.02l-0.133,-0.019l-0.134,-0.018l-0.133,-0.018l-0.135,-0.017l-0.134,-0.016l-0.135,-0.015l-0.136,-0.015l-0.136,-0.013l-0.136,-0.013l-0.136,-0.012l-0.137,-0.011l-0.137,-0.01l-0.138,-0.01l-0.137,-0.008l-0.139,-0.008l-0.138,-0.007l-0.14,-0.006l-0.139,-0.005l-0.14,-0.004l-0.14,-0.003l-0.141,-0.003l-0.141,-0.001l-0.141,-0.001l-0.218,0l0.002,-0.641l-0.072,0Z" style="fill:#9e9d9d;"/><circle cx="399.5" cy="570.5" r="45.5" style="fill:#cfcecf;"/><path d="M399.794,525.001l0.294,0.003l0.293,0.004l0.293,0.007l0.292,0.008l0.292,0.01l0.291,0.012l0.291,0.014l0.29,0.016l0.29,0.017l0.29,0.02l0.289,0.021l0.288,0.023l0.288,0.024l0.287,0.027l0.287,0.028l0.287,0.03l0.286,0.032l0.285,0.034l0.285,0.035l0.284,0.037l0.284,0.039l0.283,0.04l0.282,0.043l0.282,0.044l0.282,0.045l0.281,0.048l0.28,0.049l0.28,0.051l0.279,0.053l0.278,0.054l0.278,0.056l0.277,0.058l0.277,0.059l0.276,0.061l0.275,0.063l0.275,0.064l0.274,0.066l0.274,0.068l0.273,0.07l0.272,0.071l0.271,0.072l0.271,0.074l0.27,0.076l0.27,0.078l0.269,0.079l0.268,0.081l0.267,0.082l0.267,0.084l0.266,0.086l0.265,0.087l0.265,0.088l0.264,0.091l0.263,0.091l0.262,0.094l0.262,0.095l0.261,0.096l0.26,0.098l0.259,0.1l0.259,0.101l0.258,0.103l0.257,0.104l0.256,0.106l0.256,0.107l0.254,0.109l0.254,0.11l0.253,0.112l0.253,0.113l0.251,0.115l0.251,0.116l0.25,0.118l0.249,0.119l0.248,0.12l0.247,0.122l0.247,0.124l0.246,0.125l0.244,0.126l0.244,0.128l0.243,0.129l0.243,0.131l0.241,0.132l0.24,0.134l0.24,0.135l0.238,0.136l0.238,0.138l0.237,0.139l0.236,0.14l0.235,0.142l0.234,0.143l0.233,0.145l0.232,0.146l0.232,0.147l0.23,0.149l0.229,0.15l0.229,0.151l0.227,0.153l0.227,0.154l0.225,0.156l0.225,0.156l0.223,0.158l0.223,0.16l0.221,0.16l0.221,0.162l0.219,0.163l0.219,0.165l0.217,0.165l0.217,0.167l0.215,0.169l0.214,0.169l0.214,0.171l0.212,0.172l0.211,0.173l0.21,0.175l0.21,0.176l0.208,0.177l0.207,0.178l0.205,0.179l0.205,0.181l0.204,0.182l0.202,0.183l0.202,0.184l0.2,0.186l0.2,0.186l0.198,0.188l0.197,0.189l0.196,0.19l0.194,0.191l0.194,0.193l0.193,0.194l0.191,0.194l0.19,0.196l0.189,0.197l0.188,0.198l0.186,0.2l0.186,0.2l0.184,0.202l0.183,0.202l0.182,0.204l0.181,0.205l0.179,0.205l0.178,0.207l0.177,0.208l0.176,0.21l0.175,0.21l0.173,0.211l0.172,0.212l0.171,0.214l0.169,0.214l0.169,0.215l0.167,0.217l0.165,0.217l0.165,0.219l0.163,0.219l0.162,0.221l0.16,0.221l0.16,0.223l0.158,0.223l0.156,0.225l0.156,0.225l0.154,0.227l0.153,0.227l0.151,0.229l0.15,0.229l0.149,0.23l0.147,0.232l0.146,0.232l0.145,0.233l0.143,0.234l0.142,0.235l0.14,0.236l0.139,0.237l0.138,0.238l0.136,0.238l0.135,0.24l0.134,0.24l0.132,0.241l0.131,0.243l0.129,0.243l0.128,0.244l0.126,0.244l0.125,0.246l0.124,0.247l0.122,0.247l0.12,0.248l0.119,0.249l0.118,0.25l0.116,0.251l0.115,0.251l0.113,0.253l0.112,0.253l0.11,0.254l0.109,0.254l0.107,0.256l0.106,0.256l0.104,0.257l0.103,0.258l0.101,0.259l0.1,0.259l0.098,0.26l0.096,0.261l0.095,0.262l0.094,0.262l0.091,0.263l0.091,0.264l0.088,0.265l0.087,0.265l0.086,0.266l0.084,0.267l0.082,0.267l0.081,0.268l0.079,0.269l0.078,0.27l0.076,0.27l0.074,0.271l0.072,0.271l0.071,0.272l0.07,0.273l0.068,0.274l0.066,0.274l0.064,0.275l0.063,0.275l0.061,0.276l0.059,0.277l0.058,0.277l0.056,0.278l0.054,0.278l0.053,0.279l0.051,0.28l0.049,0.28l0.048,0.281l0.045,0.282l0.044,0.282l0.043,0.282l0.04,0.283l0.039,0.284l0.037,0.284l0.035,0.285l0.034,0.285l0.032,0.286l0.03,0.287l0.028,0.287l0.027,0.287l0.024,0.288l0.023,0.288l0.021,0.289l0.02,0.29l0.017,0.29l0.016,0.29l0.014,0.291l0.012,0.291l0.01,0.292l0.008,0.292l0.007,0.293l0.004,0.293l0.003,0.294l0.001,0.294l-0.001,0.294l-0.003,0.294l-0.004,0.293l-0.007,0.293l-0.008,0.292l-0.01,0.292l-0.012,0.291l-0.014,0.291l-0.016,0.29l-0.017,0.29l-0.02,0.29l-0.021,0.289l-0.023,0.288l-0.024,0.288l-0.027,0.287l-0.028,0.287l-0.03,0.287l-0.032,0.286l-0.034,0.285l-0.035,0.285l-0.037,0.284l-0.039,0.284l-0.04,0.283l-0.043,0.282l-0.044,0.282l-0.045,0.282l-0.048,0.281l-0.049,0.28l-0.051,0.28l-0.053,0.279l-0.054,0.278l-0.056,0.278l-0.058,0.277l-0.059,0.277l-0.061,0.276l-0.063,0.275l-0.064,0.275l-0.066,0.274l-0.068,0.274l-0.07,0.273l-0.071,0.272l-0.072,0.271l-0.074,0.271l-0.076,0.27l-0.078,0.27l-0.079,0.269l-0.081,0.268l-0.082,0.267l-0.084,0.267l-0.086,0.266l-0.087,0.265l-0.088,0.265l-0.091,0.264l-0.091,0.263l-0.094,0.262l-0.095,0.262l-0.096,0.261l-0.098,0.26l-0.1,0.259l-0.101,0.259l-0.103,0.258l-0.104,0.257l-0.106,0.256l-0.107,0.256l-0.109,0.254l-0.11,0.254l-0.112,0.253l-0.113,0.253l-0.115,0.251l-0.116,0.251l-0.118,0.25l-0.119,0.249l-0.12,0.248l-0.122,0.247l-0.124,0.247l-0.125,0.246l-0.126,0.244l-0.128,0.244l-0.129,0.243l-0.131,0.243l-0.132,0.241l-0.134,0.24l-0.135,0.24l-0.136,0.238l-0.138,0.238l-0.139,0.237l-0.14,0.236l-0.142,0.235l-0.143,0.234l-0.145,0.233l-0.146,0.232l-0.147,0.232l-0.149,0.23l-0.15,0.229l-0.151,0.229l-0.153,0.227l-0.154,0.227l-0.156,0.225l-0.156,0.225l-0.158,0.223l-0.16,0.223l-0.16,0.221l-0.162,0.221l-0.163,0.219l-0.165,0.219l-0.165,0.217l-0.167,0.217l-0.169,0.215l-0.169,0.214l-0.171,0.214l-0.172,0.212l-0.173,0.211l-0.175,0.21l-0.176,0.21l-0.177,0.208l-0.178,0.207l-0.179,0.205l-0.181,0.205l-0.182,0.204l-0.183,0.202l-0.184,0.202l-0.186,0.2l-0.186,0.2l-0.188,0.198l-0.189,0.197l-0.19,0.196l-0.191,0.194l-0.193,0.194l-0.194,0.193l-0.194,0.191l-0.196,0.19l-0.197,0.189l-0.198,0.188l-0.2,0.186l-0.2,0.186l-0.202,0.184l-0.202,0.183l-0.204,0.182l-0.205,0.181l-0.205,0.179l-0.207,0.178l-0.208,0.177l-0.21,0.176l-0.21,0.175l-0.211,0.173l-0.212,0.172l-0.214,0.171l-0.214,0.169l-0.215,0.169l-0.217,0.167l-0.217,0.165l-0.219,0.165l-0.219,0.163l-0.221,0.162l-0.221,0.16l-0.223,0.16l-0.223,0.158l-0.225,0.156l-0.225,0.156l-0.227,0.154l-0.227,0.153l-0.229,0.151l-0.229,0.15l-0.23,0.149l-0.232,0.147l-0.232,0.146l-0.233,0.145l-0.234,0.143l-0.235,0.142l-0.236,0.14l-0.237,0.139l-0.238,0.138l-0.238,0.136l-0.24,0.135l-0.24,0.134l-0.241,0.132l-0.243,0.131l-0.243,0.129l-0.244,0.128l-0.244,0.126l-0.246,0.125l-0.247,0.124l-0.247,0.122l-0.248,0.12l-0.249,0.119l-0.25,0.118l-0.251,0.116l-0.251,0.115l-0.253,0.113l-0.253,0.112l-0.254,0.11l-0.254,0.109l-0.256,0.107l-0.256,0.106l-0.257,0.104l-0.258,0.103l-0.259,0.101l-0.259,0.1l-0.26,0.098l-0.261,0.096l-0.262,0.095l-0.262,0.094l-0.263,0.091l-0.264,0.091l-0.265,0.088l-0.265,0.087l-0.266,0.086l-0.267,0.084l-0.267,0.082l-0.268,0.081l-0.269,0.079l-0.27,0.078l-0.27,0.076l-0.271,0.074l-0.271,0.072l-0.272,0.071l-0.273,0.07l-0.274,0.068l-0.274,0.066l-0.275,0.064l-0.275,0.063l-0.276,0.061l-0.277,0.059l-0.277,0.058l-0.278,0.056l-0.278,0.054l-0.279,0.053l-0.28,0.051l-0.28,0.049l-0.281,0.048l-0.282,0.045l-0.282,0.044l-0.282,0.043l-0.283,0.04l-0.284,0.039l-0.284,0.037l-0.285,0.035l-0.285,0.034l-0.286,0.032l-0.287,0.03l-0.287,0.028l-0.287,0.027l-0.288,0.024l-0.288,0.023l-0.289,0.021l-0.29,0.02l-0.29,0.017l-0.29,0.016l-0.291,0.014l-0.291,0.012l-0.292,0.01l-0.292,0.008l-0.293,0.007l-0.293,0.004l-0.294,0.003l-0.294,0.001l-0.294,-0.001l-0.294,-0.003l-0.293,-0.004l-0.293,-0.007l-0.292,-0.008l-0.292,-0.01l-0.291,-0.012l-0.291,-0.014l-0.29,-0.016l-0.29,-0.017l-0.29,-0.02l-0.289,-0.021l-0.288,-0.023l-0.288,-0.024l-0.287,-0.027l-0.287,-0.028l-0.287,-0.03l-0.286,-0.032l-0.285,-0.034l-0.285,-0.035l-0.284,-0.037l-0.284,-0.039l-0.283,-0.04l-0.282,-0.043l-0.282,-0.044l-0.282,-0.045l-0.281,-0.048l-0.28,-0.049l-0.28,-0.051l-0.279,-0.053l-0.278,-0.054l-0.278,-0.056l-0.277,-0.058l-0.277,-0.059l-0.276,-0.061l-0.275,-0.063l-0.275,-0.064l-0.274,-0.066l-0.274,-0.068l-0.273,-0.07l-0.272,-0.071l-0.271,-0.072l-0.271,-0.074l-0.27,-0.076l-0.27,-0.078l-0.269,-0.079l-0.268,-0.081l-0.267,-0.082l-0.267,-0.084l-0.266,-0.086l-0.265,-0.087l-0.265,-0.088l-0.264,-0.091l-0.263,-0.091l-0.262,-0.094l-0.262,-0.095l-0.261,-0.096l-0.26,-0.098l-0.259,-0.1l-0.259,-0.101l-0.258,-0.103l-0.257,-0.104l-0.256,-0.106l-0.256,-0.107l-0.254,-0.109l-0.254,-0.11l-0.253,-0.112l-0.253,-0.113l-0.251,-0.115l-0.251,-0.116l-0.25,-0.118l-0.249,-0.119l-0.248,-0.12l-0.247,-0.122l-0.247,-0.124l-0.246,-0.125l-0.244,-0.126l-0.244,-0.128l-0.243,-0.129l-0.243,-0.131l-0.241,-0.132l-0.24,-0.134l-0.24,-0.135l-0.238,-0.136l-0.238,-0.138l-0.237,-0.139l-0.236,-0.14l-0.235,-0.142l-0.234,-0.143l-0.233,-0.145l-0.232,-0.146l-0.232,-0.147l-0.23,-0.149l-0.229,-0.15l-0.229,-0.151l-0.227,-0.153l-0.227,-0.154l-0.225,-0.156l-0.225,-0.156l-0.223,-0.158l-0.223,-0.16l-0.221,-0.16l-0.221,-0.162l-0.219,-0.163l-0.219,-0.165l-0.217,-0.165l-0.217,-0.167l-0.215,-0.169l-0.214,-0.169l-0.214,-0.171l-0.212,-0.172l-0.211,-0.173l-0.21,-0.175l-0.21,-0.176l-0.208,-0.177l-0.207,-0.178l-0.205,-0.179l-0.205,-0.181l-0.204,-0.182l-0.202,-0.183l-0.202,-0.184l-0.2,-0.186l-0.2,-0.186l-0.198,-0.188l-0.197,-0.189l-0.196,-0.19l-0.194,-0.191l-0.194,-0.193l-0.193,-0.194l-0.191,-0.194l-0.19,-0.196l-0.189,-0.197l-0.188,-0.198l-0.186,-0.2l-0.186,-0.2l-0.184,-0.202l-0.183,-0.202l-0.182,-0.204l-0.181,-0.205l-0.179,-0.205l-0.178,-0.207l-0.177,-0.208l-0.176,-0.21l-0.175,-0.21l-0.173,-0.211l-0.172,-0.212l-0.171,-0.214l-0.169,-0.214l-0.169,-0.215l-0.167,-0.217l-0.165,-0.217l-0.165,-0.219l-0.163,-0.219l-0.162,-0.221l-0.16,-0.221l-0.16,-0.223l-0.158,-0.223l-0.156,-0.225l-0.156,-0.225l-0.154,-0.227l-0.153,-0.227l-0.151,-0.229l-0.15,-0.229l-0.149,-0.23l-0.147,-0.232l-0.146,-0.232l-0.145,-0.233l-0.143,-0.234l-0.142,-0.235l-0.14,-0.236l-0.139,-0.237l-0.138,-0.238l-0.136,-0.238l-0.135,-0.24l-0.134,-0.24l-0.132,-0.241l-0.131,-0.243l-0.129,-0.243l-0.128,-0.244l-0.126,-0.244l-0.125,-0.246l-0.124,-0.247l-0.122,-0.247l-0.12,-0.248l-0.119,-0.249l-0.118,-0.25l-0.116,-0.251l-0.115,-0.251l-0.113,-0.253l-0.112,-0.253l-0.11,-0.254l-0.109,-0.254l-0.107,-0.256l-0.106,-0.256l-0.104,-0.257l-0.103,-0.258l-0.101,-0.259l-0.1,-0.259l-0.098,-0.26l-0.096,-0.261l-0.095,-0.262l-0.094,-0.262l-0.091,-0.263l-0.091,-0.264l-0.088,-0.265l-0.087,-0.265l-0.086,-0.266l-0.084,-0.267l-0.082,-0.267l-0.081,-0.268l-0.079,-0.269l-0.078,-0.27l-0.076,-0.27l-0.074,-0.271l-0.072,-0.271l-0.071,-0.272l-0.07,-0.273l-0.068,-0.274l-0.066,-0.274l-0.064,-0.275l-0.063,-0.275l-0.061,-0.276l-0.059,-0.277l-0.058,-0.277l-0.056,-0.278l-0.054,-0.278l-0.053,-0.279l-0.051,-0.28l-0.049,-0.28l-0.048,-0.281l-0.045,-0.282l-0.044,-0.282l-0.043,-0.282l-0.04,-0.283l-0.039,-0.284l-0.037,-0.284l-0.035,-0.285l-0.034,-0.285l-0.032,-0.286l-0.03,-0.287l-0.028,-0.287l-0.027,-0.287l-0.024,-0.288l-0.023,-0.288l-0.021,-0.289l-0.02,-0.29l-0.017,-0.29l-0.016,-0.29l-0.014,-0.291l-0.012,-0.291l-0.01,-0.292l-0.008,-0.292l-0.007,-0.293l-0.004,-0.293l-0.003,-0.294l-0.001,-0.294l0.001,-0.294l0.003,-0.294l0.004,-0.293l0.007,-0.293l0.008,-0.292l0.01,-0.292l0.012,-0.291l0.014,-0.291l0.016,-0.29l0.017,-0.29l0.02,-0.29l0.021,-0.289l0.023,-0.288l0.024,-0.288l0.027,-0.287l0.028,-0.287l0.03,-0.287l0.032,-0.286l0.034,-0.285l0.035,-0.285l0.037,-0.284l0.039,-0.284l0.04,-0.283l0.043,-0.282l0.044,-0.282l0.045,-0.282l0.048,-0.281l0.049,-0.28l0.051,-0.28l0.053,-0.279l0.054,-0.278l0.056,-0.278l0.058,-0.277l0.059,-0.277l0.061,-0.276l0.063,-0.275l0.064,-0.275l0.066,-0.274l0.068,-0.274l0.07,-0.273l0.071,-0.272l0.072,-0.271l0.074,-0.271l0.076,-0.27l0.078,-0.27l0.079,-0.269l0.081,-0.268l0.082,-0.267l0.084,-0.267l0.086,-0.266l0.087,-0.265l0.088,-0.265l0.091,-0.264l0.091,-0.263l0.094,-0.262l0.095,-0.262l0.096,-0.261l0.098,-0.26l0.1,-0.259l0.101,-0.259l0.103,-0.258l0.104,-0.257l0.106,-0.256l0.107,-0.256l0.109,-0.254l0.11,-0.254l0.112,-0.253l0.113,-0.253l0.115,-0.251l0.116,-0.251l0.118,-0.25l0.119,-0.249l0.12,-0.248l0.122,-0.247l0.124,-0.247l0.125,-0.246l0.126,-0.244l0.128,-0.244l0.129,-0.243l0.131,-0.243l0.132,-0.241l0.134,-0.24l0.135,-0.24l0.136,-0.238l0.138,-0.238l0.139,-0.237l0.14,-0.236l0.142,-0.235l0.143,-0.234l0.145,-0.233l0.146,-0.232l0.147,-0.232l0.149,-0.23l0.15,-0.229l0.151,-0.229l0.153,-0.227l0.154,-0.227l0.156,-0.225l0.156,-0.225l0.158,-0.223l0.16,-0.223l0.16,-0.221l0.162,-0.221l0.163,-0.219l0.165,-0.219l0.165,-0.217l0.167,-0.217l0.169,-0.215l0.169,-0.214l0.171,-0.214l0.172,-0.212l0.173,-0.211l0.175,-0.21l0.176,-0.21l0.177,-0.208l0.178,-0.207l0.179,-0.205l0.181,-0.205l0.182,-0.204l0.183,-0.202l0.184,-0.202l0.186,-0.2l0.186,-0.2l0.188,-0.198l0.189,-0.197l0.19,-0.196l0.191,-0.194l0.193,-0.194l0.194,-0.193l0.194,-0.191l0.196,-0.19l0.197,-0.189l0.198,-0.188l0.2,-0.186l0.2,-0.186l0.202,-0.184l0.202,-0.183l0.204,-0.182l0.205,-0.181l0.205,-0.179l0.207,-0.178l0.208,-0.177l0.21,-0.176l0.21,-0.175l0.211,-0.173l0.212,-0.172l0.214,-0.171l0.214,-0.169l0.215,-0.169l0.217,-0.167l0.217,-0.165l0.219,-0.165l0.219,-0.163l0.221,-0.162l0.221,-0.16l0.223,-0.16l0.223,-0.158l0.225,-0.156l0.225,-0.156l0.227,-0.154l0.227,-0.153l0.229,-0.151l0.229,-0.15l0.23,-0.149l0.232,-0.147l0.232,-0.146l0.233,-0.145l0.234,-0.143l0.235,-0.142l0.236,-0.14l0.237,-0.139l0.238,-0.138l0.238,-0.136l0.24,-0.135l0.24,-0.134l0.241,-0.132l0.243,-0.131l0.243,-0.129l0.244,-0.128l0.244,-0.126l0.246,-0.125l0.247,-0.124l0.247,-0.122l0.248,-0.12l0.249,-0.119l0.25,-0.118l0.251,-0.116l0.251,-0.115l0.253,-0.113l0.253,-0.112l0.254,-0.11l0.254,-0.109l0.256,-0.107l0.256,-0.106l0.257,-0.104l0.258,-0.103l0.259,-0.101l0.259,-0.1l0.26,-0.098l0.261,-0.096l0.262,-0.095l0.262,-0.094l0.263,-0.091l0.264,-0.091l0.265,-0.088l0.265,-0.087l0.266,-0.086l0.267,-0.084l0.267,-0.082l0.268,-0.081l0.269,-0.079l0.27,-0.078l0.27,-0.076l0.271,-0.074l0.271,-0.072l0.272,-0.071l0.273,-0.07l0.274,-0.068l0.274,-0.066l0.275,-0.064l0.275,-0.063l0.276,-0.061l0.277,-0.059l0.277,-0.058l0.278,-0.056l0.278,-0.054l0.279,-0.053l0.28,-0.051l0.28,-0.049l0.281,-0.048l0.282,-0.045l0.282,-0.044l0.282,-0.043l0.283,-0.04l0.284,-0.039l0.284,-0.037l0.285,-0.035l0.285,-0.034l0.286,-0.032l0.287,-0.03l0.287,-0.028l0.287,-0.027l0.288,-0.024l0.288,-0.023l0.289,-0.021l0.29,-0.02l0.29,-0.017l0.29,-0.016l0.291,-0.014l0.291,-0.012l0.292,-0.01l0.292,-0.008l0.293,-0.007l0.293,-0.004l0.294,-0.003l0.294,-0.001l0.294,0.001Zm-0.44,23.358l-0.145,0.002l-0.145,0.003l-0.145,0.004l-0.144,0.005l-0.144,0.005l-0.144,0.007l-0.143,0.007l-0.142,0.009l-0.142,0.009l-0.142,0.01l-0.142,0.011l-0.141,0.012l-0.14,0.013l-0.14,0.013l-0.14,0.015l-0.14,0.015l-0.139,0.016l-0.139,0.017l-0.138,0.018l-0.138,0.019l-0.138,0.019l-0.137,0.02l-0.137,0.021l-0.136,0.022l-0.137,0.023l-0.135,0.024l-0.136,0.024l-0.135,0.026l-0.135,0.026l-0.134,0.026l-0.134,0.028l-0.134,0.029l-0.133,0.029l-0.133,0.03l-0.133,0.031l-0.132,0.032l-0.133,0.032l-0.131,0.033l-0.132,0.034l-0.131,0.035l-0.13,0.036l-0.13,0.036l-0.13,0.037l-0.13,0.038l-0.129,0.039l-0.129,0.039l-0.129,0.041l-0.128,0.041l-0.128,0.042l-0.128,0.042l-0.127,0.043l-0.127,0.045l-0.126,0.044l-0.127,0.046l-0.126,0.046l-0.125,0.047l-0.125,0.048l-0.125,0.049l-0.125,0.049l-0.124,0.05l-0.124,0.051l-0.123,0.052l-0.123,0.052l-0.123,0.053l-0.122,0.054l-0.122,0.054l-0.122,0.056l-0.121,0.056l-0.121,0.056l-0.12,0.058l-0.12,0.058l-0.12,0.059l-0.12,0.059l-0.119,0.061l-0.118,0.061l-0.118,0.062l-0.118,0.062l-0.118,0.063l-0.117,0.064l-0.117,0.065l-0.116,0.065l-0.116,0.066l-0.115,0.067l-0.115,0.067l-0.115,0.068l-0.114,0.069l-0.114,0.069l-0.113,0.07l-0.113,0.071l-0.113,0.072l-0.112,0.072l-0.112,0.073l-0.111,0.073l-0.111,0.074l-0.11,0.075l-0.11,0.076l-0.109,0.076l-0.109,0.077l-0.109,0.077l-0.108,0.078l-0.108,0.079l-0.107,0.079l-0.106,0.081l-0.107,0.08l-0.105,0.082l-0.106,0.082l-0.104,0.082l-0.105,0.083l-0.103,0.084l-0.104,0.085l-0.102,0.085l-0.103,0.085l-0.101,0.087l-0.101,0.087l-0.101,0.087l-0.1,0.088l-0.1,0.089l-0.099,0.089l-0.099,0.09l-0.098,0.091l-0.097,0.091l-0.097,0.091l-0.097,0.093l-0.095,0.093l-0.096,0.093l-0.095,0.094l-0.094,0.094l-0.093,0.095l-0.093,0.096l-0.093,0.096l-0.092,0.097l-0.091,0.097l-0.091,0.098l-0.09,0.098l-0.089,0.099l-0.089,0.099l-0.089,0.1l-0.088,0.101l-0.087,0.1l-0.086,0.102l-0.086,0.102l-0.085,0.102l-0.085,0.103l-0.084,0.104l-0.084,0.104l-0.082,0.104l-0.083,0.105l-0.081,0.105l-0.081,0.106l-0.08,0.106l-0.08,0.107l-0.079,0.107l-0.078,0.108l-0.078,0.108l-0.077,0.109l-0.076,0.109l-0.076,0.11l-0.075,0.11l-0.074,0.11l-0.074,0.111l-0.073,0.111l-0.072,0.112l-0.072,0.112l-0.071,0.112l-0.07,0.113l-0.07,0.114l-0.069,0.114l-0.068,0.114l-0.068,0.114l-0.066,0.115l-0.067,0.116l-0.065,0.116l-0.065,0.116l-0.064,0.116l-0.063,0.117l-0.063,0.118l-0.062,0.117l-0.061,0.118l-0.06,0.119l-0.06,0.119l-0.059,0.119l-0.058,0.12l-0.058,0.119l-0.057,0.121l-0.056,0.12l-0.055,0.121l-0.055,0.122l-0.054,0.122l-0.053,0.122l-0.053,0.122l-0.051,0.123l-0.051,0.123l-0.051,0.123l-0.049,0.124l-0.049,0.124l-0.048,0.125l-0.047,0.124l-0.047,0.126l-0.045,0.125l-0.045,0.126l-0.045,0.126l-0.043,0.126l-0.043,0.127l-0.042,0.127l-0.041,0.128l-0.04,0.127l-0.04,0.128l-0.039,0.129l-0.038,0.129l-0.037,0.129l-0.037,0.129l-0.036,0.13l-0.035,0.13l-0.034,0.13l-0.033,0.131l-0.033,0.131l-0.032,0.131l-0.031,0.132l-0.03,0.132l-0.03,0.132l-0.028,0.132l-0.028,0.133l-0.027,0.134l-0.026,0.133l-0.026,0.134l-0.025,0.134l-0.023,0.135l-0.023,0.135l-0.023,0.135l-0.021,0.136l-0.021,0.136l-0.019,0.136l-0.019,0.137l-0.019,0.137l-0.017,0.137l-0.016,0.138l-0.016,0.138l-0.015,0.138l-0.013,0.139l-0.014,0.139l-0.012,0.139l-0.011,0.14l-0.011,0.14l-0.009,0.141l-0.009,0.141l-0.008,0.141l-0.007,0.142l-0.006,0.142l-0.005,0.143l-0.004,0.143l-0.004,0.143l-0.002,0.143l-0.002,0.145l-0.001,0.144l0.001,0.145l0.001,0.145l0.002,0.144l0.003,0.144l0.003,0.144l0.005,0.143l0.006,0.143l0.006,0.142l0.008,0.142l0.008,0.142l0.009,0.141l0.01,0.141l0.011,0.14l0.012,0.14l0.013,0.14l0.013,0.139l0.014,0.139l0.016,0.139l0.016,0.138l0.016,0.137l0.018,0.138l0.019,0.137l0.019,0.136l0.02,0.137l0.021,0.136l0.022,0.135l0.023,0.135l0.023,0.135l0.024,0.135l0.025,0.134l0.026,0.134l0.027,0.133l0.027,0.133l0.029,0.133l0.029,0.132l0.03,0.132l0.03,0.132l0.032,0.131l0.032,0.131l0.033,0.131l0.034,0.13l0.034,0.13l0.036,0.13l0.036,0.13l0.037,0.129l0.037,0.128l0.039,0.129l0.039,0.128l0.04,0.127l0.041,0.128l0.041,0.127l0.042,0.126l0.043,0.127l0.044,0.125l0.045,0.126l0.045,0.125l0.046,0.125l0.047,0.125l0.047,0.124l0.049,0.124l0.049,0.124l0.049,0.123l0.051,0.123l0.051,0.122l0.052,0.122l0.053,0.122l0.053,0.122l0.054,0.121l0.055,0.12l0.056,0.121l0.056,0.12l0.057,0.119l0.058,0.12l0.058,0.119l0.059,0.118l0.06,0.118l0.061,0.118l0.061,0.117l0.062,0.117l0.063,0.117l0.063,0.116l0.064,0.116l0.065,0.115l0.066,0.115l0.066,0.115l0.067,0.114l0.067,0.114l0.068,0.114l0.069,0.113l0.07,0.112l0.07,0.112l0.071,0.112l0.072,0.111l0.072,0.111l0.073,0.111l0.074,0.11l0.074,0.109l0.075,0.109l0.076,0.109l0.076,0.108l0.077,0.108l0.078,0.107l0.078,0.107l0.079,0.106l0.079,0.106l0.08,0.106l0.081,0.105l0.081,0.104l0.082,0.104l0.083,0.104l0.083,0.103l0.084,0.102l0.085,0.102l0.085,0.102l0.085,0.101l0.087,0.1l0.087,0.1l0.087,0.1l0.088,0.098l0.089,0.099l0.089,0.098l0.09,0.097l0.09,0.097l0.091,0.096l0.092,0.096l0.092,0.095l0.093,0.095l0.093,0.094l0.094,0.093l0.094,0.093l0.095,0.093l0.096,0.091l0.096,0.092l0.096,0.09l0.097,0.09l0.098,0.09l0.098,0.089l0.099,0.088l0.099,0.088l0.099,0.087l0.101,0.086l0.1,0.086l0.101,0.086l0.102,0.084l0.102,0.084l0.103,0.084l0.103,0.083l0.104,0.082l0.104,0.081l0.105,0.081l0.105,0.081l0.105,0.079l0.106,0.079l0.107,0.079l0.107,0.078l0.107,0.077l0.108,0.076l0.108,0.076l0.109,0.075l0.109,0.074l0.11,0.074l0.11,0.073l0.11,0.073l0.111,0.072l0.112,0.071l0.111,0.07l0.112,0.07l0.113,0.069l0.113,0.069l0.113,0.067l0.114,0.067l0.114,0.067l0.115,0.065l0.115,0.065l0.115,0.065l0.116,0.063l0.116,0.063l0.116,0.062l0.117,0.062l0.118,0.06l0.117,0.06l0.118,0.06l0.118,0.058l0.119,0.058l0.119,0.057l0.12,0.057l0.119,0.055l0.121,0.055l0.12,0.055l0.121,0.053l0.121,0.053l0.121,0.052l0.122,0.051l0.123,0.051l0.122,0.05l0.123,0.049l0.123,0.048l0.124,0.048l0.124,0.047l0.124,0.046l0.124,0.046l0.125,0.044l0.125,0.044l0.126,0.043l0.126,0.043l0.126,0.041l0.126,0.041l0.127,0.04l0.127,0.04l0.128,0.038l0.127,0.038l0.128,0.037l0.129,0.036l0.129,0.036l0.129,0.035l0.129,0.034l0.13,0.033l0.13,0.032l0.13,0.032l0.131,0.031l0.131,0.03l0.131,0.029l0.132,0.028l0.132,0.028l0.132,0.027l0.132,0.026l0.133,0.025l0.134,0.025l0.133,0.023l0.134,0.023l0.134,0.022l0.135,0.022l0.135,0.02l0.135,0.02l0.136,0.018l0.136,0.018l0.136,0.018l0.137,0.016l0.137,0.015l0.137,0.015l0.138,0.014l0.138,0.013l0.139,0.012l0.138,0.011l0.14,0.01l0.139,0.01l0.14,0.009l0.14,0.007l0.141,0.007l0.141,0.006l0.142,0.006l0.142,0.004l0.142,0.003l0.143,0.003l0.143,0.001l0.143,0.001l0.144,0l0.144,-0.001l0.143,-0.002l0.143,-0.003l0.143,-0.004l0.142,-0.005l0.142,-0.005l0.141,-0.007l0.141,-0.007l0.141,-0.008l0.14,-0.009l0.14,-0.01l0.139,-0.011l0.139,-0.012l0.139,-0.012l0.138,-0.014l0.138,-0.014l0.137,-0.015l0.137,-0.016l0.137,-0.017l0.136,-0.017l0.136,-0.019l0.136,-0.019l0.135,-0.02l0.135,-0.021l0.135,-0.022l0.134,-0.022l0.134,-0.023l0.133,-0.024l0.133,-0.025l0.133,-0.026l0.133,-0.026l0.132,-0.028l0.132,-0.028l0.131,-0.029l0.131,-0.029l0.131,-0.031l0.13,-0.031l0.13,-0.032l0.13,-0.033l0.129,-0.033l0.129,-0.035l0.129,-0.035l0.129,-0.036l0.128,-0.036l0.127,-0.038l0.128,-0.038l0.127,-0.039l0.127,-0.039l0.126,-0.041l0.126,-0.041l0.126,-0.042l0.125,-0.043l0.125,-0.043l0.125,-0.044l0.124,-0.045l0.124,-0.046l0.124,-0.046l0.123,-0.047l0.123,-0.048l0.123,-0.049l0.122,-0.049l0.122,-0.05l0.122,-0.051l0.121,-0.052l0.121,-0.052l0.12,-0.053l0.12,-0.054l0.12,-0.054l0.12,-0.055l0.119,-0.056l0.119,-0.057l0.118,-0.057l0.118,-0.058l0.118,-0.059l0.117,-0.059l0.117,-0.061l0.116,-0.06l0.116,-0.062l0.116,-0.062l0.116,-0.063l0.115,-0.064l0.114,-0.064l0.114,-0.065l0.114,-0.066l0.113,-0.066l0.113,-0.067l0.113,-0.068l0.112,-0.069l0.112,-0.069l0.111,-0.069l0.111,-0.071l0.111,-0.071l0.11,-0.072l0.109,-0.072l0.109,-0.073l0.109,-0.074l0.109,-0.075l0.107,-0.075l0.108,-0.075l0.107,-0.077l0.106,-0.077l0.106,-0.077l0.106,-0.079l0.105,-0.079l0.105,-0.079l0.104,-0.08l0.104,-0.081l0.103,-0.082l0.103,-0.082l0.102,-0.082l0.102,-0.084l0.101,-0.083l0.101,-0.085l0.1,-0.085l0.1,-0.086l0.099,-0.086l0.099,-0.087l0.098,-0.087l0.098,-0.088l0.097,-0.089l0.096,-0.089l0.096,-0.09l0.096,-0.09l0.095,-0.091l0.095,-0.092l0.093,-0.092l0.094,-0.092l0.093,-0.093l0.092,-0.094l0.092,-0.094l0.091,-0.095l0.09,-0.095l0.09,-0.096l0.09,-0.097l0.089,-0.096l0.088,-0.098l0.088,-0.098l0.087,-0.098l0.086,-0.099l0.086,-0.1l0.085,-0.1l0.085,-0.1l0.084,-0.101l0.083,-0.102l0.083,-0.102l0.083,-0.102l0.081,-0.103l0.081,-0.103l0.081,-0.104l0.079,-0.104l0.079,-0.105l0.079,-0.106l0.078,-0.105l0.077,-0.106l0.076,-0.107l0.076,-0.107l0.075,-0.108l0.075,-0.108l0.074,-0.108l0.073,-0.109l0.073,-0.109l0.072,-0.11l0.071,-0.11l0.071,-0.11l0.07,-0.111l0.069,-0.111l0.069,-0.112l0.067,-0.112l0.068,-0.113l0.066,-0.113l0.066,-0.113l0.065,-0.114l0.065,-0.114l0.063,-0.114l0.064,-0.115l0.062,-0.116l0.062,-0.115l0.061,-0.116l0.06,-0.117l0.059,-0.116l0.059,-0.117l0.059,-0.118l0.057,-0.118l0.057,-0.118l0.056,-0.118l0.055,-0.119l0.055,-0.12l0.053,-0.119l0.054,-0.12l0.052,-0.12l0.052,-0.121l0.051,-0.121l0.05,-0.121l0.049,-0.122l0.049,-0.122l0.048,-0.122l0.047,-0.123l0.047,-0.123l0.046,-0.123l0.045,-0.123l0.044,-0.124l0.044,-0.125l0.043,-0.124l0.042,-0.125l0.041,-0.125l0.04,-0.126l0.04,-0.126l0.039,-0.126l0.039,-0.126l0.037,-0.127l0.037,-0.127l0.036,-0.128l0.035,-0.128l0.035,-0.128l0.033,-0.128l0.033,-0.129l0.032,-0.129l0.032,-0.129l0.03,-0.13l0.03,-0.13l0.029,-0.13l0.028,-0.131l0.028,-0.131l0.027,-0.131l0.026,-0.132l0.025,-0.132l0.024,-0.132l0.023,-0.133l0.023,-0.132l0.022,-0.134l0.021,-0.133l0.02,-0.134l0.02,-0.135l0.018,-0.134l0.018,-0.135l0.017,-0.136l0.016,-0.135l0.016,-0.136l0.014,-0.137l0.014,-0.136l0.013,-0.137l0.012,-0.138l0.011,-0.138l0.01,-0.138l0.01,-0.138l0.008,-0.139l0.008,-0.14l0.007,-0.139l0.006,-0.14l0.005,-0.141l0.004,-0.141l0.004,-0.141l0.002,-0.142l0.002,-0.142l0.001,-0.142l-0.001,-0.143l-0.001,-0.143l-0.002,-0.142l-0.003,-0.142l-0.003,-0.142l-0.005,-0.141l-0.006,-0.141l-0.006,-0.14l-0.007,-0.14l-0.009,-0.14l-0.009,-0.139l-0.01,-0.139l-0.01,-0.138l-0.012,-0.138l-0.012,-0.138l-0.014,-0.137l-0.014,-0.137l-0.015,-0.136l-0.016,-0.136l-0.016,-0.136l-0.018,-0.135l-0.018,-0.135l-0.019,-0.135l-0.02,-0.134l-0.021,-0.134l-0.021,-0.134l-0.022,-0.133l-0.023,-0.133l-0.024,-0.132l-0.025,-0.132l-0.026,-0.132l-0.026,-0.131l-0.027,-0.132l-0.028,-0.13l-0.028,-0.131l-0.03,-0.13l-0.03,-0.13l-0.031,-0.129l-0.032,-0.129l-0.032,-0.129l-0.034,-0.128l-0.034,-0.128l-0.035,-0.128l-0.035,-0.128l-0.037,-0.127l-0.037,-0.127l-0.038,-0.126l-0.038,-0.126l-0.04,-0.126l-0.04,-0.125l-0.041,-0.125l-0.041,-0.125l-0.043,-0.125l-0.043,-0.124l-0.044,-0.123l-0.044,-0.124l-0.046,-0.123l-0.046,-0.123l-0.046,-0.122l-0.048,-0.122l-0.048,-0.122l-0.049,-0.121l-0.05,-0.121l-0.05,-0.121l-0.052,-0.12l-0.051,-0.12l-0.053,-0.12l-0.053,-0.119l-0.054,-0.119l-0.055,-0.119l-0.056,-0.118l-0.056,-0.118l-0.057,-0.117l-0.057,-0.117l-0.059,-0.117l-0.059,-0.117l-0.059,-0.116l-0.061,-0.115l-0.061,-0.116l-0.062,-0.114l-0.062,-0.115l-0.063,-0.114l-0.064,-0.114l-0.065,-0.113l-0.065,-0.113l-0.066,-0.113l-0.067,-0.112l-0.067,-0.111l-0.068,-0.112l-0.068,-0.111l-0.07,-0.11l-0.07,-0.11l-0.07,-0.11l-0.071,-0.109l-0.072,-0.109l-0.073,-0.108l-0.073,-0.108l-0.074,-0.108l-0.075,-0.107l-0.075,-0.107l-0.076,-0.106l-0.076,-0.105l-0.077,-0.106l-0.078,-0.105l-0.078,-0.104l-0.079,-0.104l-0.08,-0.103l-0.08,-0.103l-0.081,-0.103l-0.081,-0.102l-0.082,-0.101l-0.083,-0.101l-0.083,-0.101l-0.084,-0.1l-0.085,-0.099l-0.085,-0.099l-0.085,-0.099l-0.086,-0.098l-0.087,-0.097l-0.088,-0.097l-0.088,-0.097l-0.088,-0.096l-0.089,-0.095l-0.09,-0.095l-0.09,-0.094l-0.091,-0.094l-0.091,-0.093l-0.092,-0.093l-0.093,-0.092l-0.093,-0.092l-0.093,-0.091l-0.094,-0.09l-0.095,-0.09l-0.095,-0.09l-0.096,-0.088l-0.096,-0.088l-0.097,-0.088l-0.097,-0.087l-0.098,-0.087l-0.098,-0.085l-0.099,-0.086l-0.099,-0.084l-0.1,-0.084l-0.1,-0.084l-0.101,-0.083l-0.101,-0.082l-0.102,-0.082l-0.102,-0.081l-0.102,-0.08l-0.104,-0.08l-0.103,-0.079l-0.104,-0.078l-0.105,-0.078l-0.105,-0.078l-0.105,-0.076l-0.106,-0.076l-0.106,-0.075l-0.107,-0.075l-0.107,-0.074l-0.108,-0.074l-0.108,-0.072l-0.108,-0.072l-0.109,-0.072l-0.109,-0.071l-0.11,-0.07l-0.11,-0.069l-0.111,-0.069l-0.11,-0.068l-0.112,-0.067l-0.111,-0.067l-0.113,-0.066l-0.112,-0.065l-0.113,-0.065l-0.113,-0.064l-0.114,-0.063l-0.114,-0.063l-0.114,-0.062l-0.115,-0.061l-0.115,-0.061l-0.116,-0.059l-0.116,-0.06l-0.116,-0.058l-0.116,-0.058l-0.117,-0.057l-0.118,-0.056l-0.117,-0.056l-0.118,-0.055l-0.119,-0.054l-0.118,-0.053l-0.119,-0.053l-0.12,-0.052l-0.119,-0.051l-0.12,-0.051l-0.121,-0.05l-0.121,-0.049l-0.121,-0.048l-0.121,-0.048l-0.122,-0.047l-0.122,-0.046l-0.122,-0.045l-0.123,-0.045l-0.123,-0.044l-0.123,-0.043l-0.124,-0.043l-0.124,-0.042l-0.124,-0.041l-0.124,-0.04l-0.125,-0.039l-0.126,-0.039l-0.125,-0.038l-0.126,-0.037l-0.126,-0.037l-0.127,-0.036l-0.126,-0.034l-0.128,-0.035l-0.127,-0.033l-0.128,-0.033l-0.128,-0.032l-0.128,-0.031l-0.129,-0.03l-0.129,-0.03l-0.129,-0.029l-0.13,-0.028l-0.13,-0.027l-0.13,-0.026l-0.131,-0.026l-0.131,-0.025l-0.131,-0.024l-0.132,-0.023l-0.132,-0.023l-0.132,-0.022l-0.133,-0.021l-0.133,-0.02l-0.133,-0.019l-0.134,-0.018l-0.133,-0.018l-0.135,-0.017l-0.134,-0.016l-0.135,-0.015l-0.136,-0.015l-0.136,-0.013l-0.136,-0.013l-0.136,-0.012l-0.137,-0.011l-0.137,-0.01l-0.138,-0.01l-0.137,-0.008l-0.139,-0.008l-0.138,-0.007l-0.14,-0.006l-0.139,-0.005l-0.14,-0.004l-0.14,-0.003l-0.141,-0.003l-0.141,-0.001l-0.141,-0.001l-0.218,0l0.002,-0.641l-0.072,0Z" style="fill:#9e9d9d;"/></g></svg>