<?xml version="1.0" encoding="UTF-8" standalone="no"?><!DOCTYPE svg PUBLIC "-//W3C//DTD SVG 1.1//EN" "http://www.w3.org/Graphics/SVG/1.1/DTD/svg11.dtd"><svg width="100%" height="100%" viewBox="0 0 640 640" version="1.1" xmlns="http://www.w3.org/2000/svg" xmlns:xlink="http://www.w3.org/1999/xlink" xml:space="preserve" xmlns:serif="http://www.serif.com/" style="fill-rule:evenodd;clip-rule:evenodd;stroke-linejoin:round;stroke-miterlimit:1.41421;"><rect x="0" y="0" width="640" height="640" style="fill:#fff;"/><path d="M189,351l165,265l-330,0l165,-265Z" style="fill:#cde4f5;"/><path d="M399,616l-165,-265l330,0l-165,265Z" style="fill:#cde4f5;"/><g><g id="stone"><path d="M401.872,152.816l17.392,-73.913l102.898,-49.275l49.276,11.594l11.594,11.594l18.84,46.377l-8.695,62.319l-44.928,24.638l-57.971,2.898l-68.116,-10.145l-20.29,-26.087Z" style="fill:#a6a5a5;"/><clipPath id="_clip1"><path d="M401.872,152.816l17.392,-73.913l102.898,-49.275l49.276,11.594l11.594,11.594l18.84,46.377l-8.695,62.319l-44.928,24.638l-57.971,2.898l-68.116,-10.145l-20.29,-26.087Z"/></clipPath><g clip-path="url(#_clip1)"><path d="M382.307,186.15l107.971,-24.638l57.971,13.044l46.377,-30.435l17.391,0l-2.898,65.217l-226.812,-23.188Z" style="fill:#585859;"/><path d="M398.974,83.251l20.29,-4.348l28.985,-1.449l59.42,13.044l-17.391,71.014l-68.116,17.391l-33.333,8.696l10.145,-104.348Z" style="fill:#727272;"/><path d="M415.64,196.295l6.51,-17.278l26.099,-101.563l72.464,-47.826l-27.536,0l-88.406,49.275l-20.29,78.261l31.159,39.131Z" style="fill:#000003;fill-opacity:0.105882;"/><path d="M507.669,90.498l60.87,-39.131l21.095,2.199l22.383,44.178l-5.797,46.377l-10.145,0l-47.826,32.608l-57.971,-15.217l17.391,-71.014Z" style="fill:#8b8c8c;"/><path d="M568.539,51.367l3.188,-10.732l12.446,12.405l-15.634,-1.673Z" style="fill:#c3c4c3;"/></g></g><path id="small-stone" serif:id="small stone" d="M472.038,251.773l1.391,-7.418l6.81,-2.764l7.799,4.8l-0.696,6.254l-3.594,2.473l-4.638,0.291l-5.449,-1.018l-1.623,-2.618Z" style="fill:#a6a5a5;"/><clipPath id="_clip2"><path d="M472.038,251.773l1.391,-7.418l6.81,-2.764l7.799,4.8l-0.696,6.254l-3.594,2.473l-4.638,0.291l-5.449,-1.018l-1.623,-2.618Z"/></clipPath><g clip-path="url(#_clip2)"><path d="M470.472,255.118l8.638,-2.473l4.638,1.31l5.101,-3.055l-0.232,6.545l-18.145,-2.327Z" style="fill:#585859;"/><path d="M471.806,244.791l1.623,-0.436l2.319,-0.146l4.753,1.309l-1.391,7.127l-5.449,1.746l-2.667,0.873l0.812,-10.473Z" style="fill:#727272;"/><path d="M470.646,252.209l3.014,2.193l2.088,-10.193l4.597,-2.663l-8.076,1.809l-1.623,8.854Z" style="fill:#000003;fill-opacity:0.105882;"/><path d="M480.501,245.518l6.87,-0.927l1.478,1.654l-1.434,6.376l-3.667,1.552l-4.638,-1.528l1.391,-7.127Z" style="fill:#8b8c8c;"/></g><path id="small-stone1" serif:id="small stone" d="M501.707,341.457l2.609,-10.102l12.768,-3.764l14.623,6.537l-1.304,8.517l-6.739,3.368l-8.696,0.396l-10.217,-1.387l-3.044,-3.565Z" style="fill:#a6a5a5;"/><clipPath id="_clip3"><path d="M501.707,341.457l2.609,-10.102l12.768,-3.764l14.623,6.537l-1.304,8.517l-6.739,3.368l-8.696,0.396l-10.217,-1.387l-3.044,-3.565Z"/></clipPath><g clip-path="url(#_clip3)"><path d="M498.772,346.013l16.196,-3.368l8.696,1.783l9.565,-4.16l-0.435,8.914l-34.022,-3.169Z" style="fill:#585859;"/><path d="M501.272,331.949l3.044,-0.594l4.348,-0.199l8.913,1.783l-2.609,9.706l-10.217,2.377l-5,1.189l1.521,-14.262Z" style="fill:#727272;"/><path d="M499.098,342.051l5.651,2.987l3.915,-13.882l8.62,-3.626l-15.142,2.463l-3.044,12.058Z" style="fill:#000003;fill-opacity:0.105882;"/><path d="M517.577,332.939l12.88,-1.263l2.772,2.254l-2.689,8.682l-6.876,2.113l-8.696,-2.08l2.609,-9.706Z" style="fill:#8b8c8c;"/></g><path id="small-stone2" serif:id="small stone" d="M475.895,396.615l0.87,-3.66l4.256,-1.364l4.874,2.368l-0.434,3.086l-2.247,1.221l-2.898,0.143l-3.406,-0.502l-1.015,-1.292Z" style="fill:#a6a5a5;"/><clipPath id="_clip4"><path d="M475.895,396.615l0.87,-3.66l4.256,-1.364l4.874,2.368l-0.434,3.086l-2.247,1.221l-2.898,0.143l-3.406,-0.502l-1.015,-1.292Z"/></clipPath><g clip-path="url(#_clip4)"><path d="M474.917,398.266l5.399,-1.221l2.898,0.646l3.189,-1.507l-0.145,3.23l-11.341,-1.148Z" style="fill:#585859;"/><path d="M475.751,393.17l1.014,-0.215l1.449,-0.072l2.971,0.646l-0.869,3.516l-3.406,0.862l-1.667,0.43l0.508,-5.167Z" style="fill:#727272;"/><path d="M475.026,396.83l1.883,1.082l1.305,-5.029l2.874,-1.314l-5.048,0.892l-1.014,4.369Z" style="fill:#000003;fill-opacity:0.105882;"/><path d="M481.185,393.529l4.294,-0.458l0.924,0.817l-0.897,3.145l-2.292,0.766l-2.898,-0.754l0.869,-3.516Z" style="fill:#8b8c8c;"/></g><path d="M543.565,378.489c43.235,8.234 59.653,25.975 36.643,39.594c-23.011,13.619 -76.794,17.992 -120.028,9.758c-43.235,-8.233 -59.654,-25.975 -36.643,-39.594c23.011,-13.619 76.794,-17.992 120.028,-9.758Z" style="fill:#000003;fill-opacity:0.101961;"/><path d="M497.453,374.331l0.535,0.001l0.535,0.002l0.536,0.003l0.536,0.004l0.536,0.006l0.536,0.006l0.536,0.008l0.537,0.008l0.537,0.01l0.537,0.011l0.538,0.011l0.537,0.013l0.538,0.014l0.537,0.015l0.538,0.016l0.538,0.017l0.538,0.018l0.538,0.019l0.538,0.02l0.538,0.022l0.539,0.022l0.538,0.023l0.538,0.025l0.538,0.026l0.538,0.026l0.539,0.028l0.538,0.029l0.538,0.03l0.537,0.031l0.538,0.032l0.538,0.033l0.537,0.035l0.538,0.035l0.537,0.036l0.537,0.038l0.537,0.039l0.536,0.039l0.536,0.041l0.537,0.042l0.535,0.043l0.536,0.044l0.535,0.045l0.535,0.047l0.535,0.047l0.534,0.049l0.534,0.049l0.534,0.051l0.533,0.052l0.533,0.053l0.533,0.054l0.532,0.055l0.531,0.056l0.531,0.058l0.531,0.058l0.53,0.06l0.53,0.061l0.529,0.061l0.529,0.063l0.528,0.064l0.528,0.066l0.527,0.066l0.526,0.067l0.526,0.069l0.526,0.07l0.524,0.071l0.524,0.071l0.524,0.074l0.522,0.074l0.522,0.075l0.522,0.077l0.52,0.077l0.52,0.079l0.519,0.08l0.518,0.081l0.518,0.082l0.517,0.083l0.516,0.085l0.515,0.085l0.514,0.087l0.514,0.088l0.512,0.089l0.512,0.09l0.511,0.091l0.51,0.093l0.509,0.093l0.508,0.095l0.507,0.096l0.506,0.097l0.502,0.098l0.501,0.098l0.498,0.1l0.496,0.1l0.493,0.101l0.49,0.103l0.488,0.102l0.486,0.104l0.483,0.105l0.481,0.105l0.478,0.106l0.475,0.107l0.474,0.108l0.47,0.109l0.468,0.109l0.466,0.11l0.463,0.111l0.46,0.112l0.458,0.112l0.456,0.114l0.452,0.114l0.451,0.115l0.447,0.115l0.445,0.117l0.443,0.117l0.44,0.118l0.438,0.118l0.434,0.119l0.433,0.12l0.429,0.121l0.427,0.122l0.425,0.122l0.422,0.123l0.419,0.123l0.417,0.125l0.414,0.125l0.411,0.125l0.409,0.127l0.406,0.127l0.404,0.128l0.4,0.128l0.399,0.129l0.395,0.13l0.393,0.13l0.391,0.131l0.387,0.132l0.385,0.132l0.382,0.133l0.38,0.134l0.377,0.134l0.374,0.135l0.372,0.136l0.369,0.136l0.366,0.136l0.363,0.138l0.361,0.137l0.358,0.139l0.355,0.139l0.353,0.14l0.35,0.14l0.347,0.141l0.344,0.141l0.342,0.142l0.339,0.143l0.336,0.143l0.333,0.143l0.331,0.144l0.328,0.145l0.325,0.145l0.322,0.146l0.32,0.146l0.317,0.147l0.314,0.147l0.311,0.148l0.309,0.148l0.305,0.149l0.303,0.15l0.3,0.149l0.297,0.151l0.295,0.15l0.291,0.152l0.289,0.151l0.286,0.153l0.283,0.152l0.28,0.153l0.278,0.154l0.274,0.154l0.272,0.154l0.269,0.155l0.266,0.155l0.263,0.156l0.26,0.156l0.258,0.157l0.254,0.157l0.252,0.157l0.249,0.158l0.245,0.158l0.243,0.159l0.24,0.159l0.238,0.159l0.234,0.16l0.231,0.16l0.228,0.16l0.226,0.161l0.222,0.161l0.22,0.162l0.217,0.162l0.214,0.162l0.21,0.163l0.208,0.163l0.205,0.163l0.202,0.163l0.199,0.164l0.196,0.165l0.193,0.164l0.19,0.165l0.187,0.165l0.184,0.165l0.181,0.166l0.178,0.166l0.175,0.166l0.172,0.167l0.169,0.167l0.166,0.167l0.163,0.167l0.16,0.168l0.157,0.168l0.154,0.168l0.151,0.168l0.148,0.169l0.145,0.168l0.142,0.169l0.138,0.17l0.136,0.169l0.133,0.17l0.129,0.17l0.126,0.17l0.124,0.17l0.12,0.171l0.117,0.17l0.114,0.171l0.111,0.171l0.108,0.171l0.105,0.172l0.102,0.171l0.098,0.172l0.096,0.172l0.092,0.172l0.089,0.172l0.087,0.172l0.082,0.173l0.08,0.172l0.077,0.173l0.073,0.173l0.071,0.173l0.067,0.173l0.032,0.086l0.032,0.087l0.031,0.087l0.03,0.086l0.029,0.087l0.029,0.086l0.027,0.087l0.027,0.087l0.026,0.087l0.025,0.086l0.025,0.087l0.024,0.087l0.022,0.087l0.023,0.087l0.021,0.086l0.02,0.087l0.02,0.087l0.019,0.087l0.018,0.087l0.017,0.087l0.017,0.087l0.015,0.087l0.015,0.087l0.014,0.087l0.014,0.087l0.012,0.087l0.012,0.087l0.011,0.087l0.01,0.087l0.009,0.087l0.008,0.087l0.008,0.087l0.007,0.087l0.006,0.087l0.005,0.087l0.004,0.087l0.004,0.088l0.003,0.087l0.001,0.087l0.002,0.087l0,0.087l-0.001,0.087l-0.001,0.087l-0.002,0.087l-0.003,0.087l-0.004,0.087l-0.004,0.088l-0.006,0.087l-0.006,0.087l-0.007,0.087l-0.008,0.087l-0.008,0.087l-0.01,0.087l-0.01,0.087l-0.011,0.087l-0.012,0.087l-0.013,0.087l-0.014,0.087l-0.014,0.087l-0.015,0.087l-0.016,0.087l-0.017,0.087l-0.018,0.087l-0.019,0.087l-0.019,0.087l-0.02,0.087l-0.021,0.087l-0.022,0.087l-0.023,0.087l-0.023,0.087l-0.025,0.087l-0.025,0.087l-0.026,0.087l-0.027,0.086l-0.027,0.087l-0.029,0.087l-0.029,0.087l-0.03,0.087l-0.031,0.086l-0.032,0.087l-0.033,0.087l-0.033,0.086l-0.035,0.087l-0.035,0.087l-0.036,0.086l-0.037,0.087l-0.038,0.086l-0.038,0.087l-0.039,0.086l-0.041,0.087l-0.041,0.086l-0.042,0.086l-0.042,0.087l-0.044,0.086l-0.044,0.086l-0.046,0.087l-0.046,0.086l-0.047,0.086l-0.048,0.086l-0.048,0.086l-0.05,0.087l-0.05,0.086l-0.104,0.172l-0.106,0.172l-0.11,0.171l-0.114,0.172l-0.117,0.171l-0.12,0.172l-0.124,0.171l-0.127,0.17l-0.13,0.171l-0.134,0.171l-0.138,0.17l-0.141,0.17l-0.144,0.17l-0.148,0.17l-0.151,0.169l-0.155,0.17l-0.158,0.169l-0.162,0.168l-0.165,0.169l-0.169,0.168l-0.172,0.169l-0.175,0.167l-0.179,0.168l-0.183,0.168l-0.186,0.167l-0.19,0.166l-0.193,0.167l-0.196,0.166l-0.2,0.166l-0.204,0.166l-0.207,0.166l-0.211,0.165l-0.214,0.165l-0.218,0.164l-0.221,0.164l-0.225,0.164l-0.229,0.164l-0.232,0.163l-0.235,0.163l-0.239,0.163l-0.243,0.162l-0.246,0.162l-0.25,0.162l-0.254,0.161l-0.257,0.161l-0.26,0.16l-0.265,0.161l-0.267,0.159l-0.271,0.16l-0.274,0.158l-0.277,0.157l-0.279,0.157l-0.283,0.156l-0.285,0.155l-0.287,0.154l-0.291,0.153l-0.293,0.152l-0.295,0.152l-0.299,0.15l-0.301,0.15l-0.304,0.149l-0.306,0.148l-0.309,0.147l-0.311,0.147l-0.315,0.145l-0.316,0.145l-0.32,0.144l-0.321,0.142l-0.325,0.142l-0.326,0.142l-0.33,0.14l-0.332,0.139l-0.334,0.139l-0.336,0.137l-0.34,0.137l-0.341,0.136l-0.344,0.135l-0.346,0.134l-0.349,0.133l-0.351,0.133l-0.354,0.131l-0.355,0.131l-0.358,0.129l-0.361,0.129l-0.362,0.128l-0.365,0.127l-0.368,0.126l-0.369,0.125l-0.372,0.125l-0.373,0.123l-0.376,0.123l-0.379,0.121l-0.38,0.121l-0.383,0.12l-0.384,0.119l-0.387,0.118l-0.389,0.117l-0.391,0.116l-0.393,0.115l-0.395,0.115l-0.397,0.113l-0.4,0.113l-0.401,0.112l-0.403,0.11l-0.405,0.11l-0.408,0.109l-0.409,0.108l-0.411,0.107l-0.413,0.106l-0.415,0.106l-0.417,0.104l-0.419,0.103l-0.42,0.103l-0.423,0.102l-0.424,0.1l-0.426,0.1l-0.428,0.099l-0.43,0.098l-0.432,0.096l-0.433,0.096l-0.435,0.096l-0.437,0.094l-0.438,0.093l-0.441,0.092l-0.441,0.091l-0.444,0.091l-0.445,0.089l-0.447,0.089l-0.449,0.087l-0.45,0.087l-0.452,0.086l-0.453,0.084l-0.455,0.084l-0.457,0.083l-0.458,0.082l-0.459,0.081l-0.462,0.08l-0.462,0.079l-0.464,0.078l-0.466,0.077l-0.467,0.076l-0.468,0.075l-0.47,0.074l-0.472,0.074l-0.472,0.072l-0.474,0.071l-0.476,0.071l-0.477,0.069l-0.478,0.069l-0.479,0.067l-0.481,0.067l-0.482,0.065l-0.484,0.065l-0.484,0.063l-0.486,0.063l-0.487,0.062l-0.489,0.06l-0.489,0.06l-0.491,0.059l-0.492,0.058l-0.493,0.056l-0.494,0.056l-0.496,0.055l-0.496,0.054l-0.498,0.052l-0.498,0.052l-0.5,0.051l-0.501,0.05l-0.502,0.049l-0.503,0.048l-0.503,0.047l-0.505,0.046l-0.506,0.044l-0.507,0.044l-0.508,0.043l-0.509,0.042l-0.509,0.041l-0.511,0.04l-0.511,0.039l-0.513,0.038l-0.513,0.037l-0.514,0.035l-0.515,0.035l-0.516,0.034l-0.516,0.033l-0.518,0.032l-0.518,0.031l-0.519,0.029l-0.519,0.029l-0.521,0.028l-0.521,0.027l-0.521,0.026l-0.523,0.024l-0.523,0.024l-0.524,0.023l-0.524,0.021l-0.525,0.021l-0.526,0.02l-0.526,0.018l-0.527,0.018l-0.528,0.016l-0.528,0.016l-0.528,0.014l-0.529,0.014l-0.53,0.012l-0.53,0.011l-0.531,0.011l-0.531,0.009l-0.531,0.008l-0.532,0.008l-0.532,0.006l-0.533,0.005l-0.533,0.004l-0.534,0.003l-0.534,0.002l-0.534,0.001l-0.535,0l-0.535,-0.001l-0.535,-0.003l-0.535,-0.003l-0.536,-0.004l-0.536,-0.005l-0.536,-0.007l-0.537,-0.007l-0.537,-0.009l-0.537,-0.009l-0.537,-0.011l-0.537,-0.012l-0.537,-0.013l-0.538,-0.013l-0.538,-0.015l-0.538,-0.016l-0.537,-0.017l-0.538,-0.018l-0.539,-0.02l-0.538,-0.02l-0.538,-0.021l-0.538,-0.023l-0.538,-0.023l-0.538,-0.025l-0.539,-0.025l-0.538,-0.027l-0.538,-0.028l-0.538,-0.029l-0.538,-0.03l-0.538,-0.031l-0.538,-0.032l-0.537,-0.033l-0.538,-0.034l-0.537,-0.036l-0.537,-0.036l-0.537,-0.038l-0.537,-0.038l-0.537,-0.04l-0.536,-0.041l-0.536,-0.042l-0.536,-0.043l-0.535,-0.044l-0.536,-0.045l-0.535,-0.046l-0.534,-0.048l-0.535,-0.048l-0.534,-0.05l-0.533,-0.051l-0.534,-0.052l-0.533,-0.052l-0.532,-0.055l-0.532,-0.055l-0.532,-0.056l-0.531,-0.057l-0.531,-0.059l-0.53,-0.059l-0.53,-0.061l-0.529,-0.062l-0.529,-0.063l-0.528,-0.064l-0.527,-0.065l-0.527,-0.067l-0.527,-0.067l-0.526,-0.069l-0.525,-0.069l-0.525,-0.071l-0.524,-0.072l-0.523,-0.073l-0.523,-0.074l-0.522,-0.076l-0.521,-0.076l-0.521,-0.078l-0.519,-0.079l-0.519,-0.079l-0.519,-0.081l-0.517,-0.083l-0.517,-0.083l-0.516,-0.084l-0.515,-0.086l-0.515,-0.087l-0.513,-0.087l-0.513,-0.089l-0.511,-0.091l-0.511,-0.091l-0.51,-0.092l-0.509,-0.094l-0.508,-0.095l-0.507,-0.096l-0.506,-0.097l-0.503,-0.097l-0.5,-0.099l-0.498,-0.1l-0.496,-0.1l-0.493,-0.101l-0.491,-0.102l-0.488,-0.103l-0.485,-0.104l-0.484,-0.104l-0.48,-0.106l-0.478,-0.106l-0.476,-0.107l-0.473,-0.108l-0.471,-0.108l-0.468,-0.11l-0.465,-0.11l-0.463,-0.111l-0.461,-0.111l-0.458,-0.113l-0.455,-0.113l-0.453,-0.114l-0.45,-0.115l-0.448,-0.116l-0.445,-0.116l-0.442,-0.117l-0.44,-0.118l-0.438,-0.119l-0.435,-0.119l-0.432,-0.12l-0.43,-0.121l-0.427,-0.121l-0.424,-0.123l-0.422,-0.122l-0.419,-0.124l-0.417,-0.124l-0.414,-0.125l-0.412,-0.126l-0.408,-0.126l-0.406,-0.128l-0.404,-0.127l-0.401,-0.129l-0.398,-0.129l-0.396,-0.13l-0.393,-0.13l-0.39,-0.131l-0.388,-0.132l-0.384,-0.132l-0.383,-0.133l-0.379,-0.134l-0.377,-0.134l-0.375,-0.135l-0.371,-0.135l-0.369,-0.136l-0.366,-0.137l-0.364,-0.137l-0.36,-0.138l-0.358,-0.139l-0.356,-0.139l-0.352,-0.139l-0.35,-0.141l-0.347,-0.14l-0.345,-0.142l-0.341,-0.142l-0.339,-0.142l-0.336,-0.143l-0.334,-0.144l-0.33,-0.144l-0.328,-0.145l-0.325,-0.145l-0.323,-0.146l-0.319,-0.146l-0.317,-0.147l-0.314,-0.147l-0.312,-0.148l-0.308,-0.148l-0.306,-0.149l-0.302,-0.149l-0.3,-0.15l-0.298,-0.15l-0.294,-0.151l-0.292,-0.151l-0.288,-0.152l-0.286,-0.152l-0.283,-0.153l-0.281,-0.153l-0.277,-0.153l-0.275,-0.154l-0.271,-0.155l-0.269,-0.155l-0.266,-0.155l-0.263,-0.156l-0.261,-0.156l-0.257,-0.156l-0.255,-0.157l-0.251,-0.158l-0.249,-0.158l-0.246,-0.158l-0.243,-0.158l-0.24,-0.159l-0.237,-0.16l-0.234,-0.159l-0.231,-0.161l-0.229,-0.16l-0.225,-0.161l-0.223,-0.161l-0.219,-0.162l-0.217,-0.162l-0.214,-0.162l-0.211,-0.162l-0.208,-0.163l-0.204,-0.164l-0.202,-0.163l-0.199,-0.164l-0.196,-0.164l-0.193,-0.165l-0.19,-0.165l-0.187,-0.165l-0.184,-0.165l-0.181,-0.166l-0.178,-0.166l-0.176,-0.166l-0.172,-0.167l-0.169,-0.166l-0.166,-0.167l-0.163,-0.168l-0.16,-0.167l-0.157,-0.168l-0.154,-0.168l-0.151,-0.169l-0.147,-0.168l-0.145,-0.169l-0.142,-0.169l-0.139,-0.169l-0.135,-0.17l-0.133,-0.17l-0.129,-0.169l-0.127,-0.171l-0.123,-0.17l-0.121,-0.17l-0.117,-0.171l-0.114,-0.171l-0.111,-0.171l-0.108,-0.171l-0.105,-0.171l-0.101,-0.172l-0.099,-0.172l-0.095,-0.172l-0.093,-0.172l-0.089,-0.172l-0.086,-0.172l-0.083,-0.172l-0.08,-0.173l-0.076,-0.173l-0.074,-0.172l-0.07,-0.173l-0.067,-0.173l-0.033,-0.087l-0.031,-0.087l-0.031,-0.086l-0.03,-0.087l-0.03,-0.086l-0.028,-0.087l-0.028,-0.087l-0.026,-0.087l-0.027,-0.086l-0.025,-0.087l-0.024,-0.087l-0.024,-0.087l-0.023,-0.086l-0.022,-0.087l-0.021,-0.087l-0.021,-0.087l-0.019,-0.087l-0.019,-0.087l-0.018,-0.087l-0.018,-0.087l-0.016,-0.087l-0.016,-0.087l-0.015,-0.087l-0.014,-0.086l-0.013,-0.087l-0.012,-0.088l-0.012,-0.087l-0.011,-0.087l-0.01,-0.087l-0.009,-0.087l-0.009,-0.087l-0.007,-0.087l-0.007,-0.087l-0.006,-0.087l-0.005,-0.087l-0.005,-0.087l-0.003,-0.087l-0.003,-0.087l-0.002,-0.087l-0.001,-0.087l0,-0.088l0,-0.087l0.002,-0.087l0.002,-0.087l0.003,-0.087l0.003,-0.087l0.005,-0.087l0.005,-0.087l0.007,-0.087l0.007,-0.087l0.007,-0.088l0.009,-0.087l0.01,-0.087l0.01,-0.087l0.011,-0.087l0.012,-0.087l0.013,-0.087l0.013,-0.087l0.015,-0.087l0.015,-0.087l0.016,-0.087l0.017,-0.087l0.018,-0.087l0.018,-0.087l0.02,-0.087l0.02,-0.087l0.021,-0.087l0.022,-0.087l0.022,-0.087l0.024,-0.087l0.024,-0.087l0.025,-0.086l0.026,-0.087l0.027,-0.087l0.028,-0.087l0.028,-0.087l0.03,-0.086l0.03,-0.087l0.031,-0.087l0.032,-0.087l0.032,-0.086l0.034,-0.087l0.034,-0.087l0.036,-0.086l0.036,-0.087l0.036,-0.086l0.038,-0.087l0.039,-0.086l0.039,-0.087l0.04,-0.086l0.041,-0.087l0.042,-0.086l0.043,-0.086l0.044,-0.087l0.044,-0.086l0.045,-0.086l0.047,-0.087l0.047,-0.086l0.047,-0.086l0.049,-0.086l0.05,-0.086l0.05,-0.086l0.103,-0.172l0.107,-0.172l0.11,-0.172l0.113,-0.171l0.117,-0.172l0.121,-0.171l0.123,-0.171l0.127,-0.171l0.131,-0.171l0.134,-0.17l0.138,-0.171l0.14,-0.17l0.145,-0.17l0.148,-0.169l0.151,-0.17l0.155,-0.169l0.158,-0.169l0.161,-0.169l0.166,-0.169l0.168,-0.168l0.172,-0.168l0.176,-0.168l0.179,-0.168l0.182,-0.167l0.187,-0.167l0.189,-0.167l0.193,-0.167l0.197,-0.166l0.2,-0.166l0.204,-0.166l0.207,-0.165l0.21,-0.165l0.215,-0.165l0.218,-0.165l0.221,-0.164l0.225,-0.164l0.228,-0.164l0.232,-0.163l0.236,-0.163l0.239,-0.163l0.243,-0.162l0.246,-0.162l0.25,-0.161l0.253,-0.162l0.257,-0.161l0.261,-0.16l0.264,-0.16l0.268,-0.16l0.271,-0.159l0.274,-0.158l0.277,-0.158l0.279,-0.157l0.282,-0.155l0.285,-0.155l0.288,-0.154l0.29,-0.154l0.293,-0.152l0.296,-0.151l0.298,-0.151l0.302,-0.15l0.303,-0.149l0.307,-0.148l0.309,-0.147l0.311,-0.146l0.314,-0.146l0.317,-0.144l0.319,-0.144l0.322,-0.143l0.324,-0.142l0.327,-0.141l0.329,-0.14l0.332,-0.14l0.334,-0.138l0.337,-0.138l0.339,-0.137l0.342,-0.136l0.344,-0.134l0.346,-0.135l0.349,-0.133l0.351,-0.132l0.353,-0.132l0.356,-0.13l0.358,-0.13l0.36,-0.129l0.363,-0.128l0.365,-0.127l0.367,-0.126l0.37,-0.125l0.371,-0.124l0.374,-0.124l0.376,-0.122l0.378,-0.122l0.381,-0.121l0.382,-0.119l0.385,-0.119l0.387,-0.118l0.389,-0.117l0.391,-0.117l0.393,-0.115l0.395,-0.114l0.397,-0.114l0.399,-0.113l0.402,-0.111l0.403,-0.111l0.405,-0.11l0.407,-0.109l0.41,-0.108l0.411,-0.107l0.413,-0.106l0.415,-0.105l0.417,-0.105l0.418,-0.103l0.421,-0.103l0.422,-0.101l0.425,-0.101l0.426,-0.1l0.428,-0.098l0.43,-0.098l0.431,-0.097l0.434,-0.096l0.435,-0.095l0.436,-0.094l0.439,-0.093l0.44,-0.093l0.442,-0.091l0.444,-0.09l0.445,-0.09l0.447,-0.088l0.449,-0.088l0.45,-0.087l0.451,-0.085l0.454,-0.085l0.455,-0.084l0.456,-0.083l0.458,-0.081l0.46,-0.081l0.461,-0.08l0.463,-0.079l0.464,-0.078l0.465,-0.078l0.467,-0.076l0.469,-0.075l0.47,-0.074l0.471,-0.073l0.473,-0.073l0.474,-0.071l0.475,-0.07l0.477,-0.07l0.478,-0.068l0.48,-0.068l0.481,-0.066l0.482,-0.066l0.483,-0.064l0.485,-0.064l0.486,-0.063l0.487,-0.061l0.488,-0.061l0.49,-0.06l0.491,-0.058l0.491,-0.058l0.494,-0.057l0.494,-0.056l0.495,-0.054l0.497,-0.054l0.497,-0.053l0.499,-0.052l0.5,-0.051l0.5,-0.05l0.502,-0.049l0.503,-0.047l0.504,-0.047l0.505,-0.046l0.506,-0.045l0.507,-0.044l0.507,-0.043l0.509,-0.042l0.51,-0.041l0.51,-0.04l0.512,-0.038l0.512,-0.038l0.514,-0.037l0.514,-0.036l0.515,-0.035l0.515,-0.034l0.517,-0.033l0.517,-0.031l0.518,-0.031l0.519,-0.03l0.52,-0.029l0.52,-0.028l0.521,-0.026l0.522,-0.026l0.523,-0.025l0.523,-0.024l0.523,-0.022l0.525,-0.022l0.525,-0.021l0.526,-0.019l0.526,-0.019l0.527,-0.017l0.527,-0.017l0.528,-0.015l0.529,-0.015l0.529,-0.013l0.53,-0.013l0.53,-0.011l0.53,-0.01l0.531,-0.01l0.532,-0.008l0.532,-0.007l0.532,-0.006l0.533,-0.005l0.533,-0.005l0.534,-0.003l0.533,-0.002l0.535,-0.001l0.534,0.001Zm-0.53,5.858l-0.522,0.001l-0.523,0.002l-0.522,0.004l-0.522,0.004l-0.521,0.005l-0.521,0.006l-0.52,0.008l-0.52,0.008l-0.519,0.009l-0.519,0.01l-0.519,0.012l-0.518,0.012l-0.518,0.013l-0.516,0.015l-0.517,0.015l-0.516,0.017l-0.515,0.017l-0.515,0.018l-0.514,0.02l-0.513,0.02l-0.513,0.022l-0.512,0.022l-0.511,0.023l-0.511,0.025l-0.51,0.025l-0.509,0.026l-0.509,0.028l-0.507,0.028l-0.507,0.03l-0.507,0.03l-0.505,0.031l-0.504,0.032l-0.504,0.034l-0.503,0.034l-0.502,0.035l-0.501,0.036l-0.5,0.038l-0.5,0.038l-0.498,0.039l-0.497,0.04l-0.497,0.041l-0.495,0.042l-0.495,0.043l-0.493,0.044l-0.493,0.045l-0.491,0.046l-0.49,0.047l-0.489,0.048l-0.489,0.049l-0.487,0.049l-0.486,0.051l-0.484,0.052l-0.484,0.052l-0.482,0.054l-0.482,0.055l-0.48,0.055l-0.479,0.056l-0.477,0.058l-0.477,0.058l-0.475,0.059l-0.473,0.06l-0.473,0.062l-0.471,0.062l-0.47,0.063l-0.468,0.063l-0.467,0.065l-0.466,0.066l-0.465,0.067l-0.462,0.067l-0.462,0.069l-0.46,0.069l-0.459,0.071l-0.457,0.071l-0.455,0.072l-0.454,0.073l-0.453,0.074l-0.451,0.075l-0.449,0.076l-0.448,0.076l-0.447,0.078l-0.444,0.079l-0.443,0.079l-0.442,0.08l-0.439,0.081l-0.438,0.082l-0.437,0.083l-0.434,0.084l-0.433,0.085l-0.432,0.085l-0.429,0.087l-0.428,0.087l-0.425,0.088l-0.424,0.089l-0.423,0.09l-0.42,0.091l-0.418,0.092l-0.417,0.092l-0.415,0.094l-0.412,0.094l-0.411,0.095l-0.409,0.096l-0.407,0.096l-0.405,0.098l-0.403,0.098l-0.401,0.099l-0.399,0.1l-0.396,0.101l-0.395,0.102l-0.393,0.102l-0.39,0.104l-0.389,0.104l-0.386,0.105l-0.384,0.105l-0.382,0.107l-0.38,0.107l-0.377,0.108l-0.375,0.109l-0.374,0.109l-0.37,0.111l-0.369,0.111l-0.366,0.112l-0.364,0.112l-0.361,0.114l-0.359,0.114l-0.357,0.115l-0.354,0.116l-0.352,0.116l-0.35,0.117l-0.347,0.118l-0.344,0.118l-0.342,0.12l-0.34,0.119l-0.337,0.121l-0.334,0.121l-0.332,0.122l-0.33,0.123l-0.326,0.123l-0.324,0.124l-0.322,0.125l-0.318,0.125l-0.317,0.126l-0.313,0.127l-0.311,0.127l-0.307,0.127l-0.306,0.129l-0.302,0.129l-0.299,0.129l-0.297,0.13l-0.294,0.131l-0.291,0.131l-0.288,0.132l-0.286,0.132l-0.282,0.133l-0.279,0.133l-0.277,0.134l-0.273,0.134l-0.271,0.135l-0.267,0.135l-0.264,0.136l-0.262,0.136l-0.258,0.136l-0.255,0.137l-0.252,0.137l-0.249,0.138l-0.246,0.138l-0.243,0.138l-0.239,0.138l-0.236,0.139l-0.233,0.139l-0.228,0.139l-0.225,0.138l-0.221,0.138l-0.216,0.138l-0.213,0.138l-0.208,0.137l-0.205,0.137l-0.2,0.137l-0.197,0.136l-0.192,0.136l-0.189,0.135l-0.185,0.134l-0.18,0.135l-0.177,0.133l-0.173,0.133l-0.169,0.133l-0.165,0.132l-0.161,0.131l-0.157,0.13l-0.153,0.13l-0.149,0.129l-0.145,0.128l-0.142,0.127l-0.138,0.127l-0.134,0.125l-0.13,0.125l-0.126,0.123l-0.122,0.123l-0.119,0.121l-0.115,0.12l-0.112,0.12l-0.108,0.118l-0.104,0.117l-0.1,0.115l-0.097,0.115l-0.094,0.113l-0.09,0.111l-0.086,0.111l-0.084,0.109l-0.08,0.107l-0.076,0.106l-0.074,0.105l-0.07,0.103l-0.067,0.101l-0.064,0.1l-0.061,0.099l-0.064,0.106l-0.022,0.039l-0.027,0.047l-0.027,0.047l-0.026,0.047l-0.025,0.046l-0.024,0.046l-0.024,0.045l-0.023,0.045l-0.023,0.045l-0.022,0.044l-0.021,0.044l-0.02,0.043l-0.02,0.043l-0.02,0.043l-0.019,0.042l-0.018,0.042l-0.017,0.042l-0.017,0.041l-0.017,0.041l-0.016,0.04l-0.015,0.04l-0.015,0.04l-0.015,0.039l-0.013,0.039l-0.014,0.038l-0.013,0.038l-0.012,0.038l-0.012,0.038l-0.012,0.037l-0.011,0.037l-0.01,0.037l-0.01,0.036l-0.01,0.036l-0.009,0.036l-0.009,0.035l-0.009,0.035l-0.008,0.035l-0.007,0.035l-0.008,0.034l-0.007,0.034l-0.006,0.034l-0.006,0.034l-0.006,0.034l-0.006,0.033l-0.005,0.033l-0.005,0.033l-0.004,0.033l-0.004,0.033l-0.004,0.032l-0.004,0.033l-0.003,0.032l-0.003,0.032l-0.002,0.032l-0.002,0.033l-0.002,0.032l-0.002,0.032l-0.001,0.032l-0.001,0.032l-0.001,0.032l-0.001,0.032l0,0.032l0,0.032l0.001,0.032l0.001,0.032l0.001,0.032l0.001,0.032l0.002,0.033l0.002,0.032l0.002,0.033l0.003,0.032l0.002,0.033l0.004,0.033l0.003,0.034l0.004,0.033l0.004,0.033l0.005,0.034l0.005,0.034l0.005,0.034l0.006,0.035l0.006,0.034l0.006,0.035l0.007,0.036l0.007,0.035l0.007,0.036l0.008,0.036l0.008,0.036l0.009,0.036l0.009,0.037l0.01,0.038l0.009,0.037l0.011,0.038l0.011,0.038l0.011,0.038l0.012,0.039l0.012,0.04l0.012,0.039l0.014,0.04l0.013,0.04l0.014,0.041l0.015,0.041l0.015,0.041l0.012,0.031l0.037,0.095l0.035,0.087l0.037,0.087l0.04,0.089l0.042,0.091l0.044,0.092l0.047,0.094l0.05,0.095l0.052,0.097l0.055,0.098l0.057,0.1l0.06,0.102l0.063,0.102l0.066,0.104l0.068,0.106l0.072,0.107l0.075,0.108l0.077,0.11l0.081,0.111l0.083,0.112l0.087,0.114l0.089,0.114l0.093,0.116l0.096,0.117l0.099,0.118l0.103,0.12l0.105,0.12l0.109,0.121l0.112,0.122l0.115,0.123l0.119,0.124l0.121,0.125l0.126,0.126l0.128,0.126l0.131,0.127l0.135,0.128l0.139,0.129l0.141,0.13l0.145,0.13l0.148,0.13l0.151,0.131l0.155,0.132l0.158,0.132l0.162,0.133l0.164,0.133l0.168,0.134l0.171,0.134l0.175,0.135l0.178,0.135l0.181,0.135l0.184,0.135l0.188,0.136l0.191,0.136l0.194,0.136l0.198,0.137l0.2,0.137l0.204,0.137l0.208,0.137l0.21,0.137l0.214,0.137l0.216,0.138l0.221,0.137l0.223,0.138l0.226,0.137l0.23,0.138l0.233,0.138l0.236,0.137l0.239,0.138l0.242,0.138l0.246,0.137l0.249,0.138l0.251,0.137l0.255,0.137l0.258,0.138l0.261,0.137l0.264,0.136l0.268,0.137l0.27,0.137l0.274,0.136l0.276,0.136l0.28,0.136l0.282,0.136l0.286,0.135l0.289,0.136l0.291,0.135l0.295,0.134l0.298,0.135l0.301,0.134l0.303,0.134l0.307,0.133l0.31,0.134l0.312,0.133l0.316,0.132l0.319,0.132l0.321,0.132l0.324,0.132l0.328,0.131l0.33,0.13l0.333,0.13l0.337,0.13l0.339,0.13l0.341,0.129l0.345,0.128l0.348,0.128l0.35,0.128l0.354,0.127l0.356,0.127l0.359,0.126l0.362,0.126l0.365,0.125l0.368,0.125l0.37,0.124l0.373,0.124l0.376,0.123l0.379,0.122l0.382,0.123l0.384,0.121l0.388,0.121l0.389,0.12l0.393,0.12l0.396,0.119l0.398,0.119l0.401,0.118l0.404,0.118l0.406,0.116l0.409,0.117l0.412,0.115l0.415,0.115l0.417,0.114l0.42,0.114l0.423,0.113l0.425,0.113l0.429,0.111l0.43,0.111l0.434,0.111l0.436,0.109l0.439,0.109l0.441,0.109l0.444,0.107l0.447,0.107l0.449,0.106l0.452,0.106l0.454,0.104l0.458,0.104l0.459,0.103l0.463,0.103l0.465,0.102l0.467,0.101l0.471,0.1l0.472,0.099l0.476,0.099l0.477,0.098l0.481,0.097l0.483,0.096l0.485,0.096l0.488,0.094l0.491,0.094l0.492,0.093l0.494,0.092l0.494,0.091l0.496,0.089l0.496,0.089l0.497,0.087l0.499,0.086l0.499,0.086l0.5,0.084l0.501,0.083l0.502,0.082l0.503,0.08l0.504,0.08l0.504,0.079l0.506,0.077l0.506,0.077l0.507,0.075l0.507,0.074l0.509,0.074l0.509,0.072l0.51,0.071l0.511,0.07l0.511,0.068l0.512,0.068l0.513,0.067l0.513,0.065l0.514,0.065l0.515,0.063l0.515,0.062l0.516,0.062l0.516,0.06l0.517,0.059l0.517,0.058l0.518,0.057l0.519,0.055l0.519,0.055l0.519,0.054l0.52,0.052l0.52,0.052l0.521,0.05l0.521,0.05l0.522,0.048l0.522,0.047l0.522,0.046l0.523,0.045l0.523,0.044l0.523,0.043l0.523,0.042l0.524,0.041l0.525,0.039l0.524,0.039l0.525,0.037l0.525,0.037l0.525,0.035l0.525,0.035l0.525,0.033l0.526,0.032l0.526,0.031l0.526,0.03l0.526,0.03l0.526,0.028l0.526,0.026l0.526,0.026l0.527,0.025l0.526,0.024l0.527,0.023l0.526,0.021l0.526,0.021l0.527,0.02l0.526,0.018l0.526,0.018l0.527,0.016l0.526,0.016l0.526,0.014l0.526,0.013l0.525,0.012l0.526,0.012l0.525,0.01l0.526,0.009l0.525,0.008l0.525,0.007l0.524,0.006l0.525,0.005l0.524,0.004l0.523,0.003l0.524,0.002l0.523,0.001l0.523,0l0.523,-0.001l0.522,-0.002l0.522,-0.003l0.521,-0.005l0.522,-0.005l0.52,-0.006l0.52,-0.007l0.52,-0.009l0.52,-0.009l0.518,-0.01l0.519,-0.012l0.518,-0.012l0.517,-0.013l0.517,-0.015l0.516,-0.015l0.516,-0.016l0.515,-0.018l0.514,-0.018l0.514,-0.02l0.513,-0.02l0.513,-0.021l0.512,-0.023l0.511,-0.023l0.511,-0.025l0.509,-0.025l0.51,-0.026l0.508,-0.028l0.507,-0.028l0.507,-0.029l0.506,-0.031l0.505,-0.031l0.505,-0.032l0.503,-0.033l0.503,-0.035l0.502,-0.035l0.501,-0.036l0.5,-0.037l0.499,-0.039l0.498,-0.039l0.497,-0.04l0.497,-0.041l0.495,-0.042l0.494,-0.043l0.494,-0.044l0.492,-0.045l0.491,-0.046l0.49,-0.047l0.489,-0.047l0.488,-0.049l0.487,-0.05l0.486,-0.051l0.484,-0.051l0.484,-0.053l0.482,-0.053l0.481,-0.055l0.48,-0.055l0.479,-0.057l0.477,-0.057l0.476,-0.058l0.475,-0.06l0.474,-0.06l0.472,-0.061l0.471,-0.062l0.47,-0.063l0.468,-0.064l0.467,-0.064l0.466,-0.066l0.464,-0.067l0.462,-0.067l0.462,-0.069l0.46,-0.069l0.458,-0.071l0.457,-0.071l0.455,-0.072l0.454,-0.073l0.453,-0.074l0.45,-0.075l0.45,-0.076l0.447,-0.076l0.446,-0.078l0.445,-0.078l0.443,-0.08l0.441,-0.08l0.439,-0.081l0.438,-0.082l0.436,-0.083l0.435,-0.084l0.433,-0.084l0.43,-0.086l0.43,-0.086l0.427,-0.087l0.426,-0.089l0.423,-0.089l0.422,-0.089l0.421,-0.091l0.418,-0.092l0.416,-0.092l0.415,-0.093l0.412,-0.095l0.411,-0.095l0.408,-0.095l0.407,-0.097l0.405,-0.097l0.402,-0.099l0.401,-0.099l0.399,-0.1l0.396,-0.101l0.395,-0.101l0.392,-0.103l0.39,-0.103l0.388,-0.104l0.386,-0.105l0.384,-0.105l0.382,-0.107l0.379,-0.107l0.378,-0.108l0.375,-0.109l0.372,-0.109l0.371,-0.11l0.368,-0.111l0.366,-0.112l0.363,-0.113l0.362,-0.113l0.358,-0.114l0.357,-0.115l0.354,-0.115l0.352,-0.117l0.349,-0.117l0.346,-0.117l0.345,-0.119l0.341,-0.119l0.34,-0.12l0.336,-0.12l0.334,-0.121l0.332,-0.122l0.329,-0.123l0.326,-0.123l0.324,-0.124l0.321,-0.124l0.319,-0.125l0.315,-0.126l0.313,-0.127l0.311,-0.127l0.307,-0.127l0.305,-0.128l0.302,-0.129l0.299,-0.129l0.296,-0.13l0.294,-0.131l0.291,-0.131l0.287,-0.131l0.285,-0.132l0.282,-0.133l0.279,-0.133l0.276,-0.134l0.273,-0.134l0.27,-0.134l0.267,-0.135l0.264,-0.136l0.261,-0.135l0.258,-0.137l0.255,-0.136l0.251,-0.137l0.249,-0.137l0.245,-0.138l0.242,-0.138l0.239,-0.138l0.236,-0.139l0.232,-0.139l0.228,-0.138l0.224,-0.138l0.22,-0.138l0.216,-0.138l0.212,-0.137l0.208,-0.137l0.205,-0.136l0.2,-0.137l0.196,-0.135l0.192,-0.136l0.188,-0.134l0.184,-0.135l0.18,-0.134l0.176,-0.133l0.172,-0.132l0.169,-0.132l0.164,-0.132l0.16,-0.131l0.157,-0.129l0.152,-0.13l0.149,-0.128l0.145,-0.128l0.141,-0.126l0.137,-0.126l0.133,-0.125l0.129,-0.124l0.126,-0.123l0.122,-0.122l0.118,-0.121l0.115,-0.119l0.11,-0.119l0.108,-0.117l0.103,-0.116l0.1,-0.115l0.096,-0.114l0.093,-0.112l0.09,-0.111l0.086,-0.11l0.082,-0.108l0.079,-0.106l0.076,-0.105l0.073,-0.104l0.07,-0.102l0.066,-0.101l0.064,-0.099l0.06,-0.097l0.063,-0.106l0.022,-0.038l0.027,-0.046l0.026,-0.047l0.026,-0.046l0.025,-0.046l0.024,-0.045l0.023,-0.045l0.023,-0.044l0.022,-0.044l0.022,-0.044l0.021,-0.043l0.02,-0.043l0.02,-0.043l0.019,-0.042l0.019,-0.041l0.018,-0.042l0.017,-0.04l0.017,-0.041l0.016,-0.04l0.016,-0.04l0.015,-0.039l0.015,-0.039l0.014,-0.039l0.013,-0.038l0.014,-0.038l0.012,-0.037l0.012,-0.038l0.012,-0.037l0.011,-0.036l0.011,-0.036l0.011,-0.036l0.009,-0.036l0.01,-0.035l0.009,-0.035l0.009,-0.035l0.008,-0.034l0.008,-0.034l0.008,-0.034l0.007,-0.034l0.006,-0.034l0.007,-0.033l0.006,-0.033l0.006,-0.033l0.005,-0.032l0.005,-0.033l0.005,-0.032l0.004,-0.032l0.004,-0.032l0.004,-0.032l0.003,-0.032l0.003,-0.031l0.003,-0.032l0.003,-0.031l0.002,-0.032l0.002,-0.031l0.001,-0.031l0.002,-0.031l0.001,-0.032l0,-0.031l0.001,-0.031l0,-0.031l0,-0.032l-0.001,-0.031l0,-0.031l-0.001,-0.032l-0.002,-0.031l-0.001,-0.032l-0.002,-0.032l-0.002,-0.031l-0.003,-0.032l-0.003,-0.033l-0.003,-0.032l-0.003,-0.032l-0.004,-0.033l-0.004,-0.033l-0.005,-0.033l-0.005,-0.033l-0.005,-0.034l-0.005,-0.033l-0.006,-0.034l-0.006,-0.034l-0.007,-0.035l-0.007,-0.035l-0.007,-0.035l-0.008,-0.035l-0.008,-0.035l-0.008,-0.036l-0.009,-0.037l-0.01,-0.036l-0.009,-0.037l-0.011,-0.037l-0.01,-0.038l-0.011,-0.037l-0.012,-0.039l-0.012,-0.038l-0.012,-0.039l-0.013,-0.039l-0.013,-0.04l-0.014,-0.04l-0.015,-0.04l-0.015,-0.041l-0.011,-0.03l-0.037,-0.094l-0.034,-0.085l-0.037,-0.087l-0.039,-0.088l-0.042,-0.089l-0.044,-0.091l-0.046,-0.093l-0.049,-0.094l-0.052,-0.096l-0.054,-0.098l-0.057,-0.098l-0.059,-0.101l-0.063,-0.102l-0.065,-0.103l-0.068,-0.105l-0.071,-0.106l-0.074,-0.107l-0.077,-0.109l-0.08,-0.11l-0.083,-0.112l-0.086,-0.112l-0.089,-0.114l-0.092,-0.115l-0.095,-0.117l-0.099,-0.117l-0.102,-0.119l-0.105,-0.119l-0.108,-0.121l-0.111,-0.121l-0.115,-0.123l-0.118,-0.123l-0.121,-0.124l-0.125,-0.125l-0.127,-0.126l-0.131,-0.127l-0.135,-0.128l-0.137,-0.128l-0.141,-0.129l-0.145,-0.129l-0.147,-0.13l-0.151,-0.131l-0.154,-0.131l-0.158,-0.132l-0.161,-0.133l-0.164,-0.132l-0.167,-0.134l-0.171,-0.133l-0.174,-0.135l-0.177,-0.134l-0.181,-0.135l-0.184,-0.135l-0.187,-0.136l-0.191,-0.135l-0.193,-0.136l-0.197,-0.136l-0.201,-0.137l-0.203,-0.137l-0.207,-0.136l-0.21,-0.137l-0.213,-0.137l-0.217,-0.137l-0.219,-0.138l-0.223,-0.137l-0.226,-0.137l-0.23,-0.138l-0.232,-0.137l-0.236,-0.138l-0.238,-0.137l-0.242,-0.137l-0.245,-0.138l-0.249,-0.137l-0.251,-0.137l-0.254,-0.137l-0.258,-0.137l-0.261,-0.137l-0.264,-0.137l-0.267,-0.136l-0.27,-0.137l-0.273,-0.136l-0.276,-0.136l-0.279,-0.136l-0.282,-0.135l-0.286,-0.136l-0.288,-0.135l-0.291,-0.134l-0.295,-0.135l-0.297,-0.134l-0.3,-0.134l-0.304,-0.134l-0.306,-0.133l-0.31,-0.134l-0.312,-0.132l-0.315,-0.133l-0.319,-0.132l-0.321,-0.131l-0.324,-0.132l-0.327,-0.131l-0.33,-0.13l-0.333,-0.13l-0.336,-0.13l-0.338,-0.129l-0.342,-0.129l-0.345,-0.129l-0.347,-0.128l-0.35,-0.127l-0.353,-0.127l-0.356,-0.127l-0.359,-0.126l-0.362,-0.126l-0.364,-0.125l-0.368,-0.124l-0.37,-0.124l-0.373,-0.124l-0.376,-0.123l-0.378,-0.123l-0.382,-0.122l-0.384,-0.121l-0.387,-0.121l-0.389,-0.12l-0.393,-0.12l-0.395,-0.119l-0.398,-0.119l-0.401,-0.118l-0.403,-0.117l-0.407,-0.117l-0.409,-0.116l-0.411,-0.116l-0.415,-0.114l-0.417,-0.115l-0.42,-0.113l-0.422,-0.113l-0.425,-0.113l-0.428,-0.111l-0.431,-0.111l-0.433,-0.11l-0.436,-0.11l-0.438,-0.109l-0.441,-0.108l-0.444,-0.108l-0.447,-0.106l-0.449,-0.107l-0.451,-0.105l-0.455,-0.105l-0.457,-0.104l-0.459,-0.103l-0.462,-0.102l-0.465,-0.102l-0.468,-0.101l-0.47,-0.1l-0.472,-0.099l-0.475,-0.099l-0.478,-0.098l-0.48,-0.097l-0.483,-0.096l-0.485,-0.095l-0.488,-0.095l-0.498,-0.095l0.03,-0.158l-0.485,-0.092l-0.494,-0.091l-0.494,-0.091l-0.496,-0.09l-0.496,-0.088l-0.498,-0.088l-0.499,-0.086l-0.499,-0.085l-0.5,-0.084l-0.502,-0.084l-0.502,-0.081l-0.503,-0.081l-0.504,-0.08l-0.504,-0.079l-0.506,-0.077l-0.506,-0.077l-0.507,-0.075l-0.508,-0.075l-0.509,-0.073l-0.509,-0.072l-0.51,-0.071l-0.511,-0.07l-0.512,-0.069l-0.512,-0.067l-0.513,-0.067l-0.513,-0.066l-0.514,-0.064l-0.515,-0.063l-0.516,-0.063l-0.515,-0.061l-0.517,-0.06l-0.517,-0.059l-0.518,-0.058l-0.518,-0.057l-0.518,-0.056l-0.52,-0.055l-0.519,-0.053l-0.52,-0.053l-0.521,-0.051l-0.521,-0.051l-0.521,-0.049l-0.522,-0.048l-0.522,-0.048l-0.522,-0.046l-0.523,-0.045l-0.523,-0.044l-0.524,-0.043l-0.524,-0.041l-0.524,-0.041l-0.524,-0.04l-0.525,-0.038l-0.524,-0.038l-0.525,-0.037l-0.526,-0.035l-0.525,-0.034l-0.526,-0.034l-0.526,-0.032l-0.526,-0.031l-0.526,-0.03l-0.526,-0.029l-0.526,-0.028l-0.526,-0.027l-0.527,-0.026l-0.526,-0.025l-0.527,-0.024l-0.527,-0.023l-0.526,-0.021l-0.527,-0.021l-0.526,-0.019l-0.527,-0.019l-0.526,-0.018l-0.526,-0.016l-0.527,-0.015l-0.526,-0.015l-0.526,-0.013l-0.526,-0.012l-0.526,-0.012l-0.525,-0.01l-0.526,-0.009l-0.525,-0.008l-0.525,-0.007l-0.525,-0.006l-0.524,-0.005l-0.524,-0.004l-0.524,-0.003l-0.524,-0.002l-0.524,-0.001l-0.523,0Z" style="fill:#fff;fill-opacity:0.4;"/></g><g><path d="M346.192,463.861c-7.083,36.728 -35.033,10.956 -19.027,-6.548l9.718,-50.74c5.481,-16.209 21.342,-13.037 20.869,-5.729l-11.56,63.017Z" style="fill:#a08c7c;"/><path d="M271.639,507.666l2.515,-2.388c-5.182,-7.455 -5.404,-15.295 -1.383,-23.465l7.542,-55.478c5.138,-11.711 21.17,-11.943 24.261,3.645l-4.483,35.952c18.944,4.648 27.802,-10.014 43.807,-27.518l9.718,-50.741c5.481,-16.209 21.343,-13.036 20.869,-5.728l-11.559,63.016c-7.084,36.729 -33.283,57.53 -61.482,91.966l-29.805,-29.261Z" style="fill:#f6c096;"/><path d="M282.124,437.388c0,0 0.216,-1.837 0.395,-3.356c0.129,-1.097 1.123,-1.882 2.22,-1.752c3.46,0.407 10.551,1.243 14.011,1.65c1.097,0.13 1.881,1.124 1.752,2.221c-0.179,1.521 -0.396,3.361 -0.396,3.361l3.244,0.383l-0.465,3.727l-3.219,-0.38c0,0 -0.217,1.841 -0.396,3.363c-0.129,1.097 -1.123,1.882 -2.22,1.753c-3.46,-0.408 -10.551,-1.243 -14.01,-1.651c-1.097,-0.129 -1.882,-1.123 -1.753,-2.22c0.18,-1.525 0.397,-3.371 0.397,-3.371l-3.32,-0.393l0.487,-3.722l3.273,0.387Z" style="fill:#aaaaa9;"/><path d="M372.589,392.391l1.203,-6.48c0,0 2.148,0.399 3.828,0.71c0.522,0.097 0.983,0.397 1.284,0.834c0.3,0.438 0.415,0.976 0.318,1.498c-0.621,3.347 -1.877,10.112 -2.498,13.459c-0.097,0.522 -0.397,0.984 -0.834,1.284c-0.437,0.3 -0.976,0.415 -1.497,0.318c-1.681,-0.312 -3.829,-0.711 -3.829,-0.711l1.203,-6.48l-19.167,-3.703l0.823,-4.433l19.166,3.704Z" style="fill:#aaaaa9;"/><path d="M265.612,501.637l41.102,41.674l-10.752,6.476l-37.24,-36.222l6.89,-11.928" style="fill:#e7e8ea;"/><path d="M256.221,509.127l-100.636,105.831l95.399,1.202l49.531,-63.053l-44.294,-43.98Z" style="fill:url(#_Linear5);"/></g><g><path d="M426.942,222.367l0.6,2.363l-1.427,3.822l-0.005,0.009l-37.093,62.624l12.722,2.711l1.092,0.314l1.031,0.497l0.939,0.668l0.819,0.822l0.673,0.955l0.506,1.062l0.322,1.139l0.126,1.185l-0.075,1.197l-0.278,1.176l-18.316,55.441l-0.003,0.009l-1.938,3.116l-2.897,2.074l-3.462,0.844l-3.626,-0.564l-0.019,-0.007l-3.116,-1.937l-2.075,-2.898l-0.843,-3.462l0.564,-3.626l0.003,-0.009l19.443,-47.106l-12.178,-3.277l-0.992,-0.379l-0.905,-0.541l-0.792,-0.684l-0.657,-0.805l-0.504,-0.899l-0.339,-0.965l-0.166,-1.002l0.01,-1.008l0.182,-0.983l0.347,-0.93l0.498,-0.849l46.522,-66.782l0.005,-0.008l2.887,-2.884l2.399,-0.434l0.016,0.011Z" style="fill:#a3a2a2;fill-opacity:0.6;"/><path d="M425.457,224.676l0.299,1.21l-0.76,1.947l-0.005,0.008l-40.41,65.596l16.376,3.703l0.546,0.166l0.512,0.256l0.463,0.34l0.402,0.415l0.327,0.479l0.243,0.53l0.151,0.565l0.055,0.585l-0.045,0.588l-0.145,0.575l-19.241,55.098l-0.003,0.009l-2.416,2.591l-3.539,0.141l-0.019,-0.007l-2.591,-2.416l-0.141,-3.539l0.003,-0.009l19.974,-50.811l-16.341,-4.179l-0.499,-0.183l-0.458,-0.264l-0.403,-0.338l-0.337,-0.401l-0.262,-0.45l-0.18,-0.487l-0.092,-0.508l-0.003,-0.513l0.085,-0.504l0.17,-0.479l0.249,-0.44l45.332,-67.548l0.005,-0.008l1.456,-1.499l1.225,-0.23l0.017,0.011Z" style="fill:#ecd44c;"/></g><defs><linearGradient id="_Linear5" x1="0" y1="0" x2="1" y2="0" gradientUnits="userSpaceOnUse" gradientTransform="matrix(-94.5647,109.554,-109.554,-94.5647,299.827,552.939)"><stop offset="0" style="stop-color:#3f3f42;stop-opacity:1"/><stop offset="1" style="stop-color:#3f3f42;stop-opacity:0"/></linearGradient></defs></svg>