<?xml version="1.0" encoding="UTF-8" standalone="no"?><!DOCTYPE svg PUBLIC "-//W3C//DTD SVG 1.1//EN" "http://www.w3.org/Graphics/SVG/1.1/DTD/svg11.dtd"><svg width="100%" height="100%" viewBox="0 0 640 640" version="1.1" xmlns="http://www.w3.org/2000/svg" xmlns:xlink="http://www.w3.org/1999/xlink" xml:space="preserve" xmlns:serif="http://www.serif.com/" style="fill-rule:evenodd;clip-rule:evenodd;stroke-linejoin:round;stroke-miterlimit:1.41421;"><rect x="0" y="0" width="640" height="640" style="fill:#fff;"/><rect x="267" y="24" width="319" height="284.993" style="fill:#cde4f5;fill-opacity:0.6;"/><rect x="24" y="228" width="592" height="360" style="fill:#cde4f5;"/><g id="MAMBO"><rect x="214.672" y="519.25" width="59" height="37" style="fill:#cfcecf;"/><rect x="214.672" y="519.25" width="59" height="37" style="fill:#ffb800;"/><path d="M306.672,448.25l-59,0c0,0 0,2.987 0,6.975c0,11.059 8.965,20.025 20.025,20.025c6.207,0 13.039,0 19.227,0c10.906,0 19.748,-8.841 19.748,-19.748c0,-4.125 0,-7.252 0,-7.252Z" style="fill:#cfcecf;"/><path d="M306.672,455.502l-0.001,0.128l-0.001,0.127l-0.002,0.128l-0.003,0.127l-0.003,0.127l-0.005,0.127l-0.005,0.126l-0.006,0.126l-0.007,0.127l-0.007,0.125l-0.009,0.126l-0.009,0.126l-0.01,0.125l-0.01,0.125l-0.012,0.125l-0.012,0.124l-0.013,0.125l-0.014,0.124l-0.014,0.124l-0.016,0.123l-0.016,0.124l-0.017,0.123l-0.017,0.123l-0.019,0.123l-0.019,0.122l-0.02,0.122l-0.02,0.122l-0.022,0.122l-0.022,0.121l-0.022,0.122l-0.024,0.12l-0.024,0.121l-0.025,0.12l-0.026,0.121l-0.027,0.119l-0.027,0.12l-0.028,0.119l-0.028,0.119l-0.03,0.119l-0.03,0.119l-0.031,0.118l-0.031,0.118l-0.032,0.117l-0.033,0.117l-0.034,0.117l-0.034,0.117l-0.035,0.117l-0.036,0.116l-0.036,0.115l-0.037,0.116l-0.077,0.23l-0.079,0.229l-0.081,0.227l-0.085,0.226l-0.087,0.225l-0.09,0.224l-0.092,0.222l-0.095,0.221l-0.098,0.219l-0.1,0.218l-0.102,0.217l-0.106,0.215l-0.108,0.213l-0.11,0.213l-0.113,0.21l-0.115,0.209l-0.117,0.208l-0.121,0.206l-0.122,0.204l-0.125,0.203l-0.127,0.201l-0.13,0.2l-0.132,0.197l-0.134,0.197l-0.136,0.194l-0.139,0.193l-0.141,0.191l-0.144,0.189l-0.145,0.187l-0.148,0.186l-0.15,0.184l-0.152,0.182l-0.154,0.18l-0.156,0.178l-0.158,0.176l-0.161,0.175l-0.162,0.172l-0.165,0.17l-0.166,0.169l-0.169,0.167l-0.17,0.164l-0.173,0.162l-0.174,0.161l-0.176,0.158l-0.178,0.156l-0.181,0.155l-0.181,0.152l-0.184,0.149l-0.186,0.148l-0.187,0.146l-0.189,0.143l-0.191,0.141l-0.193,0.139l-0.195,0.136l-0.196,0.134l-0.198,0.132l-0.199,0.13l-0.201,0.127l-0.203,0.125l-0.204,0.123l-0.206,0.12l-0.208,0.117l-0.209,0.116l-0.211,0.112l-0.212,0.111l-0.213,0.107l-0.215,0.106l-0.217,0.102l-0.218,0.101l-0.219,0.097l-0.221,0.095l-0.222,0.092l-0.224,0.09l-0.225,0.087l-0.226,0.085l-0.227,0.081l-0.229,0.079l-0.23,0.077l-0.116,0.037l-0.116,0.036l-0.116,0.036l-0.116,0.035l-0.117,0.034l-0.117,0.034l-0.117,0.033l-0.118,0.032l-0.117,0.031l-0.119,0.031l-0.118,0.03l-0.119,0.03l-0.119,0.028l-0.119,0.028l-0.12,0.028l-0.12,0.026l-0.12,0.026l-0.12,0.025l-0.121,0.024l-0.121,0.024l-0.121,0.022l-0.121,0.023l-0.122,0.021l-0.122,0.021l-0.122,0.019l-0.123,0.019l-0.122,0.019l-0.123,0.017l-0.123,0.017l-0.124,0.016l-0.123,0.016l-0.124,0.014l-0.124,0.014l-0.125,0.013l-0.124,0.012l-0.125,0.012l-0.125,0.01l-0.125,0.01l-0.126,0.01l-0.126,0.008l-0.126,0.008l-0.126,0.006l-0.126,0.006l-0.127,0.006l-0.126,0.004l-0.127,0.004l-0.127,0.002l-0.128,0.002l-0.127,0.002l-0.128,0l-19.227,0l-0.13,0l-0.129,-0.002l-0.129,-0.002l-0.129,-0.003l-0.129,-0.003l-0.128,-0.005l-0.128,-0.005l-0.129,-0.006l-0.127,-0.007l-0.128,-0.008l-0.128,-0.008l-0.127,-0.009l-0.127,-0.01l-0.127,-0.011l-0.126,-0.012l-0.127,-0.012l-0.126,-0.014l-0.125,-0.014l-0.126,-0.014l-0.126,-0.016l-0.125,-0.016l-0.125,-0.017l-0.124,-0.018l-0.125,-0.019l-0.124,-0.019l-0.124,-0.02l-0.123,-0.021l-0.124,-0.022l-0.123,-0.022l-0.123,-0.023l-0.122,-0.024l-0.123,-0.025l-0.122,-0.025l-0.122,-0.026l-0.121,-0.027l-0.121,-0.028l-0.121,-0.028l-0.121,-0.029l-0.121,-0.03l-0.12,-0.03l-0.119,-0.032l-0.12,-0.032l-0.119,-0.032l-0.119,-0.034l-0.119,-0.034l-0.118,-0.035l-0.118,-0.035l-0.118,-0.036l-0.117,-0.037l-0.117,-0.038l-0.117,-0.038l-0.117,-0.039l-0.116,-0.04l-0.116,-0.04l-0.115,-0.041l-0.115,-0.042l-0.115,-0.043l-0.115,-0.043l-0.114,-0.044l-0.114,-0.044l-0.113,-0.045l-0.113,-0.046l-0.226,-0.094l-0.224,-0.096l-0.222,-0.099l-0.221,-0.102l-0.22,-0.104l-0.218,-0.106l-0.216,-0.11l-0.216,-0.112l-0.213,-0.114l-0.212,-0.117l-0.211,-0.119l-0.209,-0.122l-0.207,-0.124l-0.205,-0.127l-0.204,-0.129l-0.203,-0.131l-0.2,-0.134l-0.199,-0.136l-0.197,-0.139l-0.196,-0.14l-0.193,-0.143l-0.192,-0.146l-0.19,-0.147l-0.188,-0.15l-0.187,-0.152l-0.184,-0.154l-0.183,-0.156l-0.181,-0.159l-0.178,-0.16l-0.177,-0.163l-0.175,-0.165l-0.173,-0.166l-0.171,-0.169l-0.169,-0.171l-0.167,-0.173l-0.164,-0.175l-0.163,-0.177l-0.161,-0.178l-0.158,-0.181l-0.156,-0.183l-0.154,-0.184l-0.152,-0.187l-0.15,-0.188l-0.148,-0.19l-0.145,-0.192l-0.143,-0.193l-0.141,-0.196l-0.138,-0.197l-0.136,-0.199l-0.134,-0.2l-0.131,-0.203l-0.129,-0.204l-0.127,-0.205l-0.124,-0.208l-0.122,-0.208l-0.119,-0.211l-0.117,-0.212l-0.115,-0.213l-0.111,-0.216l-0.11,-0.216l-0.106,-0.218l-0.105,-0.22l-0.101,-0.221l-0.099,-0.222l-0.096,-0.224l-0.094,-0.226l-0.046,-0.113l-0.045,-0.113l-0.045,-0.114l-0.043,-0.114l-0.044,-0.115l-0.042,-0.115l-0.042,-0.115l-0.041,-0.115l-0.04,-0.116l-0.04,-0.116l-0.039,-0.117l-0.038,-0.117l-0.038,-0.117l-0.037,-0.117l-0.036,-0.118l-0.036,-0.118l-0.034,-0.118l-0.034,-0.119l-0.034,-0.119l-0.033,-0.119l-0.031,-0.12l-0.032,-0.119l-0.03,-0.121l-0.03,-0.12l-0.029,-0.121l-0.028,-0.121l-0.028,-0.121l-0.027,-0.121l-0.026,-0.122l-0.025,-0.122l-0.025,-0.123l-0.024,-0.122l-0.023,-0.123l-0.022,-0.123l-0.022,-0.124l-0.021,-0.123l-0.02,-0.124l-0.019,-0.124l-0.019,-0.125l-0.018,-0.125l-0.017,-0.124l-0.016,-0.126l-0.016,-0.125l-0.015,-0.126l-0.014,-0.125l-0.013,-0.127l-0.012,-0.126l-0.012,-0.126l-0.011,-0.127l-0.01,-0.127l-0.009,-0.128l-0.008,-0.127l-0.008,-0.128l-0.007,-0.128l-0.006,-0.128l-0.005,-0.128l-0.005,-0.128l-0.004,-0.129l-0.002,-0.129l-0.002,-0.129l-0.002,-0.13l0,-0.129l0,-6.975l59,0l0,7.252Zm-38.74,-3.847l0.001,0l-0.017,-0.002l0.016,0.002Zm-0.023,0l0.003,0l-0.039,-0.003l0.036,0.003Zm-0.027,-0.001l0.01,0l-0.063,-0.003l0.053,0.003Zm-0.042,-0.001l0.023,0.001l0.008,0l-0.084,-0.004l0.053,0.003Zm-0.042,0l0.043,0.001l0.011,0l-0.107,-0.004l0.053,0.003Zm-0.041,0l0.055,0.001l-0.15,-0.002l0.055,0.001l0.017,0.001l0.099,0l-0.13,-0.003l0.054,0.002Z" style="fill:#0087ff;"/><rect x="132.672" y="511.5" width="69" height="36" style="fill:#9a9a9a;"/><rect x="283.672" y="507.75" width="46" height="48.5" style="fill:#9a9a9a;"/><path d="M419.5,570.5l-370,0l92.5,-138.5l185,0l92.5,138.5Zm-105.053,-115.022l-159.893,0.003l0.07,0.131l-60.845,91.106l281.585,-0.188l-60.912,-91.06l-0.005,0.008Z" style="fill:#38393a;"/><rect x="306.672" y="126" width="23" height="36" style="fill:#16d800;"/><path d="M296.672,152.282l69.046,0.047l0,11.671l0.557,11.67l-12.275,0.009l-53.672,0.039l0.001,0.003l-149.687,103.488l0.195,0.039l100.053,156.351l-9.994,6.395l0.072,0.114l-10.108,6.468l-6.468,-10.108l-99.72,-156.069l-0.94,-1.791l-0.622,-1.924l-0.286,-2.002l0.058,-2.02l0.4,-1.982l0.73,-1.884l1.04,-1.733l1.318,-1.531l1.559,-1.285l162.076,-111.89l1.529,-0.893l1.647,-0.653l1.725,-0.397l1.766,-0.132Z" style="fill:#38393a;"/><rect x="197.672" y="417" width="69" height="26" style="fill:#38393a;"/><rect x="391.672" y="500" width="13" height="50" style="fill:#9a9a9a;"/><circle cx="69.5" cy="570.5" r="45.5" style="fill:#9e9d9d;"/><path d="M69.794,525.001l0.294,0.003l0.293,0.004l0.293,0.007l0.292,0.008l0.292,0.01l0.291,0.012l0.291,0.014l0.29,0.016l0.29,0.017l0.29,0.02l0.289,0.021l0.288,0.023l0.288,0.024l0.287,0.027l0.287,0.028l0.287,0.03l0.286,0.032l0.285,0.034l0.285,0.035l0.284,0.037l0.284,0.039l0.283,0.04l0.282,0.043l0.282,0.044l0.282,0.045l0.281,0.048l0.28,0.049l0.28,0.051l0.279,0.053l0.278,0.054l0.278,0.056l0.277,0.058l0.277,0.059l0.276,0.061l0.275,0.063l0.275,0.064l0.274,0.066l0.274,0.068l0.273,0.07l0.272,0.071l0.271,0.072l0.271,0.074l0.27,0.076l0.27,0.078l0.269,0.079l0.268,0.081l0.267,0.082l0.267,0.084l0.266,0.086l0.265,0.087l0.265,0.088l0.264,0.091l0.263,0.091l0.262,0.094l0.262,0.095l0.261,0.096l0.26,0.098l0.259,0.1l0.259,0.101l0.258,0.103l0.257,0.104l0.256,0.106l0.256,0.107l0.254,0.109l0.254,0.11l0.253,0.112l0.253,0.113l0.251,0.115l0.251,0.116l0.25,0.118l0.249,0.119l0.248,0.12l0.247,0.122l0.247,0.124l0.246,0.125l0.244,0.126l0.244,0.128l0.243,0.129l0.243,0.131l0.241,0.132l0.24,0.134l0.24,0.135l0.238,0.136l0.238,0.138l0.237,0.139l0.236,0.14l0.235,0.142l0.234,0.143l0.233,0.145l0.232,0.146l0.232,0.147l0.23,0.149l0.229,0.15l0.229,0.151l0.227,0.153l0.227,0.154l0.225,0.156l0.225,0.156l0.223,0.158l0.223,0.16l0.221,0.16l0.221,0.162l0.219,0.163l0.219,0.165l0.217,0.165l0.217,0.167l0.215,0.169l0.214,0.169l0.214,0.171l0.212,0.172l0.211,0.173l0.21,0.175l0.21,0.176l0.208,0.177l0.207,0.178l0.205,0.179l0.205,0.181l0.204,0.182l0.202,0.183l0.202,0.184l0.2,0.186l0.2,0.186l0.198,0.188l0.197,0.189l0.196,0.19l0.194,0.191l0.194,0.193l0.193,0.194l0.191,0.194l0.19,0.196l0.189,0.197l0.188,0.198l0.186,0.2l0.186,0.2l0.184,0.202l0.183,0.202l0.182,0.204l0.181,0.205l0.179,0.205l0.178,0.207l0.177,0.208l0.176,0.21l0.175,0.21l0.173,0.211l0.172,0.212l0.171,0.214l0.169,0.214l0.169,0.215l0.167,0.217l0.165,0.217l0.165,0.219l0.163,0.219l0.162,0.221l0.16,0.221l0.16,0.223l0.158,0.223l0.156,0.225l0.156,0.225l0.154,0.227l0.153,0.227l0.151,0.229l0.15,0.229l0.149,0.23l0.147,0.232l0.146,0.232l0.145,0.233l0.143,0.234l0.142,0.235l0.14,0.236l0.139,0.237l0.138,0.238l0.136,0.238l0.135,0.24l0.134,0.24l0.132,0.241l0.131,0.243l0.129,0.243l0.128,0.244l0.126,0.244l0.125,0.246l0.124,0.247l0.122,0.247l0.12,0.248l0.119,0.249l0.118,0.25l0.116,0.251l0.115,0.251l0.113,0.253l0.112,0.253l0.11,0.254l0.109,0.254l0.107,0.256l0.106,0.256l0.104,0.257l0.103,0.258l0.101,0.259l0.1,0.259l0.098,0.26l0.096,0.261l0.095,0.262l0.094,0.262l0.091,0.263l0.091,0.264l0.088,0.265l0.087,0.265l0.086,0.266l0.084,0.267l0.082,0.267l0.081,0.268l0.079,0.269l0.078,0.27l0.076,0.27l0.074,0.271l0.072,0.271l0.071,0.272l0.07,0.273l0.068,0.274l0.066,0.274l0.064,0.275l0.063,0.275l0.061,0.276l0.059,0.277l0.058,0.277l0.056,0.278l0.054,0.278l0.053,0.279l0.051,0.28l0.049,0.28l0.048,0.281l0.045,0.282l0.044,0.282l0.043,0.282l0.04,0.283l0.039,0.284l0.037,0.284l0.035,0.285l0.034,0.285l0.032,0.286l0.03,0.287l0.028,0.287l0.027,0.287l0.024,0.288l0.023,0.288l0.021,0.289l0.02,0.29l0.017,0.29l0.016,0.29l0.014,0.291l0.012,0.291l0.01,0.292l0.008,0.292l0.007,0.293l0.004,0.293l0.003,0.294l0.001,0.294l-0.001,0.294l-0.003,0.294l-0.004,0.293l-0.007,0.293l-0.008,0.292l-0.01,0.292l-0.012,0.291l-0.014,0.291l-0.016,0.29l-0.017,0.29l-0.02,0.29l-0.021,0.289l-0.023,0.288l-0.024,0.288l-0.027,0.287l-0.028,0.287l-0.03,0.287l-0.032,0.286l-0.034,0.285l-0.035,0.285l-0.037,0.284l-0.039,0.284l-0.04,0.283l-0.043,0.282l-0.044,0.282l-0.045,0.282l-0.048,0.281l-0.049,0.28l-0.051,0.28l-0.053,0.279l-0.054,0.278l-0.056,0.278l-0.058,0.277l-0.059,0.277l-0.061,0.276l-0.063,0.275l-0.064,0.275l-0.066,0.274l-0.068,0.274l-0.07,0.273l-0.071,0.272l-0.072,0.271l-0.074,0.271l-0.076,0.27l-0.078,0.27l-0.079,0.269l-0.081,0.268l-0.082,0.267l-0.084,0.267l-0.086,0.266l-0.087,0.265l-0.088,0.265l-0.091,0.264l-0.091,0.263l-0.094,0.262l-0.095,0.262l-0.096,0.261l-0.098,0.26l-0.1,0.259l-0.101,0.259l-0.103,0.258l-0.104,0.257l-0.106,0.256l-0.107,0.256l-0.109,0.254l-0.11,0.254l-0.112,0.253l-0.113,0.253l-0.115,0.251l-0.116,0.251l-0.118,0.25l-0.119,0.249l-0.12,0.248l-0.122,0.247l-0.124,0.247l-0.125,0.246l-0.126,0.244l-0.128,0.244l-0.129,0.243l-0.131,0.243l-0.132,0.241l-0.134,0.24l-0.135,0.24l-0.136,0.238l-0.138,0.238l-0.139,0.237l-0.14,0.236l-0.142,0.235l-0.143,0.234l-0.145,0.233l-0.146,0.232l-0.147,0.232l-0.149,0.23l-0.15,0.229l-0.151,0.229l-0.153,0.227l-0.154,0.227l-0.156,0.225l-0.156,0.225l-0.158,0.223l-0.16,0.223l-0.16,0.221l-0.162,0.221l-0.163,0.219l-0.165,0.219l-0.165,0.217l-0.167,0.217l-0.169,0.215l-0.169,0.214l-0.171,0.214l-0.172,0.212l-0.173,0.211l-0.175,0.21l-0.176,0.21l-0.177,0.208l-0.178,0.207l-0.179,0.205l-0.181,0.205l-0.182,0.204l-0.183,0.202l-0.184,0.202l-0.186,0.2l-0.186,0.2l-0.188,0.198l-0.189,0.197l-0.19,0.196l-0.191,0.194l-0.193,0.194l-0.194,0.193l-0.194,0.191l-0.196,0.19l-0.197,0.189l-0.198,0.188l-0.2,0.186l-0.2,0.186l-0.202,0.184l-0.202,0.183l-0.204,0.182l-0.205,0.181l-0.205,0.179l-0.207,0.178l-0.208,0.177l-0.21,0.176l-0.21,0.175l-0.211,0.173l-0.212,0.172l-0.214,0.171l-0.214,0.169l-0.215,0.169l-0.217,0.167l-0.217,0.165l-0.219,0.165l-0.219,0.163l-0.221,0.162l-0.221,0.16l-0.223,0.16l-0.223,0.158l-0.225,0.156l-0.225,0.156l-0.227,0.154l-0.227,0.153l-0.229,0.151l-0.229,0.15l-0.23,0.149l-0.232,0.147l-0.232,0.146l-0.233,0.145l-0.234,0.143l-0.235,0.142l-0.236,0.14l-0.237,0.139l-0.238,0.138l-0.238,0.136l-0.24,0.135l-0.24,0.134l-0.241,0.132l-0.243,0.131l-0.243,0.129l-0.244,0.128l-0.244,0.126l-0.246,0.125l-0.247,0.124l-0.247,0.122l-0.248,0.12l-0.249,0.119l-0.25,0.118l-0.251,0.116l-0.251,0.115l-0.253,0.113l-0.253,0.112l-0.254,0.11l-0.254,0.109l-0.256,0.107l-0.256,0.106l-0.257,0.104l-0.258,0.103l-0.259,0.101l-0.259,0.1l-0.26,0.098l-0.261,0.096l-0.262,0.095l-0.262,0.094l-0.263,0.091l-0.264,0.091l-0.265,0.088l-0.265,0.087l-0.266,0.086l-0.267,0.084l-0.267,0.082l-0.268,0.081l-0.269,0.079l-0.27,0.078l-0.27,0.076l-0.271,0.074l-0.271,0.072l-0.272,0.071l-0.273,0.07l-0.274,0.068l-0.274,0.066l-0.275,0.064l-0.275,0.063l-0.276,0.061l-0.277,0.059l-0.277,0.058l-0.278,0.056l-0.278,0.054l-0.279,0.053l-0.28,0.051l-0.28,0.049l-0.281,0.048l-0.282,0.045l-0.282,0.044l-0.282,0.043l-0.283,0.04l-0.284,0.039l-0.284,0.037l-0.285,0.035l-0.285,0.034l-0.286,0.032l-0.287,0.03l-0.287,0.028l-0.287,0.027l-0.288,0.024l-0.288,0.023l-0.289,0.021l-0.29,0.02l-0.29,0.017l-0.29,0.016l-0.291,0.014l-0.291,0.012l-0.292,0.01l-0.292,0.008l-0.293,0.007l-0.293,0.004l-0.294,0.003l-0.294,0.001l-0.294,-0.001l-0.294,-0.003l-0.293,-0.004l-0.293,-0.007l-0.292,-0.008l-0.292,-0.01l-0.291,-0.012l-0.291,-0.014l-0.29,-0.016l-0.29,-0.017l-0.29,-0.02l-0.289,-0.021l-0.288,-0.023l-0.288,-0.024l-0.287,-0.027l-0.287,-0.028l-0.287,-0.03l-0.286,-0.032l-0.285,-0.034l-0.285,-0.035l-0.284,-0.037l-0.284,-0.039l-0.283,-0.04l-0.282,-0.043l-0.282,-0.044l-0.282,-0.045l-0.281,-0.048l-0.28,-0.049l-0.28,-0.051l-0.279,-0.053l-0.278,-0.054l-0.278,-0.056l-0.277,-0.058l-0.277,-0.059l-0.276,-0.061l-0.275,-0.063l-0.275,-0.064l-0.274,-0.066l-0.274,-0.068l-0.273,-0.07l-0.272,-0.071l-0.271,-0.072l-0.271,-0.074l-0.27,-0.076l-0.27,-0.078l-0.269,-0.079l-0.268,-0.081l-0.267,-0.082l-0.267,-0.084l-0.266,-0.086l-0.265,-0.087l-0.265,-0.088l-0.264,-0.091l-0.263,-0.091l-0.262,-0.094l-0.262,-0.095l-0.261,-0.096l-0.26,-0.098l-0.259,-0.1l-0.259,-0.101l-0.258,-0.103l-0.257,-0.104l-0.256,-0.106l-0.256,-0.107l-0.254,-0.109l-0.254,-0.11l-0.253,-0.112l-0.253,-0.113l-0.251,-0.115l-0.251,-0.116l-0.25,-0.118l-0.249,-0.119l-0.248,-0.12l-0.247,-0.122l-0.247,-0.124l-0.246,-0.125l-0.244,-0.126l-0.244,-0.128l-0.243,-0.129l-0.243,-0.131l-0.241,-0.132l-0.24,-0.134l-0.24,-0.135l-0.238,-0.136l-0.238,-0.138l-0.237,-0.139l-0.236,-0.14l-0.235,-0.142l-0.234,-0.143l-0.233,-0.145l-0.232,-0.146l-0.232,-0.147l-0.23,-0.149l-0.229,-0.15l-0.229,-0.151l-0.227,-0.153l-0.227,-0.154l-0.225,-0.156l-0.225,-0.156l-0.223,-0.158l-0.223,-0.16l-0.221,-0.16l-0.221,-0.162l-0.219,-0.163l-0.219,-0.165l-0.217,-0.165l-0.217,-0.167l-0.215,-0.169l-0.214,-0.169l-0.214,-0.171l-0.212,-0.172l-0.211,-0.173l-0.21,-0.175l-0.21,-0.176l-0.208,-0.177l-0.207,-0.178l-0.205,-0.179l-0.205,-0.181l-0.204,-0.182l-0.202,-0.183l-0.202,-0.184l-0.2,-0.186l-0.2,-0.186l-0.198,-0.188l-0.197,-0.189l-0.196,-0.19l-0.194,-0.191l-0.194,-0.193l-0.193,-0.194l-0.191,-0.194l-0.19,-0.196l-0.189,-0.197l-0.188,-0.198l-0.186,-0.2l-0.186,-0.2l-0.184,-0.202l-0.183,-0.202l-0.182,-0.204l-0.181,-0.205l-0.179,-0.205l-0.178,-0.207l-0.177,-0.208l-0.176,-0.21l-0.175,-0.21l-0.173,-0.211l-0.172,-0.212l-0.171,-0.214l-0.169,-0.214l-0.169,-0.215l-0.167,-0.217l-0.165,-0.217l-0.165,-0.219l-0.163,-0.219l-0.162,-0.221l-0.16,-0.221l-0.16,-0.223l-0.158,-0.223l-0.156,-0.225l-0.156,-0.225l-0.154,-0.227l-0.153,-0.227l-0.151,-0.229l-0.15,-0.229l-0.149,-0.23l-0.147,-0.232l-0.146,-0.232l-0.145,-0.233l-0.143,-0.234l-0.142,-0.235l-0.14,-0.236l-0.139,-0.237l-0.138,-0.238l-0.136,-0.238l-0.135,-0.24l-0.134,-0.24l-0.132,-0.241l-0.131,-0.243l-0.129,-0.243l-0.128,-0.244l-0.126,-0.244l-0.125,-0.246l-0.124,-0.247l-0.122,-0.247l-0.12,-0.248l-0.119,-0.249l-0.118,-0.25l-0.116,-0.251l-0.115,-0.251l-0.113,-0.253l-0.112,-0.253l-0.11,-0.254l-0.109,-0.254l-0.107,-0.256l-0.106,-0.256l-0.104,-0.257l-0.103,-0.258l-0.101,-0.259l-0.1,-0.259l-0.098,-0.26l-0.096,-0.261l-0.095,-0.262l-0.094,-0.262l-0.091,-0.263l-0.091,-0.264l-0.088,-0.265l-0.087,-0.265l-0.086,-0.266l-0.084,-0.267l-0.082,-0.267l-0.081,-0.268l-0.079,-0.269l-0.078,-0.27l-0.076,-0.27l-0.074,-0.271l-0.072,-0.271l-0.071,-0.272l-0.07,-0.273l-0.068,-0.274l-0.066,-0.274l-0.064,-0.275l-0.063,-0.275l-0.061,-0.276l-0.059,-0.277l-0.058,-0.277l-0.056,-0.278l-0.054,-0.278l-0.053,-0.279l-0.051,-0.28l-0.049,-0.28l-0.048,-0.281l-0.045,-0.282l-0.044,-0.282l-0.043,-0.282l-0.04,-0.283l-0.039,-0.284l-0.037,-0.284l-0.035,-0.285l-0.034,-0.285l-0.032,-0.286l-0.03,-0.287l-0.028,-0.287l-0.027,-0.287l-0.024,-0.288l-0.023,-0.288l-0.021,-0.289l-0.02,-0.29l-0.017,-0.29l-0.016,-0.29l-0.014,-0.291l-0.012,-0.291l-0.01,-0.292l-0.008,-0.292l-0.007,-0.293l-0.004,-0.293l-0.003,-0.294l-0.001,-0.294l0.001,-0.294l0.003,-0.294l0.004,-0.293l0.007,-0.293l0.008,-0.292l0.01,-0.292l0.012,-0.291l0.014,-0.291l0.016,-0.29l0.017,-0.29l0.02,-0.29l0.021,-0.289l0.023,-0.288l0.024,-0.288l0.027,-0.287l0.028,-0.287l0.03,-0.287l0.032,-0.286l0.034,-0.285l0.035,-0.285l0.037,-0.284l0.039,-0.284l0.04,-0.283l0.043,-0.282l0.044,-0.282l0.045,-0.282l0.048,-0.281l0.049,-0.28l0.051,-0.28l0.053,-0.279l0.054,-0.278l0.056,-0.278l0.058,-0.277l0.059,-0.277l0.061,-0.276l0.063,-0.275l0.064,-0.275l0.066,-0.274l0.068,-0.274l0.07,-0.273l0.071,-0.272l0.072,-0.271l0.074,-0.271l0.076,-0.27l0.078,-0.27l0.079,-0.269l0.081,-0.268l0.082,-0.267l0.084,-0.267l0.086,-0.266l0.087,-0.265l0.088,-0.265l0.091,-0.264l0.091,-0.263l0.094,-0.262l0.095,-0.262l0.096,-0.261l0.098,-0.26l0.1,-0.259l0.101,-0.259l0.103,-0.258l0.104,-0.257l0.106,-0.256l0.107,-0.256l0.109,-0.254l0.11,-0.254l0.112,-0.253l0.113,-0.253l0.115,-0.251l0.116,-0.251l0.118,-0.25l0.119,-0.249l0.12,-0.248l0.122,-0.247l0.124,-0.247l0.125,-0.246l0.126,-0.244l0.128,-0.244l0.129,-0.243l0.131,-0.243l0.132,-0.241l0.134,-0.24l0.135,-0.24l0.136,-0.238l0.138,-0.238l0.139,-0.237l0.14,-0.236l0.142,-0.235l0.143,-0.234l0.145,-0.233l0.146,-0.232l0.147,-0.232l0.149,-0.23l0.15,-0.229l0.151,-0.229l0.153,-0.227l0.154,-0.227l0.156,-0.225l0.156,-0.225l0.158,-0.223l0.16,-0.223l0.16,-0.221l0.162,-0.221l0.163,-0.219l0.165,-0.219l0.165,-0.217l0.167,-0.217l0.169,-0.215l0.169,-0.214l0.171,-0.214l0.172,-0.212l0.173,-0.211l0.175,-0.21l0.176,-0.21l0.177,-0.208l0.178,-0.207l0.179,-0.205l0.181,-0.205l0.182,-0.204l0.183,-0.202l0.184,-0.202l0.186,-0.2l0.186,-0.2l0.188,-0.198l0.189,-0.197l0.19,-0.196l0.191,-0.194l0.193,-0.194l0.194,-0.193l0.194,-0.191l0.196,-0.19l0.197,-0.189l0.198,-0.188l0.2,-0.186l0.2,-0.186l0.202,-0.184l0.202,-0.183l0.204,-0.182l0.205,-0.181l0.205,-0.179l0.207,-0.178l0.208,-0.177l0.21,-0.176l0.21,-0.175l0.211,-0.173l0.212,-0.172l0.214,-0.171l0.214,-0.169l0.215,-0.169l0.217,-0.167l0.217,-0.165l0.219,-0.165l0.219,-0.163l0.221,-0.162l0.221,-0.16l0.223,-0.16l0.223,-0.158l0.225,-0.156l0.225,-0.156l0.227,-0.154l0.227,-0.153l0.229,-0.151l0.229,-0.15l0.23,-0.149l0.232,-0.147l0.232,-0.146l0.233,-0.145l0.234,-0.143l0.235,-0.142l0.236,-0.14l0.237,-0.139l0.238,-0.138l0.238,-0.136l0.24,-0.135l0.24,-0.134l0.241,-0.132l0.243,-0.131l0.243,-0.129l0.244,-0.128l0.244,-0.126l0.246,-0.125l0.247,-0.124l0.247,-0.122l0.248,-0.12l0.249,-0.119l0.25,-0.118l0.251,-0.116l0.251,-0.115l0.253,-0.113l0.253,-0.112l0.254,-0.11l0.254,-0.109l0.256,-0.107l0.256,-0.106l0.257,-0.104l0.258,-0.103l0.259,-0.101l0.259,-0.1l0.26,-0.098l0.261,-0.096l0.262,-0.095l0.262,-0.094l0.263,-0.091l0.264,-0.091l0.265,-0.088l0.265,-0.087l0.266,-0.086l0.267,-0.084l0.267,-0.082l0.268,-0.081l0.269,-0.079l0.27,-0.078l0.27,-0.076l0.271,-0.074l0.271,-0.072l0.272,-0.071l0.273,-0.07l0.274,-0.068l0.274,-0.066l0.275,-0.064l0.275,-0.063l0.276,-0.061l0.277,-0.059l0.277,-0.058l0.278,-0.056l0.278,-0.054l0.279,-0.053l0.28,-0.051l0.28,-0.049l0.281,-0.048l0.282,-0.045l0.282,-0.044l0.282,-0.043l0.283,-0.04l0.284,-0.039l0.284,-0.037l0.285,-0.035l0.285,-0.034l0.286,-0.032l0.287,-0.03l0.287,-0.028l0.287,-0.027l0.288,-0.024l0.288,-0.023l0.289,-0.021l0.29,-0.02l0.29,-0.017l0.29,-0.016l0.291,-0.014l0.291,-0.012l0.292,-0.01l0.292,-0.008l0.293,-0.007l0.293,-0.004l0.294,-0.003l0.294,-0.001l0.294,0.001Zm-0.514,11.679l-0.22,0.002l-0.219,0.004l-0.218,0.005l-0.219,0.007l-0.217,0.008l-0.218,0.009l-0.217,0.011l-0.216,0.012l-0.216,0.013l-0.216,0.015l-0.215,0.016l-0.215,0.017l-0.214,0.019l-0.214,0.02l-0.213,0.021l-0.213,0.023l-0.213,0.024l-0.212,0.025l-0.211,0.027l-0.211,0.028l-0.211,0.029l-0.21,0.03l-0.21,0.032l-0.209,0.033l-0.209,0.034l-0.208,0.036l-0.208,0.037l-0.208,0.038l-0.207,0.039l-0.206,0.041l-0.206,0.042l-0.206,0.043l-0.205,0.044l-0.204,0.046l-0.204,0.046l-0.204,0.048l-0.203,0.05l-0.202,0.05l-0.203,0.052l-0.201,0.053l-0.201,0.054l-0.201,0.055l-0.2,0.057l-0.199,0.058l-0.199,0.058l-0.199,0.061l-0.198,0.061l-0.197,0.062l-0.197,0.064l-0.197,0.065l-0.196,0.066l-0.195,0.067l-0.195,0.068l-0.194,0.07l-0.194,0.071l-0.193,0.071l-0.193,0.073l-0.192,0.074l-0.192,0.076l-0.191,0.076l-0.19,0.078l-0.19,0.078l-0.189,0.08l-0.189,0.081l-0.188,0.082l-0.188,0.083l-0.187,0.084l-0.186,0.086l-0.186,0.086l-0.185,0.088l-0.185,0.088l-0.184,0.09l-0.183,0.091l-0.183,0.092l-0.182,0.093l-0.181,0.094l-0.181,0.095l-0.181,0.096l-0.179,0.098l-0.179,0.098l-0.179,0.099l-0.177,0.101l-0.177,0.101l-0.177,0.103l-0.175,0.103l-0.176,0.105l-0.174,0.106l-0.174,0.106l-0.173,0.108l-0.172,0.109l-0.172,0.11l-0.171,0.11l-0.17,0.112l-0.17,0.113l-0.169,0.114l-0.168,0.114l-0.167,0.116l-0.167,0.117l-0.166,0.118l-0.165,0.118l-0.165,0.12l-0.164,0.121l-0.163,0.121l-0.162,0.123l-0.162,0.123l-0.161,0.125l-0.16,0.125l-0.159,0.127l-0.159,0.127l-0.157,0.128l-0.157,0.13l-0.156,0.13l-0.156,0.131l-0.155,0.132l-0.153,0.133l-0.153,0.133l-0.153,0.135l-0.151,0.136l-0.151,0.136l-0.149,0.137l-0.149,0.139l-0.148,0.139l-0.148,0.14l-0.146,0.141l-0.146,0.142l-0.144,0.142l-0.144,0.144l-0.143,0.144l-0.143,0.145l-0.141,0.146l-0.14,0.147l-0.14,0.148l-0.139,0.148l-0.137,0.15l-0.137,0.15l-0.136,0.151l-0.135,0.151l-0.135,0.153l-0.133,0.153l-0.132,0.155l-0.132,0.155l-0.13,0.155l-0.13,0.157l-0.129,0.157l-0.127,0.158l-0.127,0.159l-0.126,0.16l-0.125,0.16l-0.124,0.161l-0.123,0.162l-0.122,0.163l-0.121,0.163l-0.12,0.165l-0.119,0.164l-0.118,0.166l-0.118,0.166l-0.116,0.167l-0.115,0.168l-0.114,0.168l-0.113,0.17l-0.112,0.169l-0.112,0.171l-0.11,0.171l-0.109,0.172l-0.108,0.173l-0.107,0.173l-0.106,0.174l-0.105,0.174l-0.104,0.176l-0.103,0.176l-0.102,0.176l-0.101,0.177l-0.1,0.178l-0.099,0.179l-0.098,0.179l-0.096,0.18l-0.096,0.18l-0.094,0.181l-0.094,0.182l-0.092,0.182l-0.091,0.183l-0.091,0.183l-0.089,0.184l-0.088,0.185l-0.087,0.185l-0.085,0.186l-0.085,0.187l-0.084,0.187l-0.082,0.187l-0.081,0.188l-0.081,0.189l-0.079,0.189l-0.078,0.19l-0.077,0.191l-0.075,0.191l-0.075,0.191l-0.073,0.192l-0.073,0.193l-0.071,0.193l-0.07,0.194l-0.069,0.194l-0.067,0.195l-0.067,0.195l-0.065,0.196l-0.064,0.196l-0.063,0.197l-0.062,0.198l-0.061,0.198l-0.059,0.198l-0.058,0.199l-0.057,0.199l-0.056,0.2l-0.055,0.201l-0.053,0.201l-0.052,0.201l-0.051,0.202l-0.05,0.202l-0.049,0.203l-0.047,0.204l-0.046,0.203l-0.045,0.205l-0.044,0.205l-0.042,0.205l-0.041,0.206l-0.04,0.206l-0.039,0.206l-0.037,0.208l-0.036,0.207l-0.035,0.208l-0.034,0.209l-0.032,0.209l-0.031,0.209l-0.03,0.21l-0.028,0.21l-0.027,0.211l-0.026,0.211l-0.025,0.212l-0.023,0.212l-0.022,0.213l-0.021,0.213l-0.019,0.213l-0.018,0.214l-0.017,0.214l-0.015,0.215l-0.014,0.215l-0.013,0.216l-0.011,0.216l-0.01,0.217l-0.009,0.216l-0.007,0.218l-0.006,0.218l-0.004,0.218l-0.004,0.218l-0.001,0.22l-0.001,0.219l0.001,0.219l0.003,0.22l0.003,0.218l0.006,0.218l0.006,0.218l0.008,0.217l0.009,0.217l0.011,0.217l0.012,0.216l0.013,0.215l0.015,0.215l0.016,0.215l0.017,0.214l0.019,0.214l0.02,0.213l0.021,0.213l0.023,0.213l0.024,0.212l0.025,0.211l0.026,0.211l0.028,0.211l0.029,0.21l0.031,0.21l0.031,0.209l0.033,0.209l0.035,0.208l0.035,0.208l0.037,0.207l0.038,0.207l0.039,0.207l0.041,0.206l0.041,0.205l0.043,0.205l0.044,0.205l0.046,0.204l0.047,0.203l0.048,0.203l0.049,0.203l0.05,0.202l0.052,0.202l0.052,0.201l0.054,0.2l0.056,0.2l0.056,0.2l0.058,0.199l0.058,0.199l0.06,0.198l0.062,0.197l0.062,0.197l0.063,0.197l0.065,0.196l0.066,0.195l0.067,0.195l0.068,0.194l0.069,0.194l0.071,0.194l0.072,0.192l0.072,0.192l0.074,0.192l0.075,0.191l0.077,0.191l0.077,0.19l0.078,0.189l0.08,0.189l0.081,0.188l0.081,0.188l0.083,0.187l0.084,0.187l0.086,0.186l0.086,0.185l0.087,0.185l0.089,0.184l0.089,0.183l0.091,0.183l0.091,0.183l0.093,0.181l0.094,0.181l0.095,0.181l0.096,0.18l0.097,0.179l0.098,0.178l0.099,0.178l0.101,0.178l0.101,0.176l0.102,0.176l0.103,0.176l0.105,0.174l0.105,0.174l0.107,0.174l0.107,0.172l0.109,0.172l0.109,0.171l0.111,0.171l0.111,0.17l0.113,0.169l0.113,0.169l0.115,0.167l0.115,0.167l0.117,0.167l0.117,0.165l0.119,0.165l0.119,0.165l0.12,0.163l0.122,0.163l0.122,0.162l0.123,0.161l0.124,0.16l0.126,0.16l0.126,0.159l0.127,0.158l0.128,0.158l0.128,0.156l0.13,0.156l0.131,0.155l0.132,0.154l0.132,0.154l0.134,0.152l0.134,0.152l0.135,0.151l0.137,0.151l0.137,0.149l0.137,0.149l0.139,0.147l0.14,0.147l0.141,0.146l0.141,0.146l0.142,0.144l0.143,0.144l0.144,0.142l0.145,0.142l0.146,0.141l0.146,0.14l0.148,0.139l0.148,0.139l0.149,0.137l0.15,0.137l0.15,0.136l0.152,0.134l0.152,0.134l0.153,0.133l0.154,0.132l0.154,0.131l0.156,0.131l0.156,0.129l0.157,0.128l0.158,0.128l0.158,0.126l0.16,0.126l0.16,0.124l0.16,0.124l0.162,0.123l0.162,0.122l0.163,0.12l0.164,0.12l0.164,0.119l0.165,0.118l0.166,0.117l0.167,0.116l0.167,0.115l0.168,0.114l0.169,0.113l0.17,0.111l0.17,0.111l0.17,0.11l0.172,0.109l0.172,0.108l0.173,0.107l0.174,0.106l0.174,0.105l0.175,0.103l0.175,0.103l0.176,0.102l0.177,0.1l0.177,0.1l0.178,0.099l0.179,0.097l0.18,0.096l0.18,0.096l0.18,0.094l0.181,0.093l0.182,0.092l0.183,0.091l0.183,0.09l0.183,0.089l0.184,0.088l0.185,0.087l0.186,0.085l0.186,0.085l0.186,0.083l0.187,0.083l0.188,0.081l0.188,0.08l0.189,0.079l0.19,0.077l0.19,0.077l0.19,0.076l0.191,0.074l0.192,0.073l0.192,0.072l0.193,0.071l0.193,0.07l0.194,0.069l0.194,0.067l0.195,0.067l0.195,0.065l0.196,0.064l0.197,0.063l0.197,0.061l0.197,0.061l0.198,0.059l0.198,0.058l0.199,0.057l0.2,0.056l0.2,0.054l0.2,0.054l0.201,0.052l0.201,0.05l0.202,0.05l0.203,0.049l0.203,0.047l0.203,0.046l0.204,0.045l0.204,0.043l0.205,0.042l0.205,0.041l0.206,0.04l0.206,0.039l0.207,0.037l0.207,0.036l0.207,0.035l0.208,0.033l0.209,0.033l0.209,0.031l0.209,0.029l0.21,0.029l0.21,0.027l0.211,0.026l0.211,0.024l0.212,0.023l0.212,0.022l0.212,0.021l0.213,0.019l0.214,0.018l0.214,0.017l0.214,0.015l0.214,0.014l0.216,0.013l0.215,0.011l0.216,0.01l0.217,0.009l0.216,0.007l0.218,0.006l0.217,0.004l0.218,0.003l0.219,0.002l0.219,0l0.219,-0.001l0.219,-0.002l0.218,-0.004l0.217,-0.005l0.218,-0.006l0.216,-0.008l0.217,-0.01l0.216,-0.01l0.215,-0.012l0.215,-0.013l0.215,-0.015l0.214,-0.016l0.214,-0.017l0.213,-0.019l0.213,-0.02l0.212,-0.021l0.212,-0.023l0.211,-0.023l0.211,-0.026l0.211,-0.026l0.21,-0.028l0.21,-0.029l0.209,-0.03l0.209,-0.032l0.208,-0.033l0.208,-0.034l0.207,-0.035l0.207,-0.037l0.207,-0.038l0.205,-0.039l0.206,-0.04l0.205,-0.042l0.204,-0.043l0.204,-0.044l0.204,-0.045l0.203,-0.047l0.203,-0.048l0.202,-0.049l0.201,-0.05l0.201,-0.051l0.201,-0.053l0.2,-0.054l0.2,-0.055l0.199,-0.056l0.199,-0.058l0.198,-0.058l0.197,-0.06l0.197,-0.061l0.197,-0.062l0.196,-0.064l0.195,-0.064l0.195,-0.066l0.195,-0.067l0.194,-0.068l0.193,-0.069l0.193,-0.07l0.192,-0.072l0.192,-0.072l0.191,-0.074l0.191,-0.075l0.19,-0.076l0.189,-0.077l0.189,-0.078l0.189,-0.08l0.188,-0.08l0.187,-0.082l0.186,-0.083l0.186,-0.084l0.186,-0.085l0.185,-0.086l0.184,-0.087l0.184,-0.088l0.183,-0.089l0.183,-0.091l0.181,-0.091l0.182,-0.093l0.18,-0.093l0.18,-0.095l0.18,-0.096l0.179,-0.097l0.178,-0.097l0.177,-0.099l0.177,-0.1l0.176,-0.101l0.176,-0.102l0.175,-0.104l0.174,-0.104l0.174,-0.105l0.172,-0.106l0.173,-0.107l0.171,-0.108l0.171,-0.11l0.17,-0.11l0.17,-0.111l0.169,-0.112l0.168,-0.114l0.167,-0.114l0.167,-0.115l0.166,-0.116l0.165,-0.117l0.164,-0.119l0.164,-0.119l0.163,-0.12l0.163,-0.121l0.161,-0.122l0.161,-0.123l0.16,-0.124l0.159,-0.125l0.159,-0.125l0.158,-0.127l0.157,-0.128l0.156,-0.128l0.156,-0.13l0.154,-0.13l0.154,-0.132l0.153,-0.132l0.153,-0.133l0.151,-0.134l0.151,-0.135l0.15,-0.136l0.149,-0.137l0.148,-0.137l0.147,-0.139l0.147,-0.139l0.146,-0.14l0.145,-0.141l0.144,-0.142l0.143,-0.143l0.142,-0.144l0.142,-0.144l0.14,-0.146l0.14,-0.146l0.139,-0.147l0.138,-0.148l0.137,-0.148l0.136,-0.15l0.136,-0.15l0.134,-0.151l0.134,-0.152l0.133,-0.153l0.131,-0.153l0.131,-0.154l0.13,-0.155l0.129,-0.156l0.128,-0.157l0.127,-0.157l0.126,-0.158l0.126,-0.159l0.124,-0.16l0.123,-0.16l0.123,-0.161l0.121,-0.162l0.121,-0.163l0.119,-0.163l0.119,-0.164l0.118,-0.165l0.116,-0.166l0.116,-0.166l0.114,-0.167l0.114,-0.167l0.113,-0.169l0.111,-0.169l0.111,-0.169l0.11,-0.171l0.108,-0.171l0.108,-0.172l0.107,-0.172l0.105,-0.173l0.105,-0.174l0.103,-0.174l0.103,-0.175l0.101,-0.176l0.101,-0.177l0.099,-0.177l0.098,-0.177l0.097,-0.179l0.097,-0.178l0.095,-0.18l0.094,-0.18l0.093,-0.181l0.092,-0.181l0.091,-0.182l0.089,-0.183l0.089,-0.183l0.088,-0.184l0.086,-0.184l0.085,-0.185l0.085,-0.186l0.083,-0.186l0.082,-0.187l0.081,-0.187l0.08,-0.188l0.079,-0.188l0.077,-0.189l0.077,-0.19l0.075,-0.19l0.074,-0.19l0.073,-0.191l0.072,-0.192l0.071,-0.192l0.07,-0.193l0.068,-0.193l0.067,-0.194l0.067,-0.195l0.065,-0.195l0.063,-0.195l0.063,-0.196l0.062,-0.196l0.06,-0.197l0.059,-0.198l0.058,-0.198l0.057,-0.198l0.055,-0.199l0.055,-0.2l0.053,-0.2l0.052,-0.2l0.051,-0.201l0.049,-0.201l0.049,-0.202l0.047,-0.203l0.045,-0.203l0.045,-0.203l0.044,-0.204l0.042,-0.204l0.041,-0.205l0.039,-0.205l0.039,-0.206l0.037,-0.206l0.036,-0.206l0.035,-0.207l0.033,-0.208l0.032,-0.208l0.031,-0.208l0.03,-0.209l0.028,-0.21l0.027,-0.209l0.026,-0.211l0.024,-0.21l0.024,-0.211l0.021,-0.212l0.021,-0.212l0.019,-0.212l0.018,-0.213l0.017,-0.214l0.015,-0.213l0.014,-0.215l0.013,-0.214l0.011,-0.215l0.01,-0.216l0.008,-0.216l0.008,-0.216l0.005,-0.217l0.005,-0.217l0.003,-0.217l0.002,-0.219l0,-0.218l-0.001,-0.218l-0.002,-0.219l-0.004,-0.217l-0.005,-0.217l-0.007,-0.217l-0.008,-0.216l-0.009,-0.216l-0.01,-0.216l-0.012,-0.215l-0.014,-0.214l-0.014,-0.214l-0.016,-0.214l-0.017,-0.213l-0.019,-0.213l-0.02,-0.212l-0.021,-0.212l-0.022,-0.211l-0.024,-0.211l-0.025,-0.211l-0.027,-0.21l-0.027,-0.21l-0.029,-0.209l-0.031,-0.208l-0.031,-0.209l-0.033,-0.207l-0.034,-0.208l-0.035,-0.207l-0.037,-0.206l-0.038,-0.206l-0.039,-0.205l-0.04,-0.205l-0.042,-0.205l-0.042,-0.204l-0.044,-0.203l-0.046,-0.203l-0.046,-0.203l-0.048,-0.202l-0.049,-0.202l-0.05,-0.201l-0.051,-0.2l-0.053,-0.201l-0.053,-0.199l-0.055,-0.199l-0.056,-0.199l-0.058,-0.198l-0.058,-0.198l-0.06,-0.197l-0.061,-0.196l-0.062,-0.196l-0.063,-0.196l-0.064,-0.195l-0.066,-0.195l-0.067,-0.194l-0.068,-0.193l-0.069,-0.193l-0.07,-0.192l-0.071,-0.192l-0.072,-0.191l-0.074,-0.191l-0.075,-0.19l-0.076,-0.19l-0.076,-0.189l-0.079,-0.188l-0.079,-0.188l-0.08,-0.188l-0.082,-0.187l-0.082,-0.186l-0.084,-0.185l-0.084,-0.185l-0.086,-0.185l-0.087,-0.184l-0.088,-0.183l-0.089,-0.183l-0.091,-0.182l-0.091,-0.181l-0.092,-0.181l-0.094,-0.18l-0.094,-0.18l-0.096,-0.179l-0.096,-0.178l-0.098,-0.178l-0.098,-0.177l-0.1,-0.176l-0.101,-0.176l-0.102,-0.175l-0.103,-0.175l-0.104,-0.174l-0.104,-0.173l-0.106,-0.172l-0.107,-0.172l-0.108,-0.171l-0.109,-0.171l-0.11,-0.17l-0.111,-0.169l-0.112,-0.168l-0.113,-0.168l-0.114,-0.167l-0.115,-0.166l-0.116,-0.166l-0.117,-0.164l-0.118,-0.165l-0.119,-0.163l-0.119,-0.163l-0.121,-0.162l-0.122,-0.161l-0.123,-0.16l-0.123,-0.16l-0.125,-0.159l-0.125,-0.158l-0.127,-0.157l-0.127,-0.157l-0.128,-0.156l-0.13,-0.155l-0.13,-0.154l-0.131,-0.154l-0.132,-0.153l-0.132,-0.152l-0.134,-0.151l-0.135,-0.15l-0.135,-0.15l-0.137,-0.148l-0.137,-0.148l-0.138,-0.147l-0.139,-0.147l-0.14,-0.145l-0.141,-0.145l-0.141,-0.143l-0.143,-0.143l-0.143,-0.142l-0.144,-0.141l-0.145,-0.141l-0.146,-0.139l-0.147,-0.139l-0.147,-0.137l-0.149,-0.137l-0.149,-0.136l-0.15,-0.135l-0.15,-0.134l-0.152,-0.133l-0.152,-0.133l-0.153,-0.131l-0.154,-0.131l-0.155,-0.129l-0.155,-0.129l-0.156,-0.128l-0.157,-0.127l-0.158,-0.126l-0.159,-0.125l-0.159,-0.124l-0.16,-0.123l-0.161,-0.122l-0.161,-0.121l-0.163,-0.12l-0.162,-0.12l-0.164,-0.118l-0.165,-0.117l-0.165,-0.116l-0.165,-0.116l-0.167,-0.114l-0.167,-0.114l-0.168,-0.112l-0.169,-0.111l-0.169,-0.111l-0.17,-0.109l-0.171,-0.109l-0.171,-0.107l-0.172,-0.106l-0.173,-0.106l-0.173,-0.104l-0.174,-0.103l-0.175,-0.102l-0.175,-0.102l-0.176,-0.1l-0.177,-0.099l-0.177,-0.098l-0.178,-0.097l-0.178,-0.096l-0.179,-0.095l-0.18,-0.094l-0.181,-0.092l-0.18,-0.092l-0.182,-0.091l-0.182,-0.089l-0.183,-0.089l-0.183,-0.087l-0.184,-0.086l-0.185,-0.086l-0.185,-0.084l-0.185,-0.083l-0.187,-0.081l-0.187,-0.081l-0.187,-0.08l-0.188,-0.078l-0.188,-0.078l-0.189,-0.076l-0.19,-0.075l-0.19,-0.074l-0.191,-0.073l-0.191,-0.072l-0.192,-0.071l-0.192,-0.069l-0.193,-0.068l-0.194,-0.068l-0.193,-0.066l-0.195,-0.064l-0.195,-0.064l-0.195,-0.063l-0.196,-0.061l-0.197,-0.06l-0.197,-0.059l-0.197,-0.058l-0.198,-0.057l-0.199,-0.055l-0.199,-0.054l-0.199,-0.053l-0.2,-0.052l-0.201,-0.051l-0.201,-0.049l-0.201,-0.048l-0.202,-0.047l-0.202,-0.046l-0.203,-0.045l-0.203,-0.043l-0.204,-0.042l-0.204,-0.041l-0.205,-0.04l-0.205,-0.038l-0.206,-0.037l-0.206,-0.036l-0.207,-0.035l-0.207,-0.033l-0.207,-0.032l-0.208,-0.031l-0.208,-0.029l-0.209,-0.029l-0.21,-0.027l-0.209,-0.025l-0.21,-0.025l-0.211,-0.023l-0.211,-0.022l-0.212,-0.02l-0.212,-0.019l-0.212,-0.018l-0.213,-0.017l-0.213,-0.015l-0.214,-0.014l-0.214,-0.012l-0.214,-0.012l-0.215,-0.01l-0.216,-0.008l-0.215,-0.007l-0.217,-0.006l-0.216,-0.005l-0.217,-0.003l-0.218,-0.002l-0.256,0l0.001,-0.321l-0.183,0.001Z" style="fill:#cfcecf;"/><circle cx="399.5" cy="570.5" r="45.5" style="fill:#9e9d9d;"/><path d="M399.794,525.001l0.294,0.003l0.293,0.004l0.293,0.007l0.292,0.008l0.292,0.01l0.291,0.012l0.291,0.014l0.29,0.016l0.29,0.017l0.29,0.02l0.289,0.021l0.288,0.023l0.288,0.024l0.287,0.027l0.287,0.028l0.287,0.03l0.286,0.032l0.285,0.034l0.285,0.035l0.284,0.037l0.284,0.039l0.283,0.04l0.282,0.043l0.282,0.044l0.282,0.045l0.281,0.048l0.28,0.049l0.28,0.051l0.279,0.053l0.278,0.054l0.278,0.056l0.277,0.058l0.277,0.059l0.276,0.061l0.275,0.063l0.275,0.064l0.274,0.066l0.274,0.068l0.273,0.07l0.272,0.071l0.271,0.072l0.271,0.074l0.27,0.076l0.27,0.078l0.269,0.079l0.268,0.081l0.267,0.082l0.267,0.084l0.266,0.086l0.265,0.087l0.265,0.088l0.264,0.091l0.263,0.091l0.262,0.094l0.262,0.095l0.261,0.096l0.26,0.098l0.259,0.1l0.259,0.101l0.258,0.103l0.257,0.104l0.256,0.106l0.256,0.107l0.254,0.109l0.254,0.11l0.253,0.112l0.253,0.113l0.251,0.115l0.251,0.116l0.25,0.118l0.249,0.119l0.248,0.12l0.247,0.122l0.247,0.124l0.246,0.125l0.244,0.126l0.244,0.128l0.243,0.129l0.243,0.131l0.241,0.132l0.24,0.134l0.24,0.135l0.238,0.136l0.238,0.138l0.237,0.139l0.236,0.14l0.235,0.142l0.234,0.143l0.233,0.145l0.232,0.146l0.232,0.147l0.23,0.149l0.229,0.15l0.229,0.151l0.227,0.153l0.227,0.154l0.225,0.156l0.225,0.156l0.223,0.158l0.223,0.16l0.221,0.16l0.221,0.162l0.219,0.163l0.219,0.165l0.217,0.165l0.217,0.167l0.215,0.169l0.214,0.169l0.214,0.171l0.212,0.172l0.211,0.173l0.21,0.175l0.21,0.176l0.208,0.177l0.207,0.178l0.205,0.179l0.205,0.181l0.204,0.182l0.202,0.183l0.202,0.184l0.2,0.186l0.2,0.186l0.198,0.188l0.197,0.189l0.196,0.19l0.194,0.191l0.194,0.193l0.193,0.194l0.191,0.194l0.19,0.196l0.189,0.197l0.188,0.198l0.186,0.2l0.186,0.2l0.184,0.202l0.183,0.202l0.182,0.204l0.181,0.205l0.179,0.205l0.178,0.207l0.177,0.208l0.176,0.21l0.175,0.21l0.173,0.211l0.172,0.212l0.171,0.214l0.169,0.214l0.169,0.215l0.167,0.217l0.165,0.217l0.165,0.219l0.163,0.219l0.162,0.221l0.16,0.221l0.16,0.223l0.158,0.223l0.156,0.225l0.156,0.225l0.154,0.227l0.153,0.227l0.151,0.229l0.15,0.229l0.149,0.23l0.147,0.232l0.146,0.232l0.145,0.233l0.143,0.234l0.142,0.235l0.14,0.236l0.139,0.237l0.138,0.238l0.136,0.238l0.135,0.24l0.134,0.24l0.132,0.241l0.131,0.243l0.129,0.243l0.128,0.244l0.126,0.244l0.125,0.246l0.124,0.247l0.122,0.247l0.12,0.248l0.119,0.249l0.118,0.25l0.116,0.251l0.115,0.251l0.113,0.253l0.112,0.253l0.11,0.254l0.109,0.254l0.107,0.256l0.106,0.256l0.104,0.257l0.103,0.258l0.101,0.259l0.1,0.259l0.098,0.26l0.096,0.261l0.095,0.262l0.094,0.262l0.091,0.263l0.091,0.264l0.088,0.265l0.087,0.265l0.086,0.266l0.084,0.267l0.082,0.267l0.081,0.268l0.079,0.269l0.078,0.27l0.076,0.27l0.074,0.271l0.072,0.271l0.071,0.272l0.07,0.273l0.068,0.274l0.066,0.274l0.064,0.275l0.063,0.275l0.061,0.276l0.059,0.277l0.058,0.277l0.056,0.278l0.054,0.278l0.053,0.279l0.051,0.28l0.049,0.28l0.048,0.281l0.045,0.282l0.044,0.282l0.043,0.282l0.04,0.283l0.039,0.284l0.037,0.284l0.035,0.285l0.034,0.285l0.032,0.286l0.03,0.287l0.028,0.287l0.027,0.287l0.024,0.288l0.023,0.288l0.021,0.289l0.02,0.29l0.017,0.29l0.016,0.29l0.014,0.291l0.012,0.291l0.01,0.292l0.008,0.292l0.007,0.293l0.004,0.293l0.003,0.294l0.001,0.294l-0.001,0.294l-0.003,0.294l-0.004,0.293l-0.007,0.293l-0.008,0.292l-0.01,0.292l-0.012,0.291l-0.014,0.291l-0.016,0.29l-0.017,0.29l-0.02,0.29l-0.021,0.289l-0.023,0.288l-0.024,0.288l-0.027,0.287l-0.028,0.287l-0.03,0.287l-0.032,0.286l-0.034,0.285l-0.035,0.285l-0.037,0.284l-0.039,0.284l-0.04,0.283l-0.043,0.282l-0.044,0.282l-0.045,0.282l-0.048,0.281l-0.049,0.28l-0.051,0.28l-0.053,0.279l-0.054,0.278l-0.056,0.278l-0.058,0.277l-0.059,0.277l-0.061,0.276l-0.063,0.275l-0.064,0.275l-0.066,0.274l-0.068,0.274l-0.07,0.273l-0.071,0.272l-0.072,0.271l-0.074,0.271l-0.076,0.27l-0.078,0.27l-0.079,0.269l-0.081,0.268l-0.082,0.267l-0.084,0.267l-0.086,0.266l-0.087,0.265l-0.088,0.265l-0.091,0.264l-0.091,0.263l-0.094,0.262l-0.095,0.262l-0.096,0.261l-0.098,0.26l-0.1,0.259l-0.101,0.259l-0.103,0.258l-0.104,0.257l-0.106,0.256l-0.107,0.256l-0.109,0.254l-0.11,0.254l-0.112,0.253l-0.113,0.253l-0.115,0.251l-0.116,0.251l-0.118,0.25l-0.119,0.249l-0.12,0.248l-0.122,0.247l-0.124,0.247l-0.125,0.246l-0.126,0.244l-0.128,0.244l-0.129,0.243l-0.131,0.243l-0.132,0.241l-0.134,0.24l-0.135,0.24l-0.136,0.238l-0.138,0.238l-0.139,0.237l-0.14,0.236l-0.142,0.235l-0.143,0.234l-0.145,0.233l-0.146,0.232l-0.147,0.232l-0.149,0.23l-0.15,0.229l-0.151,0.229l-0.153,0.227l-0.154,0.227l-0.156,0.225l-0.156,0.225l-0.158,0.223l-0.16,0.223l-0.16,0.221l-0.162,0.221l-0.163,0.219l-0.165,0.219l-0.165,0.217l-0.167,0.217l-0.169,0.215l-0.169,0.214l-0.171,0.214l-0.172,0.212l-0.173,0.211l-0.175,0.21l-0.176,0.21l-0.177,0.208l-0.178,0.207l-0.179,0.205l-0.181,0.205l-0.182,0.204l-0.183,0.202l-0.184,0.202l-0.186,0.2l-0.186,0.2l-0.188,0.198l-0.189,0.197l-0.19,0.196l-0.191,0.194l-0.193,0.194l-0.194,0.193l-0.194,0.191l-0.196,0.19l-0.197,0.189l-0.198,0.188l-0.2,0.186l-0.2,0.186l-0.202,0.184l-0.202,0.183l-0.204,0.182l-0.205,0.181l-0.205,0.179l-0.207,0.178l-0.208,0.177l-0.21,0.176l-0.21,0.175l-0.211,0.173l-0.212,0.172l-0.214,0.171l-0.214,0.169l-0.215,0.169l-0.217,0.167l-0.217,0.165l-0.219,0.165l-0.219,0.163l-0.221,0.162l-0.221,0.16l-0.223,0.16l-0.223,0.158l-0.225,0.156l-0.225,0.156l-0.227,0.154l-0.227,0.153l-0.229,0.151l-0.229,0.15l-0.23,0.149l-0.232,0.147l-0.232,0.146l-0.233,0.145l-0.234,0.143l-0.235,0.142l-0.236,0.14l-0.237,0.139l-0.238,0.138l-0.238,0.136l-0.24,0.135l-0.24,0.134l-0.241,0.132l-0.243,0.131l-0.243,0.129l-0.244,0.128l-0.244,0.126l-0.246,0.125l-0.247,0.124l-0.247,0.122l-0.248,0.12l-0.249,0.119l-0.25,0.118l-0.251,0.116l-0.251,0.115l-0.253,0.113l-0.253,0.112l-0.254,0.11l-0.254,0.109l-0.256,0.107l-0.256,0.106l-0.257,0.104l-0.258,0.103l-0.259,0.101l-0.259,0.1l-0.26,0.098l-0.261,0.096l-0.262,0.095l-0.262,0.094l-0.263,0.091l-0.264,0.091l-0.265,0.088l-0.265,0.087l-0.266,0.086l-0.267,0.084l-0.267,0.082l-0.268,0.081l-0.269,0.079l-0.27,0.078l-0.27,0.076l-0.271,0.074l-0.271,0.072l-0.272,0.071l-0.273,0.07l-0.274,0.068l-0.274,0.066l-0.275,0.064l-0.275,0.063l-0.276,0.061l-0.277,0.059l-0.277,0.058l-0.278,0.056l-0.278,0.054l-0.279,0.053l-0.28,0.051l-0.28,0.049l-0.281,0.048l-0.282,0.045l-0.282,0.044l-0.282,0.043l-0.283,0.04l-0.284,0.039l-0.284,0.037l-0.285,0.035l-0.285,0.034l-0.286,0.032l-0.287,0.03l-0.287,0.028l-0.287,0.027l-0.288,0.024l-0.288,0.023l-0.289,0.021l-0.29,0.02l-0.29,0.017l-0.29,0.016l-0.291,0.014l-0.291,0.012l-0.292,0.01l-0.292,0.008l-0.293,0.007l-0.293,0.004l-0.294,0.003l-0.294,0.001l-0.294,-0.001l-0.294,-0.003l-0.293,-0.004l-0.293,-0.007l-0.292,-0.008l-0.292,-0.01l-0.291,-0.012l-0.291,-0.014l-0.29,-0.016l-0.29,-0.017l-0.29,-0.02l-0.289,-0.021l-0.288,-0.023l-0.288,-0.024l-0.287,-0.027l-0.287,-0.028l-0.287,-0.03l-0.286,-0.032l-0.285,-0.034l-0.285,-0.035l-0.284,-0.037l-0.284,-0.039l-0.283,-0.04l-0.282,-0.043l-0.282,-0.044l-0.282,-0.045l-0.281,-0.048l-0.28,-0.049l-0.28,-0.051l-0.279,-0.053l-0.278,-0.054l-0.278,-0.056l-0.277,-0.058l-0.277,-0.059l-0.276,-0.061l-0.275,-0.063l-0.275,-0.064l-0.274,-0.066l-0.274,-0.068l-0.273,-0.07l-0.272,-0.071l-0.271,-0.072l-0.271,-0.074l-0.27,-0.076l-0.27,-0.078l-0.269,-0.079l-0.268,-0.081l-0.267,-0.082l-0.267,-0.084l-0.266,-0.086l-0.265,-0.087l-0.265,-0.088l-0.264,-0.091l-0.263,-0.091l-0.262,-0.094l-0.262,-0.095l-0.261,-0.096l-0.26,-0.098l-0.259,-0.1l-0.259,-0.101l-0.258,-0.103l-0.257,-0.104l-0.256,-0.106l-0.256,-0.107l-0.254,-0.109l-0.254,-0.11l-0.253,-0.112l-0.253,-0.113l-0.251,-0.115l-0.251,-0.116l-0.25,-0.118l-0.249,-0.119l-0.248,-0.12l-0.247,-0.122l-0.247,-0.124l-0.246,-0.125l-0.244,-0.126l-0.244,-0.128l-0.243,-0.129l-0.243,-0.131l-0.241,-0.132l-0.24,-0.134l-0.24,-0.135l-0.238,-0.136l-0.238,-0.138l-0.237,-0.139l-0.236,-0.14l-0.235,-0.142l-0.234,-0.143l-0.233,-0.145l-0.232,-0.146l-0.232,-0.147l-0.23,-0.149l-0.229,-0.15l-0.229,-0.151l-0.227,-0.153l-0.227,-0.154l-0.225,-0.156l-0.225,-0.156l-0.223,-0.158l-0.223,-0.16l-0.221,-0.16l-0.221,-0.162l-0.219,-0.163l-0.219,-0.165l-0.217,-0.165l-0.217,-0.167l-0.215,-0.169l-0.214,-0.169l-0.214,-0.171l-0.212,-0.172l-0.211,-0.173l-0.21,-0.175l-0.21,-0.176l-0.208,-0.177l-0.207,-0.178l-0.205,-0.179l-0.205,-0.181l-0.204,-0.182l-0.202,-0.183l-0.202,-0.184l-0.2,-0.186l-0.2,-0.186l-0.198,-0.188l-0.197,-0.189l-0.196,-0.19l-0.194,-0.191l-0.194,-0.193l-0.193,-0.194l-0.191,-0.194l-0.19,-0.196l-0.189,-0.197l-0.188,-0.198l-0.186,-0.2l-0.186,-0.2l-0.184,-0.202l-0.183,-0.202l-0.182,-0.204l-0.181,-0.205l-0.179,-0.205l-0.178,-0.207l-0.177,-0.208l-0.176,-0.21l-0.175,-0.21l-0.173,-0.211l-0.172,-0.212l-0.171,-0.214l-0.169,-0.214l-0.169,-0.215l-0.167,-0.217l-0.165,-0.217l-0.165,-0.219l-0.163,-0.219l-0.162,-0.221l-0.16,-0.221l-0.16,-0.223l-0.158,-0.223l-0.156,-0.225l-0.156,-0.225l-0.154,-0.227l-0.153,-0.227l-0.151,-0.229l-0.15,-0.229l-0.149,-0.23l-0.147,-0.232l-0.146,-0.232l-0.145,-0.233l-0.143,-0.234l-0.142,-0.235l-0.14,-0.236l-0.139,-0.237l-0.138,-0.238l-0.136,-0.238l-0.135,-0.24l-0.134,-0.24l-0.132,-0.241l-0.131,-0.243l-0.129,-0.243l-0.128,-0.244l-0.126,-0.244l-0.125,-0.246l-0.124,-0.247l-0.122,-0.247l-0.12,-0.248l-0.119,-0.249l-0.118,-0.25l-0.116,-0.251l-0.115,-0.251l-0.113,-0.253l-0.112,-0.253l-0.11,-0.254l-0.109,-0.254l-0.107,-0.256l-0.106,-0.256l-0.104,-0.257l-0.103,-0.258l-0.101,-0.259l-0.1,-0.259l-0.098,-0.26l-0.096,-0.261l-0.095,-0.262l-0.094,-0.262l-0.091,-0.263l-0.091,-0.264l-0.088,-0.265l-0.087,-0.265l-0.086,-0.266l-0.084,-0.267l-0.082,-0.267l-0.081,-0.268l-0.079,-0.269l-0.078,-0.27l-0.076,-0.27l-0.074,-0.271l-0.072,-0.271l-0.071,-0.272l-0.07,-0.273l-0.068,-0.274l-0.066,-0.274l-0.064,-0.275l-0.063,-0.275l-0.061,-0.276l-0.059,-0.277l-0.058,-0.277l-0.056,-0.278l-0.054,-0.278l-0.053,-0.279l-0.051,-0.28l-0.049,-0.28l-0.048,-0.281l-0.045,-0.282l-0.044,-0.282l-0.043,-0.282l-0.04,-0.283l-0.039,-0.284l-0.037,-0.284l-0.035,-0.285l-0.034,-0.285l-0.032,-0.286l-0.03,-0.287l-0.028,-0.287l-0.027,-0.287l-0.024,-0.288l-0.023,-0.288l-0.021,-0.289l-0.02,-0.29l-0.017,-0.29l-0.016,-0.29l-0.014,-0.291l-0.012,-0.291l-0.01,-0.292l-0.008,-0.292l-0.007,-0.293l-0.004,-0.293l-0.003,-0.294l-0.001,-0.294l0.001,-0.294l0.003,-0.294l0.004,-0.293l0.007,-0.293l0.008,-0.292l0.01,-0.292l0.012,-0.291l0.014,-0.291l0.016,-0.29l0.017,-0.29l0.02,-0.29l0.021,-0.289l0.023,-0.288l0.024,-0.288l0.027,-0.287l0.028,-0.287l0.03,-0.287l0.032,-0.286l0.034,-0.285l0.035,-0.285l0.037,-0.284l0.039,-0.284l0.04,-0.283l0.043,-0.282l0.044,-0.282l0.045,-0.282l0.048,-0.281l0.049,-0.28l0.051,-0.28l0.053,-0.279l0.054,-0.278l0.056,-0.278l0.058,-0.277l0.059,-0.277l0.061,-0.276l0.063,-0.275l0.064,-0.275l0.066,-0.274l0.068,-0.274l0.07,-0.273l0.071,-0.272l0.072,-0.271l0.074,-0.271l0.076,-0.27l0.078,-0.27l0.079,-0.269l0.081,-0.268l0.082,-0.267l0.084,-0.267l0.086,-0.266l0.087,-0.265l0.088,-0.265l0.091,-0.264l0.091,-0.263l0.094,-0.262l0.095,-0.262l0.096,-0.261l0.098,-0.26l0.1,-0.259l0.101,-0.259l0.103,-0.258l0.104,-0.257l0.106,-0.256l0.107,-0.256l0.109,-0.254l0.11,-0.254l0.112,-0.253l0.113,-0.253l0.115,-0.251l0.116,-0.251l0.118,-0.25l0.119,-0.249l0.12,-0.248l0.122,-0.247l0.124,-0.247l0.125,-0.246l0.126,-0.244l0.128,-0.244l0.129,-0.243l0.131,-0.243l0.132,-0.241l0.134,-0.24l0.135,-0.24l0.136,-0.238l0.138,-0.238l0.139,-0.237l0.14,-0.236l0.142,-0.235l0.143,-0.234l0.145,-0.233l0.146,-0.232l0.147,-0.232l0.149,-0.23l0.15,-0.229l0.151,-0.229l0.153,-0.227l0.154,-0.227l0.156,-0.225l0.156,-0.225l0.158,-0.223l0.16,-0.223l0.16,-0.221l0.162,-0.221l0.163,-0.219l0.165,-0.219l0.165,-0.217l0.167,-0.217l0.169,-0.215l0.169,-0.214l0.171,-0.214l0.172,-0.212l0.173,-0.211l0.175,-0.21l0.176,-0.21l0.177,-0.208l0.178,-0.207l0.179,-0.205l0.181,-0.205l0.182,-0.204l0.183,-0.202l0.184,-0.202l0.186,-0.2l0.186,-0.2l0.188,-0.198l0.189,-0.197l0.19,-0.196l0.191,-0.194l0.193,-0.194l0.194,-0.193l0.194,-0.191l0.196,-0.19l0.197,-0.189l0.198,-0.188l0.2,-0.186l0.2,-0.186l0.202,-0.184l0.202,-0.183l0.204,-0.182l0.205,-0.181l0.205,-0.179l0.207,-0.178l0.208,-0.177l0.21,-0.176l0.21,-0.175l0.211,-0.173l0.212,-0.172l0.214,-0.171l0.214,-0.169l0.215,-0.169l0.217,-0.167l0.217,-0.165l0.219,-0.165l0.219,-0.163l0.221,-0.162l0.221,-0.16l0.223,-0.16l0.223,-0.158l0.225,-0.156l0.225,-0.156l0.227,-0.154l0.227,-0.153l0.229,-0.151l0.229,-0.15l0.23,-0.149l0.232,-0.147l0.232,-0.146l0.233,-0.145l0.234,-0.143l0.235,-0.142l0.236,-0.14l0.237,-0.139l0.238,-0.138l0.238,-0.136l0.24,-0.135l0.24,-0.134l0.241,-0.132l0.243,-0.131l0.243,-0.129l0.244,-0.128l0.244,-0.126l0.246,-0.125l0.247,-0.124l0.247,-0.122l0.248,-0.12l0.249,-0.119l0.25,-0.118l0.251,-0.116l0.251,-0.115l0.253,-0.113l0.253,-0.112l0.254,-0.11l0.254,-0.109l0.256,-0.107l0.256,-0.106l0.257,-0.104l0.258,-0.103l0.259,-0.101l0.259,-0.1l0.26,-0.098l0.261,-0.096l0.262,-0.095l0.262,-0.094l0.263,-0.091l0.264,-0.091l0.265,-0.088l0.265,-0.087l0.266,-0.086l0.267,-0.084l0.267,-0.082l0.268,-0.081l0.269,-0.079l0.27,-0.078l0.27,-0.076l0.271,-0.074l0.271,-0.072l0.272,-0.071l0.273,-0.07l0.274,-0.068l0.274,-0.066l0.275,-0.064l0.275,-0.063l0.276,-0.061l0.277,-0.059l0.277,-0.058l0.278,-0.056l0.278,-0.054l0.279,-0.053l0.28,-0.051l0.28,-0.049l0.281,-0.048l0.282,-0.045l0.282,-0.044l0.282,-0.043l0.283,-0.04l0.284,-0.039l0.284,-0.037l0.285,-0.035l0.285,-0.034l0.286,-0.032l0.287,-0.03l0.287,-0.028l0.287,-0.027l0.288,-0.024l0.288,-0.023l0.289,-0.021l0.29,-0.02l0.29,-0.017l0.29,-0.016l0.291,-0.014l0.291,-0.012l0.292,-0.01l0.292,-0.008l0.293,-0.007l0.293,-0.004l0.294,-0.003l0.294,-0.001l0.294,0.001Zm-0.514,11.679l-0.22,0.002l-0.219,0.004l-0.218,0.005l-0.219,0.007l-0.217,0.008l-0.218,0.009l-0.217,0.011l-0.216,0.012l-0.216,0.013l-0.216,0.015l-0.215,0.016l-0.215,0.017l-0.214,0.019l-0.214,0.02l-0.213,0.021l-0.213,0.023l-0.213,0.024l-0.212,0.025l-0.211,0.027l-0.211,0.028l-0.211,0.029l-0.21,0.03l-0.21,0.032l-0.209,0.033l-0.209,0.034l-0.208,0.036l-0.208,0.037l-0.208,0.038l-0.207,0.039l-0.206,0.041l-0.206,0.042l-0.206,0.043l-0.205,0.044l-0.204,0.046l-0.204,0.046l-0.204,0.048l-0.203,0.05l-0.202,0.05l-0.203,0.052l-0.201,0.053l-0.201,0.054l-0.201,0.055l-0.2,0.057l-0.199,0.058l-0.199,0.058l-0.199,0.061l-0.198,0.061l-0.197,0.062l-0.197,0.064l-0.197,0.065l-0.196,0.066l-0.195,0.067l-0.195,0.068l-0.194,0.07l-0.194,0.071l-0.193,0.071l-0.193,0.073l-0.192,0.074l-0.192,0.076l-0.191,0.076l-0.19,0.078l-0.19,0.078l-0.189,0.08l-0.189,0.081l-0.188,0.082l-0.188,0.083l-0.187,0.084l-0.186,0.086l-0.186,0.086l-0.185,0.088l-0.185,0.088l-0.184,0.09l-0.183,0.091l-0.183,0.092l-0.182,0.093l-0.181,0.094l-0.181,0.095l-0.181,0.096l-0.179,0.098l-0.179,0.098l-0.179,0.099l-0.177,0.101l-0.177,0.101l-0.177,0.103l-0.175,0.103l-0.176,0.105l-0.174,0.106l-0.174,0.106l-0.173,0.108l-0.172,0.109l-0.172,0.11l-0.171,0.11l-0.17,0.112l-0.17,0.113l-0.169,0.114l-0.168,0.114l-0.167,0.116l-0.167,0.117l-0.166,0.118l-0.165,0.118l-0.165,0.12l-0.164,0.121l-0.163,0.121l-0.162,0.123l-0.162,0.123l-0.161,0.125l-0.16,0.125l-0.159,0.127l-0.159,0.127l-0.157,0.128l-0.157,0.13l-0.156,0.13l-0.156,0.131l-0.155,0.132l-0.153,0.133l-0.153,0.133l-0.153,0.135l-0.151,0.136l-0.151,0.136l-0.149,0.137l-0.149,0.139l-0.148,0.139l-0.148,0.14l-0.146,0.141l-0.146,0.142l-0.144,0.142l-0.144,0.144l-0.143,0.144l-0.143,0.145l-0.141,0.146l-0.14,0.147l-0.14,0.148l-0.139,0.148l-0.137,0.15l-0.137,0.15l-0.136,0.151l-0.135,0.151l-0.135,0.153l-0.133,0.153l-0.132,0.155l-0.132,0.155l-0.13,0.155l-0.13,0.157l-0.129,0.157l-0.127,0.158l-0.127,0.159l-0.126,0.16l-0.125,0.16l-0.124,0.161l-0.123,0.162l-0.122,0.163l-0.121,0.163l-0.12,0.165l-0.119,0.164l-0.118,0.166l-0.118,0.166l-0.116,0.167l-0.115,0.168l-0.114,0.168l-0.113,0.17l-0.112,0.169l-0.112,0.171l-0.11,0.171l-0.109,0.172l-0.108,0.173l-0.107,0.173l-0.106,0.174l-0.105,0.174l-0.104,0.176l-0.103,0.176l-0.102,0.176l-0.101,0.177l-0.1,0.178l-0.099,0.179l-0.098,0.179l-0.096,0.18l-0.096,0.18l-0.094,0.181l-0.094,0.182l-0.092,0.182l-0.091,0.183l-0.091,0.183l-0.089,0.184l-0.088,0.185l-0.087,0.185l-0.085,0.186l-0.085,0.187l-0.084,0.187l-0.082,0.187l-0.081,0.188l-0.081,0.189l-0.079,0.189l-0.078,0.19l-0.077,0.191l-0.075,0.191l-0.075,0.191l-0.073,0.192l-0.073,0.193l-0.071,0.193l-0.07,0.194l-0.069,0.194l-0.067,0.195l-0.067,0.195l-0.065,0.196l-0.064,0.196l-0.063,0.197l-0.062,0.198l-0.061,0.198l-0.059,0.198l-0.058,0.199l-0.057,0.199l-0.056,0.2l-0.055,0.201l-0.053,0.201l-0.052,0.201l-0.051,0.202l-0.05,0.202l-0.049,0.203l-0.047,0.204l-0.046,0.203l-0.045,0.205l-0.044,0.205l-0.042,0.205l-0.041,0.206l-0.04,0.206l-0.039,0.206l-0.037,0.208l-0.036,0.207l-0.035,0.208l-0.034,0.209l-0.032,0.209l-0.031,0.209l-0.03,0.21l-0.028,0.21l-0.027,0.211l-0.026,0.211l-0.025,0.212l-0.023,0.212l-0.022,0.213l-0.021,0.213l-0.019,0.213l-0.018,0.214l-0.017,0.214l-0.015,0.215l-0.014,0.215l-0.013,0.216l-0.011,0.216l-0.01,0.217l-0.009,0.216l-0.007,0.218l-0.006,0.218l-0.004,0.218l-0.004,0.218l-0.001,0.22l-0.001,0.219l0.001,0.219l0.003,0.22l0.003,0.218l0.006,0.218l0.006,0.218l0.008,0.217l0.009,0.217l0.011,0.217l0.012,0.216l0.013,0.215l0.015,0.215l0.016,0.215l0.017,0.214l0.019,0.214l0.02,0.213l0.021,0.213l0.023,0.213l0.024,0.212l0.025,0.211l0.026,0.211l0.028,0.211l0.029,0.21l0.031,0.21l0.031,0.209l0.033,0.209l0.035,0.208l0.035,0.208l0.037,0.207l0.038,0.207l0.039,0.207l0.041,0.206l0.041,0.205l0.043,0.205l0.044,0.205l0.046,0.204l0.047,0.203l0.048,0.203l0.049,0.203l0.05,0.202l0.052,0.202l0.052,0.201l0.054,0.2l0.056,0.2l0.056,0.2l0.058,0.199l0.058,0.199l0.06,0.198l0.062,0.197l0.062,0.197l0.063,0.197l0.065,0.196l0.066,0.195l0.067,0.195l0.068,0.194l0.069,0.194l0.071,0.194l0.072,0.192l0.072,0.192l0.074,0.192l0.075,0.191l0.077,0.191l0.077,0.19l0.078,0.189l0.08,0.189l0.081,0.188l0.081,0.188l0.083,0.187l0.084,0.187l0.086,0.186l0.086,0.185l0.087,0.185l0.089,0.184l0.089,0.183l0.091,0.183l0.091,0.183l0.093,0.181l0.094,0.181l0.095,0.181l0.096,0.18l0.097,0.179l0.098,0.178l0.099,0.178l0.101,0.178l0.101,0.176l0.102,0.176l0.103,0.176l0.105,0.174l0.105,0.174l0.107,0.174l0.107,0.172l0.109,0.172l0.109,0.171l0.111,0.171l0.111,0.17l0.113,0.169l0.113,0.169l0.115,0.167l0.115,0.167l0.117,0.167l0.117,0.165l0.119,0.165l0.119,0.165l0.12,0.163l0.122,0.163l0.122,0.162l0.123,0.161l0.124,0.16l0.126,0.16l0.126,0.159l0.127,0.158l0.128,0.158l0.128,0.156l0.13,0.156l0.131,0.155l0.132,0.154l0.132,0.154l0.134,0.152l0.134,0.152l0.135,0.151l0.137,0.151l0.137,0.149l0.137,0.149l0.139,0.147l0.14,0.147l0.141,0.146l0.141,0.146l0.142,0.144l0.143,0.144l0.144,0.142l0.145,0.142l0.146,0.141l0.146,0.14l0.148,0.139l0.148,0.139l0.149,0.137l0.15,0.137l0.15,0.136l0.152,0.134l0.152,0.134l0.153,0.133l0.154,0.132l0.154,0.131l0.156,0.131l0.156,0.129l0.157,0.128l0.158,0.128l0.158,0.126l0.16,0.126l0.16,0.124l0.16,0.124l0.162,0.123l0.162,0.122l0.163,0.12l0.164,0.12l0.164,0.119l0.165,0.118l0.166,0.117l0.167,0.116l0.167,0.115l0.168,0.114l0.169,0.113l0.17,0.111l0.17,0.111l0.17,0.11l0.172,0.109l0.172,0.108l0.173,0.107l0.174,0.106l0.174,0.105l0.175,0.103l0.175,0.103l0.176,0.102l0.177,0.1l0.177,0.1l0.178,0.099l0.179,0.097l0.18,0.096l0.18,0.096l0.18,0.094l0.181,0.093l0.182,0.092l0.183,0.091l0.183,0.09l0.183,0.089l0.184,0.088l0.185,0.087l0.186,0.085l0.186,0.085l0.186,0.083l0.187,0.083l0.188,0.081l0.188,0.08l0.189,0.079l0.19,0.077l0.19,0.077l0.19,0.076l0.191,0.074l0.192,0.073l0.192,0.072l0.193,0.071l0.193,0.07l0.194,0.069l0.194,0.067l0.195,0.067l0.195,0.065l0.196,0.064l0.197,0.063l0.197,0.061l0.197,0.061l0.198,0.059l0.198,0.058l0.199,0.057l0.2,0.056l0.2,0.054l0.2,0.054l0.201,0.052l0.201,0.05l0.202,0.05l0.203,0.049l0.203,0.047l0.203,0.046l0.204,0.045l0.204,0.043l0.205,0.042l0.205,0.041l0.206,0.04l0.206,0.039l0.207,0.037l0.207,0.036l0.207,0.035l0.208,0.033l0.209,0.033l0.209,0.031l0.209,0.029l0.21,0.029l0.21,0.027l0.211,0.026l0.211,0.024l0.212,0.023l0.212,0.022l0.212,0.021l0.213,0.019l0.214,0.018l0.214,0.017l0.214,0.015l0.214,0.014l0.216,0.013l0.215,0.011l0.216,0.01l0.217,0.009l0.216,0.007l0.218,0.006l0.217,0.004l0.218,0.003l0.219,0.002l0.219,0l0.219,-0.001l0.219,-0.002l0.218,-0.004l0.217,-0.005l0.218,-0.006l0.216,-0.008l0.217,-0.01l0.216,-0.01l0.215,-0.012l0.215,-0.013l0.215,-0.015l0.214,-0.016l0.214,-0.017l0.213,-0.019l0.213,-0.02l0.212,-0.021l0.212,-0.023l0.211,-0.023l0.211,-0.026l0.211,-0.026l0.21,-0.028l0.21,-0.029l0.209,-0.03l0.209,-0.032l0.208,-0.033l0.208,-0.034l0.207,-0.035l0.207,-0.037l0.207,-0.038l0.205,-0.039l0.206,-0.04l0.205,-0.042l0.204,-0.043l0.204,-0.044l0.204,-0.045l0.203,-0.047l0.203,-0.048l0.202,-0.049l0.201,-0.05l0.201,-0.051l0.201,-0.053l0.2,-0.054l0.2,-0.055l0.199,-0.056l0.199,-0.058l0.198,-0.058l0.197,-0.06l0.197,-0.061l0.197,-0.062l0.196,-0.064l0.195,-0.064l0.195,-0.066l0.195,-0.067l0.194,-0.068l0.193,-0.069l0.193,-0.07l0.192,-0.072l0.192,-0.072l0.191,-0.074l0.191,-0.075l0.19,-0.076l0.189,-0.077l0.189,-0.078l0.189,-0.08l0.188,-0.08l0.187,-0.082l0.186,-0.083l0.186,-0.084l0.186,-0.085l0.185,-0.086l0.184,-0.087l0.184,-0.088l0.183,-0.089l0.183,-0.091l0.181,-0.091l0.182,-0.093l0.18,-0.093l0.18,-0.095l0.18,-0.096l0.179,-0.097l0.178,-0.097l0.177,-0.099l0.177,-0.1l0.176,-0.101l0.176,-0.102l0.175,-0.104l0.174,-0.104l0.174,-0.105l0.172,-0.106l0.173,-0.107l0.171,-0.108l0.171,-0.11l0.17,-0.11l0.17,-0.111l0.169,-0.112l0.168,-0.114l0.167,-0.114l0.167,-0.115l0.166,-0.116l0.165,-0.117l0.164,-0.119l0.164,-0.119l0.163,-0.12l0.163,-0.121l0.161,-0.122l0.161,-0.123l0.16,-0.124l0.159,-0.125l0.159,-0.125l0.158,-0.127l0.157,-0.128l0.156,-0.128l0.156,-0.13l0.154,-0.13l0.154,-0.132l0.153,-0.132l0.153,-0.133l0.151,-0.134l0.151,-0.135l0.15,-0.136l0.149,-0.137l0.148,-0.137l0.147,-0.139l0.147,-0.139l0.146,-0.14l0.145,-0.141l0.144,-0.142l0.143,-0.143l0.142,-0.144l0.142,-0.144l0.14,-0.146l0.14,-0.146l0.139,-0.147l0.138,-0.148l0.137,-0.148l0.136,-0.15l0.136,-0.15l0.134,-0.151l0.134,-0.152l0.133,-0.153l0.131,-0.153l0.131,-0.154l0.13,-0.155l0.129,-0.156l0.128,-0.157l0.127,-0.157l0.126,-0.158l0.126,-0.159l0.124,-0.16l0.123,-0.16l0.123,-0.161l0.121,-0.162l0.121,-0.163l0.119,-0.163l0.119,-0.164l0.118,-0.165l0.116,-0.166l0.116,-0.166l0.114,-0.167l0.114,-0.167l0.113,-0.169l0.111,-0.169l0.111,-0.169l0.11,-0.171l0.108,-0.171l0.108,-0.172l0.107,-0.172l0.105,-0.173l0.105,-0.174l0.103,-0.174l0.103,-0.175l0.101,-0.176l0.101,-0.177l0.099,-0.177l0.098,-0.177l0.097,-0.179l0.097,-0.178l0.095,-0.18l0.094,-0.18l0.093,-0.181l0.092,-0.181l0.091,-0.182l0.089,-0.183l0.089,-0.183l0.088,-0.184l0.086,-0.184l0.085,-0.185l0.085,-0.186l0.083,-0.186l0.082,-0.187l0.081,-0.187l0.08,-0.188l0.079,-0.188l0.077,-0.189l0.077,-0.19l0.075,-0.19l0.074,-0.19l0.073,-0.191l0.072,-0.192l0.071,-0.192l0.07,-0.193l0.068,-0.193l0.067,-0.194l0.067,-0.195l0.065,-0.195l0.063,-0.195l0.063,-0.196l0.062,-0.196l0.06,-0.197l0.059,-0.198l0.058,-0.198l0.057,-0.198l0.055,-0.199l0.055,-0.2l0.053,-0.2l0.052,-0.2l0.051,-0.201l0.049,-0.201l0.049,-0.202l0.047,-0.203l0.045,-0.203l0.045,-0.203l0.044,-0.204l0.042,-0.204l0.041,-0.205l0.039,-0.205l0.039,-0.206l0.037,-0.206l0.036,-0.206l0.035,-0.207l0.033,-0.208l0.032,-0.208l0.031,-0.208l0.03,-0.209l0.028,-0.21l0.027,-0.209l0.026,-0.211l0.024,-0.21l0.024,-0.211l0.021,-0.212l0.021,-0.212l0.019,-0.212l0.018,-0.213l0.017,-0.214l0.015,-0.213l0.014,-0.215l0.013,-0.214l0.011,-0.215l0.01,-0.216l0.008,-0.216l0.008,-0.216l0.005,-0.217l0.005,-0.217l0.003,-0.217l0.002,-0.219l0,-0.218l-0.001,-0.218l-0.002,-0.219l-0.004,-0.217l-0.005,-0.217l-0.007,-0.217l-0.008,-0.216l-0.009,-0.216l-0.01,-0.216l-0.012,-0.215l-0.014,-0.214l-0.014,-0.214l-0.016,-0.214l-0.017,-0.213l-0.019,-0.213l-0.02,-0.212l-0.021,-0.212l-0.022,-0.211l-0.024,-0.211l-0.025,-0.211l-0.027,-0.21l-0.027,-0.21l-0.029,-0.209l-0.031,-0.208l-0.031,-0.209l-0.033,-0.207l-0.034,-0.208l-0.035,-0.207l-0.037,-0.206l-0.038,-0.206l-0.039,-0.205l-0.04,-0.205l-0.042,-0.205l-0.042,-0.204l-0.044,-0.203l-0.046,-0.203l-0.046,-0.203l-0.048,-0.202l-0.049,-0.202l-0.05,-0.201l-0.051,-0.2l-0.053,-0.201l-0.053,-0.199l-0.055,-0.199l-0.056,-0.199l-0.058,-0.198l-0.058,-0.198l-0.06,-0.197l-0.061,-0.196l-0.062,-0.196l-0.063,-0.196l-0.064,-0.195l-0.066,-0.195l-0.067,-0.194l-0.068,-0.193l-0.069,-0.193l-0.07,-0.192l-0.071,-0.192l-0.072,-0.191l-0.074,-0.191l-0.075,-0.19l-0.076,-0.19l-0.076,-0.189l-0.079,-0.188l-0.079,-0.188l-0.08,-0.188l-0.082,-0.187l-0.082,-0.186l-0.084,-0.185l-0.084,-0.185l-0.086,-0.185l-0.087,-0.184l-0.088,-0.183l-0.089,-0.183l-0.091,-0.182l-0.091,-0.181l-0.092,-0.181l-0.094,-0.18l-0.094,-0.18l-0.096,-0.179l-0.096,-0.178l-0.098,-0.178l-0.098,-0.177l-0.1,-0.176l-0.101,-0.176l-0.102,-0.175l-0.103,-0.175l-0.104,-0.174l-0.104,-0.173l-0.106,-0.172l-0.107,-0.172l-0.108,-0.171l-0.109,-0.171l-0.11,-0.17l-0.111,-0.169l-0.112,-0.168l-0.113,-0.168l-0.114,-0.167l-0.115,-0.166l-0.116,-0.166l-0.117,-0.164l-0.118,-0.165l-0.119,-0.163l-0.119,-0.163l-0.121,-0.162l-0.122,-0.161l-0.123,-0.16l-0.123,-0.16l-0.125,-0.159l-0.125,-0.158l-0.127,-0.157l-0.127,-0.157l-0.128,-0.156l-0.13,-0.155l-0.13,-0.154l-0.131,-0.154l-0.132,-0.153l-0.132,-0.152l-0.134,-0.151l-0.135,-0.15l-0.135,-0.15l-0.137,-0.148l-0.137,-0.148l-0.138,-0.147l-0.139,-0.147l-0.14,-0.145l-0.141,-0.145l-0.141,-0.143l-0.143,-0.143l-0.143,-0.142l-0.144,-0.141l-0.145,-0.141l-0.146,-0.139l-0.147,-0.139l-0.147,-0.137l-0.149,-0.137l-0.149,-0.136l-0.15,-0.135l-0.15,-0.134l-0.152,-0.133l-0.152,-0.133l-0.153,-0.131l-0.154,-0.131l-0.155,-0.129l-0.155,-0.129l-0.156,-0.128l-0.157,-0.127l-0.158,-0.126l-0.159,-0.125l-0.159,-0.124l-0.16,-0.123l-0.161,-0.122l-0.161,-0.121l-0.163,-0.12l-0.162,-0.12l-0.164,-0.118l-0.165,-0.117l-0.165,-0.116l-0.165,-0.116l-0.167,-0.114l-0.167,-0.114l-0.168,-0.112l-0.169,-0.111l-0.169,-0.111l-0.17,-0.109l-0.171,-0.109l-0.171,-0.107l-0.172,-0.106l-0.173,-0.106l-0.173,-0.104l-0.174,-0.103l-0.175,-0.102l-0.175,-0.102l-0.176,-0.1l-0.177,-0.099l-0.177,-0.098l-0.178,-0.097l-0.178,-0.096l-0.179,-0.095l-0.18,-0.094l-0.181,-0.092l-0.18,-0.092l-0.182,-0.091l-0.182,-0.089l-0.183,-0.089l-0.183,-0.087l-0.184,-0.086l-0.185,-0.086l-0.185,-0.084l-0.185,-0.083l-0.187,-0.081l-0.187,-0.081l-0.187,-0.08l-0.188,-0.078l-0.188,-0.078l-0.189,-0.076l-0.19,-0.075l-0.19,-0.074l-0.191,-0.073l-0.191,-0.072l-0.192,-0.071l-0.192,-0.069l-0.193,-0.068l-0.194,-0.068l-0.193,-0.066l-0.195,-0.064l-0.195,-0.064l-0.195,-0.063l-0.196,-0.061l-0.197,-0.06l-0.197,-0.059l-0.197,-0.058l-0.198,-0.057l-0.199,-0.055l-0.199,-0.054l-0.199,-0.053l-0.2,-0.052l-0.201,-0.051l-0.201,-0.049l-0.201,-0.048l-0.202,-0.047l-0.202,-0.046l-0.203,-0.045l-0.203,-0.043l-0.204,-0.042l-0.204,-0.041l-0.205,-0.04l-0.205,-0.038l-0.206,-0.037l-0.206,-0.036l-0.207,-0.035l-0.207,-0.033l-0.207,-0.032l-0.208,-0.031l-0.208,-0.029l-0.209,-0.029l-0.21,-0.027l-0.209,-0.025l-0.21,-0.025l-0.211,-0.023l-0.211,-0.022l-0.212,-0.02l-0.212,-0.019l-0.212,-0.018l-0.213,-0.017l-0.213,-0.015l-0.214,-0.014l-0.214,-0.012l-0.214,-0.012l-0.215,-0.01l-0.216,-0.008l-0.215,-0.007l-0.217,-0.006l-0.216,-0.005l-0.217,-0.003l-0.218,-0.002l-0.256,0l0.001,-0.321l-0.183,0.001Z" style="fill:#cfcecf;"/></g></svg>